<svg width="179" height="36" viewBox="0 0 179 36" fill="none" xmlns="http://www.w3.org/2000/svg">
<path d="M33.8021 16.9923L44.4945 13.888V9.70587L22.2473 3.75598L0 9.70587V13.888L10.6925 16.9923L17.4615 18.8894V18.9756L10.6925 20.9158L0 24.0201V28.2885L22.2473 34.1952L44.4945 28.2885V24.0201L33.8021 20.9158L27.033 18.9756V18.8894L33.8021 16.9923Z" fill="white"/>
<path d="M59.4001 31.9052C58.1929 31.9052 57.2767 31.571 56.6623 30.892C56.0479 30.2129 55.7354 29.3614 55.7354 28.3266V0H59.1845V28.844H62.4613V31.9052H59.4001Z" fill="white"/>
<path d="M64.8734 4.44085C64.1296 4.44085 63.5907 4.25762 63.2566 3.90192C62.9224 3.54622 62.7607 3.07195 62.7607 2.50068V1.94018C62.7607 1.3689 62.9224 0.894638 63.2566 0.538939C63.5907 0.183239 64.1296 0 64.8734 0C65.6171 0 66.156 0.183239 66.4902 0.538939C66.8243 0.894638 66.986 1.3689 66.986 1.94018V2.50068C66.986 3.07195 66.8243 3.54622 66.4902 3.90192C66.156 4.25762 65.6171 4.44085 64.8734 4.44085ZM63.1488 9.65778H66.598V31.9052H63.1488V9.65778Z" fill="white"/>
<path d="M83.8473 28.3266H83.6748C82.3275 31.0644 80.1502 32.4226 77.1645 32.4226C75.7848 32.4226 74.5345 32.1531 73.4135 31.6034C72.2925 31.0536 71.3332 30.2776 70.5463 29.2751C69.7595 28.2727 69.1559 27.0439 68.7355 25.6104C68.3151 24.1768 68.1104 22.56 68.1104 20.7815C68.1104 19.003 68.3151 17.3862 68.7355 15.9526C69.1559 14.519 69.7595 13.2902 70.5463 12.2878C71.3332 11.2854 72.2925 10.5093 73.4135 9.95959C74.5345 9.40987 75.7848 9.1404 77.1645 9.1404C78.7166 9.1404 80.0424 9.47454 81.1526 10.1428C82.2628 10.8111 83.1035 11.8459 83.6748 13.2363H83.8473V0H87.2965V31.9052H83.8473V28.3266ZM78.113 29.3614C78.8891 29.3614 79.6328 29.2644 80.3334 29.0596C81.034 28.8548 81.6484 28.5637 82.1658 28.1757C82.6832 27.7877 83.0928 27.3134 83.3946 26.7421C83.6964 26.1816 83.8473 25.5349 83.8473 24.8127V16.4915C83.8473 15.8879 83.6964 15.3166 83.3946 14.7777C83.0928 14.2388 82.6832 13.786 82.1658 13.4088C81.6484 13.0315 81.034 12.7405 80.3334 12.5249C79.6328 12.3094 78.8891 12.2016 78.113 12.2016C76.1621 12.2016 74.6207 12.816 73.4997 14.0447C72.3787 15.2735 71.8182 16.8796 71.8182 18.8736V22.6893C71.8182 24.6834 72.3787 26.2894 73.4997 27.5182C74.6207 28.747 76.1621 29.3614 78.113 29.3614Z" fill="white"/>
<path d="M104.544 28.3266H104.371C103.024 31.0644 100.846 32.4226 97.8608 32.4226C96.4811 32.4226 95.2308 32.1531 94.1098 31.6034C92.9888 31.0536 92.0295 30.2776 91.2426 29.2751C90.4558 28.2727 89.8522 27.0439 89.4318 25.6104C89.0114 24.1768 88.8066 22.56 88.8066 20.7815C88.8066 19.003 89.0114 17.3862 89.4318 15.9526C89.8522 14.519 90.4558 13.2902 91.2426 12.2878C92.0295 11.2854 92.9888 10.5093 94.1098 9.95959C95.2308 9.40987 96.4811 9.1404 97.8608 9.1404C99.4129 9.1404 100.739 9.47454 101.849 10.1428C102.959 10.8111 103.8 11.8459 104.371 13.2363H104.544V0H107.993V31.9052H104.544V28.3266ZM98.8093 29.3614C99.5854 29.3614 100.329 29.2644 101.03 29.0596C101.73 28.8548 102.345 28.5637 102.862 28.1757C103.379 27.7877 103.789 27.3134 104.091 26.7421C104.393 26.1816 104.544 25.5349 104.544 24.8127V16.4915C104.544 15.8879 104.393 15.3166 104.091 14.7777C103.789 14.2388 103.379 13.786 102.862 13.4088C102.345 13.0315 101.73 12.7405 101.03 12.5249C100.329 12.3094 99.5854 12.2016 98.8093 12.2016C96.8583 12.2016 95.317 12.816 94.196 14.0447C93.075 15.2735 92.5145 16.8796 92.5145 18.8736V22.6893C92.5145 24.6834 93.075 26.2894 94.196 27.5182C95.317 28.747 96.8583 29.3614 98.8093 29.3614Z" fill="white"/>
<path d="M135.026 5.56079V8.92377L125.411 11.2951L115.667 13.6664V13.7527L125.411 16.4689L135.026 19.2714V22.3326L125.411 25.2213L115.667 27.9806V28.0669L125.411 30.352L135.026 32.7664V36L112.778 30.0933V25.8249L123.471 22.7206L130.24 20.7804V20.6942L123.471 18.7971L112.778 15.6928V11.5107L135.026 5.56079Z" fill="white"/>
<path d="M147.96 32.423C146.44 32.423 145.06 32.1535 143.842 31.6038C142.624 31.0541 141.568 30.278 140.695 29.2541C139.822 28.2301 139.143 27.0121 138.668 25.5893C138.194 24.1665 137.957 22.5604 137.957 20.7819C137.957 19.0034 138.194 17.4297 138.668 15.9962C139.143 14.5626 139.822 13.3338 140.695 12.3098C141.568 11.2858 142.624 10.5098 143.842 9.96006C145.06 9.41034 146.44 9.14087 147.96 9.14087C149.479 9.14087 150.794 9.41034 151.969 9.96006C153.144 10.499 154.157 11.2535 154.987 12.2128C155.817 13.1721 156.464 14.3147 156.906 15.6297C157.348 16.9447 157.574 18.3891 157.574 19.9735V21.6011H141.579V22.6359C141.579 23.5844 141.73 24.4683 142.031 25.2875C142.333 26.1067 142.764 26.8181 143.325 27.4217C143.885 28.0253 144.575 28.4995 145.394 28.8445C146.214 29.1894 147.141 29.3618 148.175 29.3618C149.587 29.3618 150.816 29.0277 151.862 28.3702C152.907 27.7127 153.726 26.7642 154.298 25.5246L156.755 27.3031C156.033 28.8337 154.912 30.0732 153.392 31.011C151.872 31.9488 150.062 32.423 147.96 32.423ZM147.96 12.0296C147.011 12.0296 146.149 12.1913 145.373 12.5254C144.597 12.8488 143.928 13.323 143.368 13.9159C142.807 14.5195 142.366 15.2201 142.053 16.0393C141.74 16.8585 141.579 17.7423 141.579 18.7232V19.025H153.866V18.5507C153.866 16.5782 153.327 15.0045 152.25 13.8189C151.172 12.6332 149.738 12.0404 147.96 12.0404V12.0296Z" fill="white"/>
<path d="M158.951 0H162.4V13.2363H162.573C163.144 11.8459 163.985 10.8111 165.095 10.1428C166.205 9.47454 167.531 9.1404 169.083 9.1404C170.463 9.1404 171.713 9.40987 172.834 9.95959C173.955 10.5093 174.914 11.2854 175.701 12.2878C176.488 13.2902 177.092 14.519 177.512 15.9526C177.932 17.3862 178.137 19.003 178.137 20.7815C178.137 22.56 177.932 24.1768 177.512 25.6104C177.092 27.0439 176.488 28.2727 175.701 29.2751C174.914 30.2776 173.955 31.0536 172.834 31.6034C171.713 32.1531 170.463 32.4226 169.083 32.4226C166.065 32.4226 163.899 31.0536 162.573 28.3266H162.4V31.9052H158.951V0ZM168.135 29.3614C170.086 29.3614 171.627 28.747 172.748 27.5182C173.869 26.2894 174.429 24.6834 174.429 22.6893V18.8736C174.429 16.8796 173.869 15.2735 172.748 14.0447C171.627 12.816 170.086 12.2016 168.135 12.2016C167.359 12.2016 166.615 12.3094 165.914 12.5249C165.214 12.7405 164.599 13.0423 164.082 13.4088C163.564 13.7753 163.155 14.2388 162.853 14.7777C162.551 15.3166 162.4 15.8879 162.4 16.4915V24.8127C162.4 25.5349 162.551 26.1816 162.853 26.7421C163.155 27.3026 163.564 27.7769 164.082 28.1757C164.599 28.5637 165.214 28.8656 165.914 29.0596C166.615 29.2644 167.359 29.3614 168.135 29.3614Z" fill="white"/>
</svg>
