<svg width="119" height="24" viewBox="0 0 119 24" fill="none" xmlns="http://www.w3.org/2000/svg">
<path d="M22.5402 11.3295L29.6703 9.26008V6.47206L14.8351 2.50562L0 6.47206V9.26008L7.13007 11.3295L11.6439 12.5942V12.6517L7.13007 13.9451L0 16.0145V18.86L14.8351 22.7977L29.6703 18.86V16.0145L22.5402 13.9451L18.0264 12.6517V12.5942L22.5402 11.3295Z" fill="#27C5D9"/>
<path d="M39.6117 21.2694C38.8067 21.2694 38.1958 21.0466 37.7861 20.5939C37.3764 20.1412 37.168 19.5736 37.168 18.8837V0H39.468V19.2287H41.653V21.2694H39.6117Z" fill="white"/>
<path d="M43.2619 2.96046C42.7661 2.96046 42.4068 2.83831 42.1841 2.60119C41.9613 2.36406 41.8535 2.04789 41.8535 1.66706V1.29341C41.8535 0.912571 41.9613 0.596404 42.1841 0.35928C42.4068 0.122155 42.7661 0 43.2619 0C43.7577 0 44.117 0.122155 44.3397 0.35928C44.5625 0.596404 44.6703 0.912571 44.6703 1.29341V1.66706C44.6703 2.04789 44.5625 2.36406 44.3397 2.60119C44.117 2.83831 43.7577 2.96046 43.2619 2.96046ZM42.1122 6.43829H44.4116V21.2694H42.1122V6.43829Z" fill="white"/>
<path d="M55.9138 18.8837H55.7988C54.9003 20.7089 53.4484 21.6143 51.4575 21.6143C50.5375 21.6143 49.7037 21.4346 48.9562 21.0682C48.2087 20.7017 47.569 20.1843 47.0443 19.5161C46.5196 18.8478 46.1171 18.0287 45.8368 17.073C45.5565 16.1173 45.4199 15.0395 45.4199 13.8538C45.4199 12.6682 45.5565 11.5904 45.8368 10.6347C46.1171 9.679 46.5196 8.85984 47.0443 8.19158C47.569 7.52332 48.2087 7.00596 48.9562 6.63949C49.7037 6.27302 50.5375 6.09338 51.4575 6.09338C52.4925 6.09338 53.3766 6.31614 54.1169 6.76164C54.8572 7.20715 55.4178 7.89697 55.7988 8.82391H55.9138V0H58.2138V21.2694H55.9138V18.8837ZM52.09 19.5736C52.6075 19.5736 53.1034 19.5089 53.5706 19.3724C54.0378 19.2358 54.4475 19.0418 54.7925 18.7831C55.1375 18.5245 55.4106 18.2083 55.6119 17.8275C55.8131 17.4538 55.9138 17.0227 55.9138 16.5412V10.994C55.9138 10.5916 55.8131 10.2107 55.6119 9.85145C55.4106 9.49217 55.1375 9.19038 54.7925 8.93888C54.4475 8.68738 54.0378 8.49337 53.5706 8.34966C53.1034 8.20595 52.6075 8.13409 52.09 8.13409C50.789 8.13409 49.7612 8.54367 49.0137 9.36283C48.2662 10.182 47.8924 11.2526 47.8924 12.582V15.1257C47.8924 16.455 48.2662 17.5257 49.0137 18.3448C49.7612 19.164 50.789 19.5736 52.09 19.5736Z" fill="white"/>
<path d="M69.7126 18.8837H69.5976C68.6992 20.7089 67.2473 21.6143 65.2563 21.6143C64.3363 21.6143 63.5025 21.4346 62.755 21.0682C62.0075 20.7017 61.3678 20.1843 60.8431 19.5161C60.3184 18.8478 59.9159 18.0287 59.6356 17.073C59.3553 16.1173 59.2188 15.0395 59.2188 13.8538C59.2188 12.6682 59.3553 11.5904 59.6356 10.6347C59.9159 9.679 60.3184 8.85984 60.8431 8.19158C61.3678 7.52332 62.0075 7.00596 62.755 6.63949C63.5025 6.27302 64.3363 6.09338 65.2563 6.09338C66.2913 6.09338 67.1754 6.31614 67.9157 6.76164C68.656 7.20715 69.2167 7.89697 69.5976 8.82391H69.7126V0H72.0126V21.2694H69.7126V18.8837ZM65.8888 19.5736C66.4063 19.5736 66.9023 19.5089 67.3695 19.3724C67.8366 19.2358 68.2463 19.0418 68.5913 18.7831C68.9363 18.5245 69.2095 18.2083 69.4107 17.8275C69.612 17.4538 69.7126 17.0227 69.7126 16.5412V10.994C69.7126 10.5916 69.612 10.2107 69.4107 9.85145C69.2095 9.49217 68.9363 9.19038 68.5913 8.93888C68.2463 8.68738 67.8366 8.49337 67.3695 8.34966C66.9023 8.20595 66.4063 8.13409 65.8888 8.13409C64.5879 8.13409 63.56 8.54367 62.8125 9.36283C62.065 10.182 61.6913 11.2526 61.6913 12.582V15.1257C61.6913 16.455 62.065 17.5257 62.8125 18.3448C63.56 19.164 64.5879 19.5736 65.8888 19.5736Z" fill="white"/>
<path d="M90.0412 3.70776V5.94967L83.6299 7.5305L77.1323 9.11133V9.16882L83.6299 10.9796L90.0412 12.8478V14.8885L83.6299 16.8143L77.1323 18.6538V18.7113L83.6299 20.2346L90.0412 21.8442V23.9999L75.2061 20.0622V17.2167L82.3361 15.1472L86.8499 13.8538V13.7963L82.3361 12.5317L75.2061 10.4622V7.67421L90.0412 3.70776Z" fill="white"/>
<path d="M98.6662 21.6146C97.6527 21.6146 96.7327 21.435 95.9205 21.0685C95.1083 20.7021 94.4039 20.1847 93.8217 19.5021C93.2395 18.8194 92.7867 18.0075 92.4705 17.059C92.1542 16.1105 91.9961 15.0398 91.9961 13.8542C91.9961 12.6686 92.1542 11.6195 92.4705 10.6638C92.7867 9.7081 93.2395 8.88895 93.8217 8.20632C94.4039 7.52368 95.1083 7.00632 95.9205 6.63986C96.7327 6.27339 97.6527 6.09375 98.6662 6.09375C99.6796 6.09375 100.556 6.27339 101.34 6.63986C102.123 6.99914 102.799 7.50213 103.352 8.14164C103.906 8.78116 104.337 9.54284 104.632 10.4195C104.927 11.2961 105.077 12.259 105.077 13.3153V14.4003H94.4111V15.0901C94.4111 15.7224 94.5117 16.3117 94.713 16.8578C94.9143 17.4039 95.2018 17.8781 95.5755 18.2805C95.9493 18.6829 96.4093 18.9991 96.9555 19.229C97.5018 19.459 98.1199 19.5739 98.8099 19.5739C99.7515 19.5739 100.571 19.3512 101.268 18.9129C101.965 18.4745 102.512 17.8422 102.892 17.0159L104.531 18.2015C104.05 19.2218 103.302 20.0482 102.289 20.6733C101.275 21.2985 100.068 21.6146 98.6662 21.6146ZM98.6662 8.01949C98.0337 8.01949 97.4586 8.12727 96.9411 8.35003C96.4236 8.56559 95.978 8.88176 95.6043 9.27697C95.2305 9.67936 94.9358 10.1464 94.7274 10.6925C94.5189 11.2386 94.4111 11.8279 94.4111 12.4817V12.6829H102.605V12.3668C102.605 11.0518 102.246 10.0027 101.527 9.2123C100.808 8.42188 99.8521 8.02668 98.6662 8.02668V8.01949Z" fill="white"/>
<path d="M105.997 0H108.297V8.82391H108.412C108.793 7.89697 109.354 7.20715 110.094 6.76164C110.834 6.31614 111.718 6.09338 112.753 6.09338C113.673 6.09338 114.507 6.27302 115.255 6.63949C116.002 7.00596 116.642 7.52332 117.167 8.19158C117.691 8.85984 118.094 9.679 118.374 10.6347C118.654 11.5904 118.791 12.6682 118.791 13.8538C118.791 15.0395 118.654 16.1173 118.374 17.073C118.094 18.0287 117.691 18.8478 117.167 19.5161C116.642 20.1843 116.002 20.7017 115.255 21.0682C114.507 21.4346 113.673 21.6143 112.753 21.6143C110.741 21.6143 109.296 20.7017 108.412 18.8837H108.297V21.2694H105.997V0ZM112.121 19.5736C113.422 19.5736 114.45 19.164 115.197 18.3448C115.945 17.5257 116.318 16.455 116.318 15.1257V12.582C116.318 11.2526 115.945 10.182 115.197 9.36283C114.45 8.54367 113.422 8.13409 112.121 8.13409C111.603 8.13409 111.107 8.20595 110.64 8.34966C110.173 8.49337 109.763 8.69457 109.418 8.93888C109.073 9.18319 108.8 9.49217 108.599 9.85145C108.398 10.2107 108.297 10.5916 108.297 10.994V16.5412C108.297 17.0227 108.398 17.4538 108.599 17.8275C108.8 18.2011 109.073 18.5173 109.418 18.7831C109.763 19.0418 110.173 19.243 110.64 19.3724C111.107 19.5089 111.603 19.5736 112.121 19.5736Z" fill="white"/>
</svg>
