<svg width="1440" height="491" viewBox="0 0 1440 491" fill="none" xmlns="http://www.w3.org/2000/svg">
<path d="M-62.5558 435.89C-83.4996 435.89 -101.498 431.963 -116.551 424.11C-131.605 415.928 -144.04 404.311 -153.858 389.258C-163.675 374.204 -170.874 355.715 -175.456 333.789C-180.037 311.864 -182.328 286.83 -182.328 258.686C-182.328 230.87 -180.037 206 -175.456 184.074C-170.874 161.821 -163.675 143.168 -153.858 128.115C-144.04 113.062 -131.605 101.608 -116.551 93.754C-101.498 85.5729 -83.4996 81.4823 -62.5558 81.4823C-41.612 81.4823 -23.6134 85.5729 -8.56006 93.754C6.49329 101.608 18.9287 113.062 28.7461 128.115C38.5635 143.168 45.7629 161.821 50.3443 184.074C54.9258 206 57.2165 230.87 57.2165 258.686C57.2165 286.83 54.9258 311.864 50.3443 333.789C45.7629 355.715 38.5635 374.204 28.7461 389.258C18.9287 404.311 6.49329 415.928 -8.56006 424.11C-23.6134 431.963 -41.612 435.89 -62.5558 435.89ZM-62.5558 400.057C-48.8114 400.057 -37.0305 397.439 -27.2131 392.203C-17.3957 386.64 -9.54181 378.95 -3.65137 369.132C2.56632 359.315 7.14777 347.534 10.093 333.789C13.0382 319.718 14.5108 304.01 14.5108 286.666V230.707C14.5108 213.69 13.0382 198.146 10.093 184.074C7.14777 170.003 2.56632 158.058 -3.65137 148.241C-9.54181 138.423 -17.3957 130.897 -27.2131 125.661C-37.0305 120.097 -48.8114 117.316 -62.5558 117.316C-76.3001 117.316 -88.081 120.097 -97.8984 125.661C-107.716 130.897 -115.733 138.423 -121.951 148.241C-127.841 158.058 -132.259 170.003 -135.205 184.074C-138.15 198.146 -139.622 213.69 -139.622 230.707V286.666C-139.622 304.01 -138.15 319.718 -135.205 333.789C-132.259 347.534 -127.841 359.315 -121.951 369.132C-115.733 378.95 -107.716 386.64 -97.8984 392.203C-88.081 397.439 -76.3001 400.057 -62.5558 400.057ZM-62.5558 287.648C-74.0094 287.648 -82.0269 285.357 -86.6084 280.776C-90.8626 276.194 -92.9897 270.631 -92.9897 264.086V253.287C-92.9897 246.742 -90.8626 241.179 -86.6084 236.597C-82.0269 232.016 -74.0094 229.725 -62.5558 229.725C-51.1021 229.725 -43.2482 232.016 -38.994 236.597C-34.4126 241.179 -32.1218 246.742 -32.1218 253.287V264.086C-32.1218 270.631 -34.4126 276.194 -38.994 280.776C-43.2482 285.357 -51.1021 287.648 -62.5558 287.648ZM182.687 435.89C161.744 435.89 143.745 431.963 128.692 424.11C113.638 415.928 101.203 404.311 91.3857 389.258C81.5683 374.204 74.3688 355.715 69.7874 333.789C65.2059 311.864 62.9152 286.83 62.9152 258.686C62.9152 230.87 65.2059 206 69.7874 184.074C74.3688 161.821 81.5683 143.168 91.3857 128.115C101.203 113.062 113.638 101.608 128.692 93.754C143.745 85.5729 161.744 81.4823 182.687 81.4823C203.631 81.4823 221.63 85.5729 236.683 93.754C251.737 101.608 264.172 113.062 273.989 128.115C283.807 143.168 291.006 161.821 295.588 184.074C300.169 206 302.46 230.87 302.46 258.686C302.46 286.83 300.169 311.864 295.588 333.789C291.006 355.715 283.807 374.204 273.989 389.258C264.172 404.311 251.737 415.928 236.683 424.11C221.63 431.963 203.631 435.89 182.687 435.89ZM182.687 400.057C196.432 400.057 208.213 397.439 218.03 392.203C227.848 386.64 235.701 378.95 241.592 369.132C247.81 359.315 252.391 347.534 255.336 333.789C258.281 319.718 259.754 304.01 259.754 286.666V230.707C259.754 213.69 258.281 198.146 255.336 184.074C252.391 170.003 247.81 158.058 241.592 148.241C235.701 138.423 227.848 130.897 218.03 125.661C208.213 120.097 196.432 117.316 182.687 117.316C168.943 117.316 157.162 120.097 147.345 125.661C137.527 130.897 129.51 138.423 123.292 148.241C117.402 158.058 112.984 170.003 110.039 184.074C107.094 198.146 105.621 213.69 105.621 230.707V286.666C105.621 304.01 107.094 319.718 110.039 333.789C112.984 347.534 117.402 359.315 123.292 369.132C129.51 378.95 137.527 386.64 147.345 392.203C157.162 397.439 168.943 400.057 182.687 400.057ZM182.687 287.648C171.234 287.648 163.216 285.357 158.635 280.776C154.381 276.194 152.254 270.631 152.254 264.086V253.287C152.254 246.742 154.381 241.179 158.635 236.597C163.216 232.016 171.234 229.725 182.687 229.725C194.141 229.725 201.995 232.016 206.249 236.597C210.831 241.179 213.121 246.742 213.121 253.287V264.086C213.121 270.631 210.831 276.194 206.249 280.776C201.995 285.357 194.141 287.648 182.687 287.648Z" fill="white" fill-opacity="0.05"/>
<path d="M466.219 430V362.751H297.359V326.426L445.602 87.3727H505.488V328.881H556.539V362.751H505.488V430H466.219ZM334.175 328.881H466.219V119.279H464.255L334.175 328.881Z" fill="white"/>
<path d="M1026.55 430V362.751H857.69V326.426L1005.93 87.3727H1065.82V328.881H1116.87V362.751H1065.82V430H1026.55ZM894.505 328.881H1026.55V119.279H1024.59L894.505 328.881Z" fill="white"/>
<path d="M1233.5 435.89C1212.56 435.89 1194.56 431.963 1179.51 424.11C1164.46 415.928 1152.02 404.311 1142.2 389.258C1132.39 374.204 1125.19 355.715 1120.6 333.789C1116.02 311.864 1113.73 286.83 1113.73 258.686C1113.73 230.87 1116.02 206 1120.6 184.074C1125.19 161.821 1132.39 143.168 1142.2 128.115C1152.02 113.062 1164.46 101.608 1179.51 93.754C1194.56 85.5729 1212.56 81.4823 1233.5 81.4823C1254.45 81.4823 1272.45 85.5729 1287.5 93.754C1302.55 101.608 1314.99 113.062 1324.81 128.115C1334.62 143.168 1341.82 161.821 1346.4 184.074C1350.99 206 1353.28 230.87 1353.28 258.686C1353.28 286.83 1350.99 311.864 1346.4 333.789C1341.82 355.715 1334.62 374.204 1324.81 389.258C1314.99 404.311 1302.55 415.928 1287.5 424.11C1272.45 431.963 1254.45 435.89 1233.5 435.89ZM1233.5 400.057C1247.25 400.057 1259.03 397.439 1268.85 392.203C1278.66 386.64 1286.52 378.95 1292.41 369.132C1298.63 359.315 1303.21 347.534 1306.15 333.789C1309.1 319.718 1310.57 304.01 1310.57 286.666V230.707C1310.57 213.69 1309.1 198.146 1306.15 184.074C1303.21 170.003 1298.63 158.058 1292.41 148.241C1286.52 138.423 1278.66 130.897 1268.85 125.661C1259.03 120.097 1247.25 117.316 1233.5 117.316C1219.76 117.316 1207.98 120.097 1198.16 125.661C1188.34 130.897 1180.33 138.423 1174.11 148.241C1168.22 158.058 1163.8 170.003 1160.86 184.074C1157.91 198.146 1156.44 213.69 1156.44 230.707V286.666C1156.44 304.01 1157.91 319.718 1160.86 333.789C1163.8 347.534 1168.22 359.315 1174.11 369.132C1180.33 378.95 1188.34 386.64 1198.16 392.203C1207.98 397.439 1219.76 400.057 1233.5 400.057ZM1233.5 287.648C1222.05 287.648 1214.03 285.357 1209.45 280.776C1205.2 276.194 1203.07 270.631 1203.07 264.086V253.287C1203.07 246.742 1205.2 241.179 1209.45 236.597C1214.03 232.016 1222.05 229.725 1233.5 229.725C1244.96 229.725 1252.81 232.016 1257.07 236.597C1261.65 241.179 1263.94 246.742 1263.94 253.287V264.086C1263.94 270.631 1261.65 276.194 1257.07 280.776C1252.81 285.357 1244.96 287.648 1233.5 287.648ZM1478.75 435.89C1457.8 435.89 1439.81 431.963 1424.75 424.11C1409.7 415.928 1397.26 404.311 1387.45 389.258C1377.63 374.204 1370.43 355.715 1365.85 333.789C1361.27 311.864 1358.98 286.83 1358.98 258.686C1358.98 230.87 1361.27 206 1365.85 184.074C1370.43 161.821 1377.63 143.168 1387.45 128.115C1397.26 113.062 1409.7 101.608 1424.75 93.754C1439.81 85.5729 1457.8 81.4823 1478.75 81.4823C1499.69 81.4823 1517.69 85.5729 1532.74 93.754C1547.8 101.608 1560.23 113.062 1570.05 128.115C1579.87 143.168 1587.07 161.821 1591.65 184.074C1596.23 206 1598.52 230.87 1598.52 258.686C1598.52 286.83 1596.23 311.864 1591.65 333.789C1587.07 355.715 1579.87 374.204 1570.05 389.258C1560.23 404.311 1547.8 415.928 1532.74 424.11C1517.69 431.963 1499.69 435.89 1478.75 435.89ZM1478.75 400.057C1492.49 400.057 1504.27 397.439 1514.09 392.203C1523.91 386.64 1531.76 378.95 1537.65 369.132C1543.87 359.315 1548.45 347.534 1551.4 333.789C1554.34 319.718 1555.81 304.01 1555.81 286.666V230.707C1555.81 213.69 1554.34 198.146 1551.4 184.074C1548.45 170.003 1543.87 158.058 1537.65 148.241C1531.76 138.423 1523.91 130.897 1514.09 125.661C1504.27 120.097 1492.49 117.316 1478.75 117.316C1465 117.316 1453.22 120.097 1443.4 125.661C1433.59 130.897 1425.57 138.423 1419.35 148.241C1413.46 158.058 1409.04 170.003 1406.1 184.074C1403.15 198.146 1401.68 213.69 1401.68 230.707V286.666C1401.68 304.01 1403.15 319.718 1406.1 333.789C1409.04 347.534 1413.46 359.315 1419.35 369.132C1425.57 378.95 1433.59 386.64 1443.4 392.203C1453.22 397.439 1465 400.057 1478.75 400.057ZM1478.75 287.648C1467.29 287.648 1459.28 285.357 1454.69 280.776C1450.44 276.194 1448.31 270.631 1448.31 264.086V253.287C1448.31 246.742 1450.44 241.179 1454.69 236.597C1459.28 232.016 1467.29 229.725 1478.75 229.725C1490.2 229.725 1498.06 232.016 1502.31 236.597C1506.89 241.179 1509.18 246.742 1509.18 253.287V264.086C1509.18 270.631 1506.89 276.194 1502.31 280.776C1498.06 285.357 1490.2 287.648 1478.75 287.648Z" fill="white" fill-opacity="0.05"/>
</svg>
