<svg width="375" height="160" viewBox="0 0 375 160" fill="none" xmlns="http://www.w3.org/2000/svg">
<path d="M-124.766 157.4C-141.432 157.4 -153.632 151.067 -161.366 138.4C-168.966 125.733 -172.766 108 -172.766 85.2C-172.766 62.4 -168.966 44.6667 -161.366 32C-153.632 19.3333 -141.432 13 -124.766 13C-108.099 13 -95.9656 19.3333 -88.3656 32C-80.6323 44.6667 -76.7656 62.4 -76.7656 85.2C-76.7656 108 -80.6323 125.733 -88.3656 138.4C-95.9656 151.067 -108.099 157.4 -124.766 157.4ZM-124.766 142.8C-119.299 142.8 -114.632 141.667 -110.766 139.4C-106.899 137.133 -103.766 133.933 -101.366 129.8C-98.9656 125.667 -97.2323 120.8 -96.1656 115.2C-94.9656 109.6 -94.3656 103.4 -94.3656 96.6V73.8C-94.3656 67 -94.9656 60.8 -96.1656 55.2C-97.2323 49.6 -98.9656 44.7333 -101.366 40.6C-103.766 36.4667 -106.899 33.2667 -110.766 31C-114.632 28.7333 -119.299 27.6 -124.766 27.6C-130.232 27.6 -134.899 28.7333 -138.766 31C-142.632 33.2667 -145.766 36.4667 -148.166 40.6C-150.566 44.7333 -152.366 49.6 -153.566 55.2C-154.632 60.8 -155.166 67 -155.166 73.8V96.6C-155.166 103.4 -154.632 109.6 -153.566 115.2C-152.366 120.8 -150.566 125.667 -148.166 129.8C-145.766 133.933 -142.632 137.133 -138.766 139.4C-134.899 141.667 -130.232 142.8 -124.766 142.8ZM-24.8437 157.4C-41.5104 157.4 -53.7104 151.067 -61.4437 138.4C-69.0437 125.733 -72.8437 108 -72.8437 85.2C-72.8437 62.4 -69.0437 44.6667 -61.4437 32C-53.7104 19.3333 -41.5104 13 -24.8437 13C-8.17708 13 3.95625 19.3333 11.5563 32C19.2896 44.6667 23.1563 62.4 23.1563 85.2C23.1563 108 19.2896 125.733 11.5563 138.4C3.95625 151.067 -8.17708 157.4 -24.8437 157.4ZM-24.8437 142.8C-19.3771 142.8 -14.7104 141.667 -10.8437 139.4C-6.97708 137.133 -3.84375 133.933 -1.44374 129.8C0.956256 125.667 2.68959 120.8 3.75625 115.2C4.95625 109.6 5.55625 103.4 5.55625 96.6V73.8C5.55625 67 4.95625 60.8 3.75625 55.2C2.68959 49.6 0.956256 44.7333 -1.44374 40.6C-3.84375 36.4667 -6.97708 33.2667 -10.8437 31C-14.7104 28.7333 -19.3771 27.6 -24.8437 27.6C-30.3104 27.6 -34.9771 28.7333 -38.8437 31C-42.7104 33.2667 -45.8437 36.4667 -48.2437 40.6C-50.6437 44.7333 -52.4437 49.6 -53.6437 55.2C-54.7104 60.8 -55.2437 67 -55.2437 73.8V96.6C-55.2437 103.4 -54.7104 109.6 -53.6437 115.2C-52.4437 120.8 -50.6437 125.667 -48.2437 129.8C-45.8437 133.933 -42.7104 137.133 -38.8437 139.4C-34.9771 141.667 -30.3104 142.8 -24.8437 142.8Z" fill="white" fill-opacity="0.05"/>
<path d="M90.0781 155V127.6H22.6781V112.8L81.0781 15.4H106.078V113.6H126.278V127.6H106.078V155H90.0781ZM38.4781 113.6H90.0781V28.4H89.0781L38.4781 113.6Z" fill="white"/>
<path d="M316 155V127.6H248.6V112.8L307 15.4H332V113.6H352.2V127.6H332V155H316ZM264.4 113.6H316V28.4H315L264.4 113.6Z" fill="white"/>
<path d="M400.922 157.4C384.255 157.4 372.055 151.067 364.322 138.4C356.722 125.733 352.922 108 352.922 85.2C352.922 62.4 356.722 44.6667 364.322 32C372.055 19.3333 384.255 13 400.922 13C417.589 13 429.722 19.3333 437.322 32C445.055 44.6667 448.922 62.4 448.922 85.2C448.922 108 445.055 125.733 437.322 138.4C429.722 151.067 417.589 157.4 400.922 157.4ZM400.922 142.8C406.389 142.8 411.055 141.667 414.922 139.4C418.789 137.133 421.922 133.933 424.322 129.8C426.722 125.667 428.455 120.8 429.522 115.2C430.722 109.6 431.322 103.4 431.322 96.6V73.8C431.322 67 430.722 60.8 429.522 55.2C428.455 49.6 426.722 44.7333 424.322 40.6C421.922 36.4667 418.789 33.2667 414.922 31C411.055 28.7333 406.389 27.6 400.922 27.6C395.455 27.6 390.789 28.7333 386.922 31C383.055 33.2667 379.922 36.4667 377.522 40.6C375.122 44.7333 373.322 49.6 372.122 55.2C371.055 60.8 370.522 67 370.522 73.8V96.6C370.522 103.4 371.055 109.6 372.122 115.2C373.322 120.8 375.122 125.667 377.522 129.8C379.922 133.933 383.055 137.133 386.922 139.4C390.789 141.667 395.455 142.8 400.922 142.8ZM500.844 157.4C484.177 157.4 471.977 151.067 464.244 138.4C456.644 125.733 452.844 108 452.844 85.2C452.844 62.4 456.644 44.6667 464.244 32C471.977 19.3333 484.177 13 500.844 13C517.51 13 529.644 19.3333 537.244 32C544.977 44.6667 548.844 62.4 548.844 85.2C548.844 108 544.977 125.733 537.244 138.4C529.644 151.067 517.51 157.4 500.844 157.4ZM500.844 142.8C506.31 142.8 510.977 141.667 514.844 139.4C518.71 137.133 521.844 133.933 524.244 129.8C526.644 125.667 528.377 120.8 529.444 115.2C530.644 109.6 531.244 103.4 531.244 96.6V73.8C531.244 67 530.644 60.8 529.444 55.2C528.377 49.6 526.644 44.7333 524.244 40.6C521.844 36.4667 518.71 33.2667 514.844 31C510.977 28.7333 506.31 27.6 500.844 27.6C495.377 27.6 490.71 28.7333 486.844 31C482.977 33.2667 479.844 36.4667 477.444 40.6C475.044 44.7333 473.244 49.6 472.044 55.2C470.977 60.8 470.444 67 470.444 73.8V96.6C470.444 103.4 470.977 109.6 472.044 115.2C473.244 120.8 475.044 125.667 477.444 129.8C479.844 133.933 482.977 137.133 486.844 139.4C490.71 141.667 495.377 142.8 500.844 142.8Z" fill="white" fill-opacity="0.05"/>
</svg>
