<svg width="166" height="87" viewBox="0 0 166 87" fill="none" xmlns="http://www.w3.org/2000/svg">
<g id="Layer_1" clip-path="url(#clip0_388_85264)">
<g id="Group">
<path id="Vector" d="M49.1099 18.6979L49.2246 19.2006C48.5807 20.947 47.584 22.5435 46.4727 24.0165L46.0846 24.0871C46.0757 24.2105 46.0581 24.3252 46.0228 24.4399C45.7141 25.4983 42.1684 28.4884 41.1011 29.3439C35.8619 33.5336 29.4319 36.8412 23.0107 38.6405L22.6667 38.5611C21.8552 39.2227 20.3999 39.5755 19.3767 39.355C19.0239 39.8136 18.433 39.9195 17.9302 39.6196C17.3745 40.0341 16.6248 40.2635 15.9545 39.8842C15.8398 40.2546 15.4605 40.4046 15.2929 40.0165C15.0548 40.4046 13.9875 40.5722 13.7759 40.1488C13.7494 40.2546 13.7053 40.3958 13.6259 40.4134C13.2996 40.4575 11.218 40.4751 10.9445 40.4134L10.7505 40.1488C10.6535 40.581 9.33043 40.4399 9.23341 40.0165L8.97762 40.2458C7.45171 39.9636 5.9258 39.5314 4.5322 38.8346L4.36461 38.4377C1.45392 36.6471 0.32492 32.1753 0.157335 28.9559C0.104413 28.5237 -0.0543519 26.6538 0.236718 26.6185C0.871778 27.0507 1.46274 27.5975 2.00077 28.2414C2.35359 28.2943 2.52117 28.4443 2.52117 28.6912L2.67994 28.7794C2.47707 29.6615 2.35359 30.5611 2.30948 31.4785C3.05921 32.0694 3.9236 32.484 4.91147 32.7221L5.02613 33.0308C5.93462 32.9779 6.87839 33.0661 7.85744 33.2954C8.86296 33.2954 9.80673 33.4189 10.6799 33.6835L11.3326 33.3925C14.014 33.1543 16.6513 32.6957 19.2621 32.0253L19.6325 32.1047L20.1088 31.699L23.2224 30.6141L23.8486 30.6582C24.2367 30.0848 25.1452 29.7232 25.8244 29.8643C26.3271 29.2205 27.3767 28.753 28.197 28.8147C28.4528 28.259 29.1761 27.8974 29.7759 28.0209C30.0405 27.4388 30.8608 27.0066 31.487 27.1036L31.5046 26.7949C32.1485 26.495 32.7483 26.1334 33.304 25.71L33.595 25.7894C33.9831 25.3043 34.4771 24.9162 35.068 24.6075C35.412 24.2546 35.756 24.0782 36.0912 24.0782L36.2588 23.6284L38.3756 22.0319L38.8519 21.9702C39.0019 21.8026 39.0724 21.6262 39.0724 21.4321C41.6832 19.0507 44.3293 16.2899 45.2378 12.7883L45.5642 12.4972C45.476 11.6593 45.4142 10.8037 45.3613 9.93049L45.0879 9.01318C44.6645 8.43987 44.6469 8.1929 45.0438 8.2811C45.3878 8.36048 45.67 8.8015 45.8993 9.06611C48.4043 12.0385 50.2742 14.6052 49.1187 18.6714L49.1099 18.6979Z" fill="#323232"/>
<path id="Vector_2" d="M40.8179 5.80283C40.9502 5.83811 41.0472 5.89985 41.1266 6.0057C41.3118 6.26148 41.1178 7.70801 41.0384 8.0961C40.8708 8.89875 40.4915 10.3453 39.7683 10.6716C39.7859 10.7687 39.8036 10.8745 39.8036 10.9715C39.7771 11.8183 37.3074 14.4732 36.5753 15.1964C32.5709 19.1391 27.1288 22.1204 21.9425 24.2196C20.8576 24.6606 15.9535 26.5217 15.1773 26.31C15.0803 26.2835 14.9921 26.2394 14.9039 26.1953C13.8366 26.8657 12.1696 27.1656 10.9524 26.8569L10.5467 27.1567C9.57643 27.2361 8.61501 27.1832 7.66242 26.9892L7.32725 27.2273C6.1718 27.1215 5.02516 26.9098 3.92262 26.5481L3.71094 26.1953C3.56981 26.1248 3.45515 26.1953 3.36694 26.3453C2.21149 25.8337 0.650296 24.9781 0.685577 23.5669C-0.302295 21.0531 1.3912 17.4897 2.39671 15.1435L2.63486 15.3817C2.52902 16.3078 2.52902 17.3309 3.11998 18.1071L3.05823 18.4335C3.16408 18.4864 3.2611 18.4423 3.3493 18.3541C3.96672 18.8745 4.71645 19.2008 5.47499 19.4566L5.55438 19.7565C6.13651 19.5448 7.12439 19.6683 7.55658 20.0564C8.35923 20.1358 9.14423 20.127 9.90278 20.0211C10.2468 19.7389 10.7054 19.5978 11.2699 19.6066C11.9844 19.3684 12.6282 19.3243 13.1927 19.4919L13.9425 19.0597C15.4507 18.7246 16.9149 18.2306 18.3614 17.6838L18.8465 17.7808L19.0494 17.428L21.0781 16.6253C21.1927 16.7488 21.325 16.7929 21.475 16.7312C22.0571 16.0167 23.3184 15.3199 24.2357 15.2846C24.5797 14.6319 25.6029 14.0939 26.3438 14.1027C26.5731 13.4941 27.2787 13.0266 27.9226 13.0531C28.099 12.4445 28.9899 11.7389 29.6338 11.7389L29.7925 11.2714C31.5213 9.8778 33.1972 8.30779 34.1056 6.23502L34.5114 5.95277L34.3438 5.6617C34.6349 4.9649 34.8906 4.21518 34.7054 3.45663L34.9083 3.1832L34.6084 3.10382C34.2556 2.23943 33.5059 1.55145 32.6238 1.24274L32.5356 0.942851C32.421 0.90757 32.421 0.863469 32.5356 0.810547C35.0053 1.41915 40.1387 3.02444 40.8267 5.81165L40.8179 5.80283Z" fill="#323232"/>
<path id="Vector_3" d="M48.3152 35.9326C48.5093 36.303 48.033 36.744 47.6537 36.5941C47.6273 36.7176 47.6008 36.8411 47.5567 36.9645C47.3274 37.5467 44.9371 39.7518 44.3373 39.9458C44.2138 39.9811 44.0903 40.0075 43.9668 40.0164C43.9139 40.1487 43.8522 40.281 43.7728 40.3956C43.6934 40.5103 43.6228 40.625 43.5258 40.7044C41.3472 42.4508 38.6129 44.0825 36.0991 45.2997C35.9845 45.3526 35.8522 45.3791 35.711 45.3967C35.5699 45.4144 35.4288 45.4144 35.2877 45.4144C34.9701 46.0053 34.2381 46.3317 33.5765 46.2082C33.4531 46.5434 33.1355 46.7815 32.6151 46.9315C32.6504 47.0991 35.2789 48.7837 35.7022 48.3427C36.0639 48.0516 36.4079 47.9546 36.7254 48.0516L36.84 47.7165C37.6427 47.4078 38.4365 47.0814 39.2303 46.7374L39.2833 46.4375C40.4564 45.9083 41.5413 45.1586 42.485 44.2942L42.7849 44.3648C43.5435 43.5357 44.3814 42.8741 45.2811 42.389L45.3604 41.948C45.6074 41.6128 47.7507 39.2314 47.936 39.1873C48.2888 39.0991 48.2623 39.3372 48.1741 39.6283C46.0396 44.744 38.8687 49.2953 33.7706 50.9447C29.1311 52.453 20.302 53.1057 16.3946 49.7628C16.2006 49.604 16.0683 49.2512 15.936 49.1718C15.6273 48.9866 14.0749 48.7661 13.5016 48.5809C10.6703 47.6283 8.05063 45.1851 6.19837 42.9182C5.93376 42.6184 6.17191 42.5125 6.54236 42.6889C7.60079 43.5886 8.9062 44.109 10.2292 44.4971L10.6703 44.8852L10.9437 44.6911C12.0021 44.9998 13.087 45.1762 14.216 45.2203C14.1895 45.0086 14.313 44.8675 14.4806 44.7529C14.5247 44.2501 14.8952 44.3383 15.2656 44.5412C15.8742 45.1498 16.4475 45.2644 17.2943 45.1674C18.0793 45.0175 18.8555 45.0086 19.614 45.1498C19.8522 44.7352 20.6019 44.6735 20.9282 45.0175L21.6251 44.6294C24.571 44.012 27.4464 43.1652 30.2601 42.098L30.6658 42.1244C31.0539 41.5776 31.8478 41.1718 32.5093 41.3306C32.4564 40.9249 33.1532 40.6514 33.4266 40.9337C33.4795 40.4927 33.8323 40.3163 34.2204 40.5368C34.3174 40.0693 34.8378 39.8135 35.27 40.0075C35.5964 39.3989 36.302 39.0285 36.9812 39.0902C37.1399 38.5434 37.8632 38.0494 38.4277 38.1729C38.4983 37.6614 39.2656 37.238 39.7419 37.3791C39.8654 36.8234 40.6151 36.2501 41.1884 36.3295C41.2678 35.7738 42.2116 35.077 42.7673 35.1476C42.926 34.4243 43.8963 33.7804 44.6107 33.5687L44.7783 33.0572C46.4983 31.5048 48.0859 29.7937 49.2678 27.7915L49.7353 27.518L49.7177 27.0329C50.732 25.3571 51.1995 23.593 51.3935 21.7055L51.711 21.5996C52.1344 22.8609 52.205 25.9568 52.108 27.3328C51.8875 30.5081 50.2733 33.5246 48.2888 35.9414L48.3152 35.9326Z" fill="#323232"/>
<path id="Vector_4" d="M28.3187 1.33037C28.8126 1.39212 29.0596 2.95331 28.5833 3.17381C28.7244 3.69421 28.6362 3.91472 28.3187 3.83534C28.5568 4.68208 27.4631 5.83754 26.8633 6.48142C24.3848 9.10987 20.6097 11.0856 17.2845 12.4263C16.7112 12.6556 13.9239 13.7141 13.5359 13.6347C13.4035 13.6082 13.2889 13.5465 13.1919 13.4406C11.7894 14.2521 9.89307 14.1463 8.30542 14.0139L8.05845 13.6964C7.85559 14.0492 7.13232 13.8552 7.14114 13.4318L6.89417 13.5994C6.5149 13.4142 5.28006 12.3734 5.69462 11.9853C4.86551 11.5266 5.66815 10.133 6.09153 9.48914C7.1676 8.19256 7.86441 7.19586 9.18745 6.07569C10.3341 5.09664 11.6218 4.28517 12.8743 3.43842L13.0684 3.50016C12.6097 3.95 12.1863 4.25871 11.7542 4.75265C11.9658 5.07018 11.4631 5.7758 11.0926 5.66995C11.1544 6.04923 10.978 6.39322 10.5634 6.71957L10.7927 6.9048C10.6869 7.79564 11.7453 7.88385 12.4245 7.90149L12.6715 8.1661C13.7211 7.81328 14.7707 7.46929 15.8291 7.11648L16.2172 7.24879L16.3848 6.9048C17.2051 6.58726 17.9989 6.22563 18.731 5.74052L19.1191 5.80226L19.172 5.44945L20.451 4.41747C21.1654 3.70303 21.6946 3.14735 21.6152 2.1242C21.5094 2.17712 21.3947 2.19476 21.2977 2.1242C20.3275 1.4715 19.6218 1.68319 18.5105 2.06246C16.4818 2.75926 14.6031 4.00292 12.8743 5.22894L12.548 5.14956C12.1863 5.37889 11.8776 5.14956 12.0188 4.75265C14.9912 2.82982 18.2194 1.04812 21.7299 0.316041C23.8732 -0.133794 26.6516 -0.345481 28.3363 1.33037H28.3187Z" fill="#323232"/>
<path id="Vector_5" d="M51.7363 21.591C51.4981 22.1907 51.5511 22.9405 51.4099 23.5755C51.1012 25.0044 50.475 26.2657 49.7605 27.5182C49.3989 27.2801 49.1167 26.9008 48.9138 26.3627C48.5169 25.9658 48.2699 25.5601 48.1817 25.1455L48.1641 24.6781C49.0373 23.258 49.5665 21.6351 49.8135 19.9945C49.9546 19.7034 50.0075 19.7034 50.2809 19.8887C50.7396 20.312 51.5246 21 51.7275 21.5998L51.7363 21.591Z" fill="#CFCFCF"/>
<path id="Vector_6" d="M42.9262 6.59568C42.9791 6.63096 43.0232 6.66624 43.0585 6.71917C43.1908 6.91321 43.4554 9.77099 43.3055 10.2208C43.2702 10.6707 43.1026 10.8647 42.8027 10.803C42.4852 11.0058 42.0971 11.0587 41.6208 10.9441C40.8799 11.0499 40.2625 10.9529 39.7773 10.6707C40.5182 9.29469 41.2151 7.37187 40.827 5.80186C41.6296 5.7754 42.2735 6.24287 42.935 6.59568H42.9262Z" fill="#CBCBCB"/>
<path id="Vector_7" d="M50.2903 19.8792C49.9816 19.9674 50.061 20.2408 50.0169 20.4614C49.6641 22.2254 49.1701 23.6278 48.1823 25.1449C47.8206 25.189 47.4237 25.0214 46.9827 24.651C46.5329 24.5451 46.233 24.3599 46.0742 24.0865C47.1944 22.6752 48.6056 20.4261 49.0996 18.6885C49.2583 19.1736 49.8493 19.4647 50.2815 19.8704L50.2903 19.8792Z" fill="#D9D9D9"/>
<path id="Vector_8" d="M45.0245 8.29805C44.7511 8.34215 45.1568 8.56266 45.2538 8.79199C45.8095 10.0709 45.7742 11.1823 45.5537 12.5053C45.0157 11.932 44.6099 11.685 43.8602 11.3763C43.331 11.2881 42.9694 11.0941 42.793 10.803C43.1899 10.2562 43.1105 9.18008 43.0576 8.50092C43.0135 7.90114 42.5813 7.14259 42.9253 6.58691C43.7897 7.04557 44.5306 7.38074 45.0333 8.29805H45.0245Z" fill="#C4C4C4"/>
<path id="Vector_9" d="M9.63944 42.6444C10.151 43.0766 10.742 44.2056 10.6891 44.8848C9.09258 44.4526 7.53139 43.9057 6.27891 42.7855C6.1907 42.8032 6.21717 42.9179 6.21717 42.9179C5.4498 42.5386 4.85002 40.6951 4.63833 39.8925C4.47957 39.3545 4.58541 39.1604 4.93822 39.328C6.27009 40.5187 7.69897 41.6389 9.20724 42.6797C9.33955 42.5209 9.46303 42.5298 9.63944 42.6532V42.6444Z" fill="#474747"/>
<path id="Vector_10" d="M9.24007 40.0163C9.69872 40.6249 9.84867 41.9127 9.63698 42.6448L9.24007 42.9888C8.13753 42.1685 6.97325 41.4011 5.89718 40.5367C5.57965 40.2809 5.35032 39.9369 5.02397 39.6988C4.63588 39.4077 4.6006 39.4077 4.63588 39.884C4.51239 39.4077 4.28306 38.9667 4.37127 38.4375C5.52672 39.1431 7.89056 39.8223 9.24007 40.0163Z" fill="#505050"/>
<path id="Vector_11" d="M3.71094 26.1949C3.51689 26.9446 3.22582 27.7296 2.85537 28.5499L2.52902 28.6998L1.87632 28.4969L0.156365 26.7241C0.182826 27.465 0.121084 28.2235 0.156365 28.9644C-0.30229 27.1563 0.30631 25.3305 0.685582 23.5664C1.22362 24.9247 2.39672 25.7097 3.71094 26.1949Z" fill="#414141"/>
<path id="Vector_12" d="M48.183 39.6195C48.2183 39.2049 48.1036 39.3461 47.9272 39.5578C47.0099 40.6162 46.3396 41.4188 45.2899 42.3802C44.7343 42.786 44.3373 42.8301 44.108 42.5125C43.7993 42.3009 44.0022 41.5423 44.3726 41.4629L44.5314 40.7132C46.1455 40.0076 47.3362 38.2876 47.6626 36.5941C47.8655 36.3648 48.183 36.109 48.3241 35.9326C49.1091 37.0087 48.6505 38.517 48.1918 39.6195H48.183Z" fill="#B5B5B5"/>
<path id="Vector_13" d="M32.5265 0.801179V0.933483C32.7117 1.68321 32.5794 2.43293 32.1295 3.17384L31.8473 3.47373L28.9278 4.18817C28.5838 4.24991 28.2574 4.25873 28.3104 3.83536C28.3633 3.68541 28.5573 3.26204 28.575 3.17384C28.7602 3.17384 28.8749 3.23558 28.8925 3.41198C29.7833 2.70636 30.2067 1.68321 30.2508 0.554211L30.5507 0.413086C31.3357 0.510109 31.7679 0.624773 32.5265 0.809999V0.801179Z" fill="#E6E6E6"/>
<path id="Vector_14" d="M30.5515 0.404243C30.428 0.93346 30.4545 1.49796 30.2516 2.01836C30.1017 2.40645 28.7433 4.6468 28.5758 3.17381C28.6728 2.52111 28.2935 1.43622 28.3111 1.33037C28.3111 1.31273 28.4699 1.23335 28.514 1.0834C28.5669 0.880538 28.5493 0.527727 28.6375 0.404243C28.7698 0.210196 29.9164 0.254298 30.234 0.271938C30.4104 0.280759 30.5162 0.404243 30.5515 0.413063V0.404243Z" fill="#F2F2F2"/>
<path id="Vector_15" d="M5.68612 11.9854C5.40387 12.1442 5.20982 12.3823 5.0246 12.6469C4.66297 13.0791 3.77212 12.6822 3.97498 12.1177C4.62769 11.1651 5.35095 10.3625 6.08303 9.48926C5.8096 10.1949 5.45679 11.2269 5.68612 11.9854Z" fill="#B7B7B7"/>
<path id="Vector_16" d="M5.02418 12.6474C4.70665 13.0972 4.40676 13.6264 4.10687 14.0939C3.79816 14.4644 2.88085 13.891 3.18956 13.4324C3.47181 12.9385 3.64821 12.5945 3.98338 12.1182C4.18625 12.4622 4.65372 12.6297 5.033 12.6474H5.02418Z" fill="#C9C9C9"/>
<path id="Vector_17" d="M4.10729 14.0932C3.66628 14.7811 3.63099 15.8308 2.66076 14.7547C2.66076 14.737 2.51082 14.5959 2.58138 14.3578C2.69604 13.9873 3.02239 13.7227 3.18116 13.4316C3.34875 13.8021 3.7633 13.9168 4.09847 14.0932H4.10729Z" fill="#E3E3E3"/>
<path id="Vector_18" d="M12.0014 4.75293C12.1161 4.80585 12.3366 5.09692 12.5306 5.14984C12.6806 5.52912 11.7985 6.18182 11.481 5.94367C11.2517 6.2612 10.9606 6.03187 11.0841 5.67906C11.2958 5.32625 11.4634 5.07928 11.7456 4.76175C11.7544 4.92934 11.9926 4.76175 12.0102 4.76175L12.0014 4.75293Z" fill="#484848"/>
<path id="Vector_19" d="M10.9536 32.9074C10.8477 33.1544 10.7683 33.4367 10.689 33.7013C8.82788 33.7454 6.82567 33.5337 5.03516 33.0397C5.37033 31.5403 6.07595 30.1908 6.74629 28.8325L6.99326 28.709L10.9624 32.5546V32.9074H10.9536Z" fill="#727272"/>
<path id="Vector_20" d="M33.4533 20.4084C34.3177 19.9763 35.1557 19.4206 36.1259 19.2354C36.7874 20.4702 37.4842 21.3963 38.9748 21.5992L38.8425 21.9961C37.8988 22.7987 37.0697 23.3809 36.0818 24.1042H35.7907C35.1027 23.6102 33.03 21.4669 33.2417 20.6907C33.2769 20.576 33.3475 20.4878 33.4445 20.4173L33.4533 20.4084Z" fill="#F1F1F1"/>
<path id="Vector_21" d="M33.453 20.4082C33.6294 21.255 34.1763 22.2252 34.7673 22.8426C35.1906 23.2924 35.8698 23.5306 36.0903 24.0863C36.0374 24.1304 35.9668 24.3068 35.8257 24.4038C35.1377 24.8977 34.3527 25.4181 33.5942 25.7974C32.474 24.739 31.5126 23.5218 30.7188 22.1546L30.8334 21.8547C31.7066 21.3167 32.5534 20.8669 33.4619 20.4082H33.453Z" fill="#E5E5E5"/>
<path id="Vector_22" d="M30.8152 21.8555L32.5881 24.4927C32.9762 24.8367 33.2761 25.3571 33.8406 25.41C33.8582 25.4365 33.6377 25.7364 33.576 25.807C33.1261 26.3097 32.0853 26.7595 31.4679 27.1212C31.2474 27.0594 31.0975 26.8654 31.0004 26.5302C30.1537 25.6306 29.3863 24.6074 28.9453 23.4167L29.1041 23.0462C29.6862 22.6493 30.2066 22.2347 30.8152 21.8643V21.8555Z" fill="#DADADA"/>
<path id="Vector_23" d="M15.9535 39.8838L16.4827 40.0779C17.7087 41.4803 19.0935 42.6622 20.5488 43.7383C20.6811 43.6854 20.8135 43.6765 20.9458 43.6942C20.9017 44.1176 20.9722 44.585 20.9458 45.0084C20.5136 45.079 20.0637 45.0878 19.6315 45.1407C19.4463 45.1407 19.0141 45.1584 18.873 45.079C18.2026 44.6732 15.2831 42.036 15.0626 41.3656L15.0273 40.8011C15.0979 40.5277 15.1596 40.2631 15.292 40.0073C15.5301 39.9897 15.7418 39.9015 15.9535 39.875V39.8838Z" fill="#484848"/>
<path id="Vector_24" d="M29.1053 23.037C29.361 23.9014 29.8462 24.6688 30.3666 25.392C30.7635 25.9477 31.4956 26.3799 31.4779 27.112C30.9046 27.4472 30.3489 27.7294 29.7668 28.0293L29.4757 27.9676C29.3081 27.8088 28.3467 26.574 28.1791 26.327C27.8263 25.8066 27.253 24.9069 27.2618 24.3424C27.8792 23.8661 28.4614 23.4692 29.1053 23.0282V23.037Z" fill="#D0D0D0"/>
<path id="Vector_25" d="M25.8155 25.542L26.2212 25.736C26.7592 26.6798 27.3414 27.6059 28.0999 28.3909L28.1793 28.832C27.3855 29.2112 26.6269 29.5376 25.8066 29.8816C25.5861 29.9874 25.4715 29.8728 25.4538 29.5376L23.875 27.5618L23.9632 27.2531C24.6159 26.6181 25.101 26.1418 25.8066 25.542H25.8155Z" fill="#BDBDBD"/>
<path id="Vector_26" d="M29.7659 28.0384C29.2279 28.3207 28.734 28.5676 28.1871 28.8322C27.1904 27.9149 26.476 26.7242 25.8145 25.5423C26.2996 25.1277 26.7582 24.7484 27.261 24.3604C27.7637 24.8807 27.9666 25.5864 28.39 26.195C28.8133 26.8036 29.5984 27.3328 29.7571 28.0472L29.7659 28.0384Z" fill="#C8C8C8"/>
<path id="Vector_27" d="M17.92 39.6191C18.5463 40.7658 19.9928 41.9212 21.113 42.4593L21.0777 42.7768C21.0336 43.0061 20.9719 43.4736 20.9454 43.6941C20.7778 43.7735 20.9278 44.1528 20.6279 44.0822C20.3809 44.0205 18.3963 42.3623 18.0524 42.0535C17.3114 41.392 16.6235 40.6158 15.9531 39.8838C16.6235 39.8044 17.2673 39.7338 17.9289 39.6191H17.92Z" fill="#525252"/>
<path id="Vector_28" d="M25.8149 29.8814C25.1446 30.1636 24.5272 30.4106 23.8392 30.6752H23.4952C23.2835 30.5694 22.031 29.2287 22.2603 28.9641C22.8689 28.3114 23.3452 27.8527 23.9715 27.2529L25.6914 29.4227L25.8061 29.8814H25.8149Z" fill="#B2B2B2"/>
<path id="Vector_29" d="M19.3663 39.3545C20.0984 39.5838 20.7335 40.0689 21.2627 40.7922H21.6067C21.6067 41.4537 21.1833 42.1946 21.0775 42.7768C21.1392 42.3446 20.8658 42.7062 20.5041 42.5033C20.0455 42.2475 18.0962 40.5188 17.7787 40.0866C17.5317 39.7514 17.6552 39.7955 17.911 39.6191C18.3873 39.5397 18.8812 39.4603 19.3575 39.3545H19.3663Z" fill="#5B5B5B"/>
<path id="Vector_30" d="M23.8479 30.6672C22.4102 31.2052 21.1313 31.6903 19.6406 32.1137C20.2933 30.8965 21.3429 29.9527 22.2691 28.9561L23.8479 30.6672Z" fill="#A1A1A1"/>
<path id="Vector_31" d="M22.6572 38.5605C22.2338 39.2573 22.0838 40.1306 21.6075 40.8009C21.5458 40.8891 21.2812 41.2419 21.2106 41.1978C20.8225 40.501 19.9405 39.9542 19.3672 39.3544C20.4433 39.125 21.6075 38.8693 22.6572 38.5605Z" fill="#686868"/>
<path id="Vector_32" d="M34.5029 5.93457C33.5151 8.46599 31.6805 10.0625 29.6341 11.7207C28.9285 12.1264 28.3199 10.7593 28.2317 10.1771C28.1171 9.40976 28.3817 8.36015 28.8491 7.77801C30.6661 6.98418 32.5537 6.31384 34.5029 5.93457Z" fill="#F9F9F9"/>
<path id="Vector_33" d="M22.3914 11.4561L22.7354 11.5354C23.1764 12.8408 23.6615 13.9698 24.5612 15.0195L24.2348 15.2752C23.3087 15.7868 22.4707 16.2631 21.474 16.7218C21.033 16.8452 21.0066 16.7747 21.1301 16.316C20.5567 15.4693 20.0804 14.5696 19.7012 13.6258L19.8952 13.3083C20.7508 12.6468 21.5005 12.0735 22.3914 11.4649V11.4561Z" fill="#CECECE"/>
<path id="Vector_34" d="M24.6329 10.0101C24.8093 10.0013 24.9681 10.0101 25.0034 10.1777C25.2768 11.5184 25.7531 12.6121 26.494 13.7676L26.3441 14.0939C25.6384 14.5349 24.9505 14.8877 24.236 15.2758C24.4477 15.0289 24.236 14.9759 24.1037 14.8172C23.7597 14.385 23.4422 13.9881 23.1952 13.4853C22.8777 12.8326 22.7719 12.0652 22.3926 11.4655C23.1423 10.9539 23.8391 10.4864 24.6329 10.0189V10.0101Z" fill="#DCDCDC"/>
<path id="Vector_35" d="M19.8976 13.2989C20.1446 14.4631 21.009 15.4157 21.4676 16.4036C21.5823 16.6417 20.8326 16.6682 21.4676 16.7211C20.515 17.1621 19.7918 17.4091 18.8392 17.7707L18.5481 17.7884L17.375 15.5569L17.5161 15.2658C18.3629 14.5249 18.9891 13.9868 19.8888 13.29L19.8976 13.2989Z" fill="#C2C2C2"/>
<path id="Vector_36" d="M8.31388 18.5654C8.19921 18.7065 7.29073 19.9237 7.39657 20.0119C8.22568 19.9855 9.0636 20.056 9.89271 20.0119C9.75159 20.2324 9.38995 20.1442 9.16945 20.1442C7.93461 20.1619 6.74387 20.0825 5.55313 19.7473C5.3679 19.0064 4.87397 18.3272 4.0625 17.7098L4.1066 17.3747C4.59172 16.7043 5.02391 15.9458 5.55313 15.2666L5.92358 15.3636C6.52336 16.4662 7.29072 17.4099 8.22568 18.1861L8.31388 18.5566V18.5654Z" fill="#828282"/>
<path id="Vector_37" d="M17.5329 15.2754L18.8472 17.7716C16.7832 18.5477 15.3808 19.0329 13.1934 19.4827C14.4106 18.0979 15.6983 16.7661 17.0743 15.5312C17.2154 15.3989 17.4359 15.3548 17.5329 15.2666V15.2754Z" fill="#B8B8B8"/>
<path id="Vector_38" d="M27.9228 13.0348C27.3936 13.4052 26.8908 13.7404 26.3439 14.0844C26.0793 13.3259 25.5148 12.7349 25.2238 11.9764C24.9768 11.3148 24.968 10.6092 24.6328 10.0006C25.2679 9.62135 25.8147 9.29499 26.4763 8.951C26.979 8.88926 27.1554 9.33028 27.0055 10.2564C27.1819 11.1208 27.5435 11.9411 28.0727 12.7173L27.9228 13.026V13.0348Z" fill="#E5E5E5"/>
<path id="Vector_39" d="M29.6323 11.72C29.059 12.1875 28.5386 12.602 27.9211 13.0342C27.5507 12.1698 26.8892 11.4378 26.748 10.4587C26.6775 9.98242 26.9509 9.23269 26.4746 8.95926C27.2508 8.55353 28.0358 8.13016 28.8473 7.77734C28.9266 8.55353 28.371 9.06511 28.4592 9.93831C28.5297 10.591 28.9443 11.526 29.6323 11.7288V11.72Z" fill="#EDEDED"/>
<path id="Vector_40" d="M10.953 26.8564C11.3058 26.9182 11.5704 27.1652 11.7468 27.615L12.9729 28.7793L12.9288 29.0968C12.8406 29.6878 12.2408 30.2434 12.0115 30.6756C11.8174 30.658 11.6145 30.6403 11.4558 30.5257C10.3709 29.7407 9.47121 28.5147 8.72149 27.4298C8.19227 27.4562 7.83946 27.3504 7.67188 27.1211V26.9887C8.73031 27.0505 9.90341 26.9535 10.9618 26.8564H10.953Z" fill="#8D8D8D"/>
<path id="Vector_41" d="M14.8948 26.1944L12.9191 29.0874L11.5343 27.7732L10.9434 26.8471C12.2576 26.7236 13.5983 26.4854 14.8948 26.1855V26.1944Z" fill="#979797"/>
<path id="Vector_42" d="M34.9 3.17294C34.0003 3.22586 33.0213 3.09356 32.1392 3.17294C31.6806 3.20822 31.9628 3.09356 32.0334 2.87305C32.2539 2.22917 32.3862 1.60293 32.5362 0.941406C33.5417 1.17955 34.6266 2.18507 34.9088 3.18176L34.9 3.17294Z" fill="#DBDBDB"/>
<path id="Vector_43" d="M4.10821 17.3838C4.54922 17.8424 5.48417 18.6892 5.74878 19.2272C5.90755 19.5448 5.81934 19.5977 5.55473 19.7476C4.80501 19.5359 3.58781 18.9979 3.05859 18.4334C3.19972 18.4334 3.28792 18.3981 3.37612 18.3011C3.49961 18.1776 3.9759 17.5602 4.10821 17.3838Z" fill="#777777"/>
<path id="Vector_44" d="M19.6315 45.1404C18.7053 45.2462 16.8178 45.6255 15.9534 45.3344C15.5212 45.1933 15.0449 44.3554 14.498 44.7523C14.5245 43.3146 14.648 42.1944 15.0273 40.8008C15.4418 41.7093 16.3768 42.5384 17.1265 43.2352C17.691 43.7644 18.4319 44.3818 19.0317 44.8846C19.2257 45.0433 19.3316 45.1933 19.6315 45.1404Z" fill="#3B3B3B"/>
<path id="Vector_45" d="M47.6615 36.5947C47.9261 36.7976 47.7762 37.2298 47.7056 37.4944C47.3528 38.7028 46.1179 40.114 45.0771 40.7932C44.6891 41.049 44.5215 40.7403 44.3715 41.4723C44.4068 41.0666 44.4862 39.9553 43.9746 40.0258C45.28 38.9762 46.5413 37.8472 47.6615 36.6035V36.5947Z" fill="#C4C4C4"/>
<path id="Vector_46" d="M37.1295 35.7998L37.4118 35.9498C37.5265 36.6819 37.9322 37.3522 38.479 37.8461L38.4526 38.1637C37.9851 38.4547 37.5088 38.7899 37.0061 39.081C36.0535 39.3456 35.5154 37.7227 35.2949 36.9729C35.9829 36.4614 36.4151 36.2144 37.1384 35.791L37.1295 35.7998Z" fill="#D1D1D1"/>
<path id="Vector_47" d="M36.7348 48.034C36.3026 48.228 35.7911 48.722 35.2266 48.6867C34.8385 48.6602 32.3864 47.2313 32.2629 46.9138C32.1659 46.6845 32.4041 46.7109 32.5187 46.6492C32.8539 46.4728 33.2332 46.3493 33.5772 46.1906L33.9212 46.1553C34.2034 46.2699 36.6202 47.5401 36.6996 47.6812C36.7613 47.787 36.7525 47.9193 36.726 48.034H36.7348Z" fill="#424242"/>
<path id="Vector_48" d="M39.7671 37.3785C39.3261 37.6696 38.8939 37.8989 38.4529 38.1723C37.7737 37.6431 37.1916 36.6905 37.1387 35.7997C37.6767 35.4822 37.9678 35.2969 38.5852 35.0059L38.8851 35.1734C39.0968 35.8526 39.4319 36.47 39.873 37.0433L39.7671 37.3697V37.3785Z" fill="#E3E3E3"/>
<path id="Vector_49" d="M39.2397 46.7198C38.5694 47.3372 37.5639 47.6547 36.7436 48.034C35.8263 47.2666 34.468 47.0814 33.5859 46.1906C34.1593 45.9259 34.7326 45.679 35.2971 45.3967C35.6587 47.249 37.7932 47.2049 39.2486 46.7109L39.2397 46.7198Z" fill="#575757"/>
<path id="Vector_50" d="M35.2883 36.9814C35.6323 36.9109 35.5529 37.149 35.6411 37.3431C35.9234 37.9428 36.3203 38.8866 36.9906 39.0895C36.4261 39.4158 35.8616 39.7069 35.2795 40.0068C35.1913 40.0509 35.0502 40.1126 34.9973 40.0597C34.8738 39.9362 33.8859 38.4632 33.8418 38.3309L33.9565 38.031C34.3975 37.6341 34.8032 37.3342 35.2707 36.9814H35.2883Z" fill="#BCBCBC"/>
<path id="Vector_51" d="M41.2144 36.3293C40.7204 36.6821 40.2794 37.0349 39.7679 37.3789C39.2827 36.585 38.7447 35.9853 38.5859 35.0062C39.0446 34.7945 39.4856 34.5211 39.9707 34.3535C40.3235 34.6799 40.0589 35.1385 40.3147 35.5884C40.4823 35.8794 40.9674 36.0911 41.2232 36.3293H41.2144Z" fill="#F2F2F2"/>
<path id="Vector_52" d="M35.2872 40.0158C34.9256 40.201 34.5992 40.3686 34.2376 40.545C34.1406 40.5891 34.0083 40.642 33.9553 40.5803C33.6731 40.2716 32.9498 39.169 33.188 38.8339C33.4702 38.5428 33.6643 38.3223 33.9818 38.04L35.296 40.0158H35.2872Z" fill="#AAAAAA"/>
<path id="Vector_53" d="M44.6371 33.5691C43.9844 34.16 43.4728 34.601 42.7937 35.1479C42.1233 33.8954 41.6735 33.7102 43.3846 33.5691C43.7992 33.5338 44.2226 33.5867 44.6371 33.5691Z" fill="#EFEFEF"/>
<path id="Vector_54" d="M34.2391 40.5363C33.9745 40.6686 33.7276 40.8009 33.4453 40.9332C33.0131 41.0479 32.3075 39.8924 32.528 39.4867C32.7662 39.2133 32.9602 39.0633 33.1895 38.8252L34.2391 40.5363Z" fill="#999999"/>
<path id="Vector_55" d="M33.4533 40.9338C33.1182 41.0926 32.8359 41.1896 32.536 41.3307C32.0774 41.4542 31.5481 40.828 31.8745 40.4134C32.0685 40.1576 32.2626 39.796 32.536 39.4961L33.4533 40.9426V40.9338Z" fill="#888888"/>
<path id="Vector_56" d="M32.527 41.3304C31.9096 41.6126 31.3275 41.8596 30.6836 42.1242C30.7983 41.3921 31.4862 40.8982 31.8655 40.4131C31.9184 40.7924 32.3065 41.0305 32.527 41.3304Z" fill="#727272"/>
<path id="Vector_57" d="M45.2891 42.3799C44.5217 43.0855 43.7279 43.9058 42.793 44.3556C43.1722 43.9587 43.9043 42.9973 44.1072 42.5122L45.2891 42.3799Z" fill="#A7A7A7"/>
<path id="Vector_58" d="M8.05864 13.6962C8.65842 14.5959 9.33758 15.3986 10.1138 16.1218L10.1667 16.457C9.55809 17.1185 8.88775 17.8594 8.32325 18.565C7.11487 17.833 6.31222 16.457 5.5625 15.2751C6.06526 14.64 6.61211 14.0491 7.14133 13.4316C7.18543 13.4493 7.9528 13.6698 8.05864 13.6962Z" fill="#949494"/>
<path id="Vector_59" d="M13.1836 13.4316C12.1693 14.4283 11.1197 15.4074 10.1583 16.457C9.20567 15.9366 8.54415 14.7459 7.93555 13.8374L8.05021 13.6962C9.53202 14.0226 11.6753 13.7404 13.1836 13.4316Z" fill="#A1A1A1"/>
<path id="Vector_60" d="M19.1104 5.80211C18.6606 5.89914 17.8315 4.6202 18.0608 4.22328C19.2339 3.50002 20.4776 2.90024 21.6154 2.11523C21.6683 2.19462 21.7918 2.23872 21.8271 2.37102C22.1799 3.55294 19.9925 5.21998 19.1193 5.80211H19.1104Z" fill="#D3D3D3"/>
<path id="Vector_61" d="M18.0515 4.22363L19.1011 5.80246C18.0691 6.49045 17.3282 6.8168 16.208 7.24899C15.67 7.39012 15.0791 6.28758 15.5465 5.93477C16.3845 5.33499 17.1695 4.76167 18.0427 4.22363H18.0515Z" fill="#C0C0C0"/>
<path id="Vector_62" d="M16.2089 7.24882C15.0093 7.7163 13.995 8.13085 12.6543 8.16613C13.4922 7.26647 14.5683 6.6314 15.5473 5.92578C15.5562 6.42854 15.8737 6.88719 16.2089 7.24V7.24882Z" fill="#B3B3B3"/>
<path id="Vector_63" d="M11.474 5.9345C11.2093 6.15501 11.0065 6.71068 10.5566 6.72833C10.6889 6.17265 10.8124 6.11973 11.0859 5.67871L11.4828 5.94332L11.474 5.9345Z" fill="#5C5C5C"/>
<path id="Vector_64" d="M12.003 30.6671C11.6678 31.2846 11.2356 32.246 10.9534 32.9075L6.74609 28.8325C7.02834 28.2592 7.20475 27.6065 7.6634 27.1214C7.99857 27.1655 8.57189 27.0155 8.85414 27.1831C8.93352 27.236 9.73617 28.4444 9.9655 28.7002C10.6006 29.397 11.315 30.0409 12.003 30.676V30.6671Z" fill="#828282"/>
</g>
<g id="Group_2">
<path id="Vector_65" d="M61.4499 77.6172L62.9052 84.5852L65.3308 77.6084L66.6009 77.6966L68.8236 84.5852L70.2701 77.6172H72.1136L69.8909 87.4077L68.0915 87.4959L65.86 80.7749L63.8931 87.3548H61.9085L59.6152 77.6172H61.4499Z" fill="white" fill-opacity="0.5"/>
<path id="Vector_66" d="M137.208 74.2305C142.906 73.4544 143.727 80.0784 142.571 84.1975C141.301 88.7311 135.339 88.9957 133.857 84.6208C132.807 81.5249 132.966 74.8039 137.208 74.2305ZM137.729 75.6771C136.715 75.8446 136.132 76.6738 135.824 77.5911C135.339 79.0464 135.365 82.8656 135.859 84.3209C136.3 85.6175 137.05 86.3143 138.487 86.1732C140.137 86.0056 140.692 83.9593 140.798 82.5569C140.957 80.44 141.089 75.1302 137.729 75.6771Z" fill="white" fill-opacity="0.5"/>
<path id="Vector_67" d="M23.4266 73.2686V87.478H21.5832V86.1638L20.6571 87.1429C13.6538 90.8562 13.7243 74.5651 20.6306 77.8463L21.592 78.7989V73.2686H23.4355H23.4266ZM18.3462 79.3722C17.4024 80.3248 17.4553 83.9499 17.9757 85.1142C18.3462 85.9521 18.99 86.3226 19.9162 86.1374C22.1653 85.6787 22.377 78.4196 19.1664 78.94C18.9459 78.9753 18.5049 79.2134 18.3462 79.3722Z" fill="white" fill-opacity="0.5"/>
<path id="Vector_68" d="M31.8509 73.2686L33.7913 73.4626L33.7649 87.3546L31.8509 87.4869L31.7891 86.1726C30.1662 88.6159 26.9909 88.069 26.1 85.2818C25.0063 81.8683 26.2147 75.5971 31.057 77.9609L31.8509 78.8077V73.2774V73.2686ZM29.3195 78.9576C27.5642 79.3104 27.7142 83.6589 28.164 84.9202C28.7814 86.6401 30.6601 86.5872 31.3922 84.9731C32.186 83.2267 32.186 78.3755 29.3195 78.9488V78.9576Z" fill="white" fill-opacity="0.5"/>
<path id="Vector_69" d="M162.637 74.3272V82.4154L162.831 82.6094H165.001V84.056H162.831L162.637 84.25V87.4694H160.662V84.25L160.468 84.056H155.008V82.9446L160.468 74.3184H162.637V74.3272ZM157.107 82.6182H160.459L160.653 82.4242V76.6998L157.098 82.6182H157.107Z" fill="white" fill-opacity="0.5"/>
<path id="Vector_70" d="M125.266 86.0315H131.052V87.478H122.629L122.699 85.8992C124.12 84.5761 125.628 83.2707 126.836 81.7448C127.877 80.4306 129.288 78.4813 128.715 76.7173C128.142 74.9532 124.755 75.3942 125.002 77.467H122.832L122.691 77.1935C122.964 73.2421 130.17 73.1891 130.867 76.6643C131.696 80.7746 127.851 83.5706 125.266 86.0138V86.0315Z" fill="white" fill-opacity="0.5"/>
<path id="Vector_71" d="M146.981 86.0319H152.767V87.4784H144.344L144.414 85.8996C146.417 84.0297 150.906 80.14 150.518 77.1587C150.262 75.2271 147.396 75.2006 146.813 76.5854C146.681 76.8941 146.787 77.2645 146.514 77.4762H144.344C144.423 73.2601 151.806 73.0396 152.573 76.8147C153.376 80.7662 149.424 83.6593 146.972 86.0319H146.981Z" fill="white" fill-opacity="0.5"/>
<path id="Vector_72" d="M39.1801 77.5109C41.7733 77.0699 43.899 78.0048 44.5252 80.6597C45.2926 83.9144 44.1901 87.8747 40.2121 87.7424C34.5671 87.5572 34.9199 78.2253 39.1889 77.5109H39.1801ZM39.8416 78.9574C37.7777 79.3367 37.8571 83.544 38.4921 84.9817C39.2507 86.684 41.6322 86.6222 42.3025 84.8494C43.0522 82.8824 42.964 78.3841 39.8328 78.9662L39.8416 78.9574Z" fill="white" fill-opacity="0.5"/>
<path id="Vector_73" d="M98.029 87.487H96.1856V80.8453C96.1856 80.5807 95.8327 79.6369 95.577 79.4782C94.9419 79.0813 93.954 79.4252 93.4689 79.9104C92.9838 80.3955 92.2341 82.1419 92.2341 82.8211V87.4958H90.3906V77.6259H92.2341V79.6017L93.5571 77.9611C94.9242 77.0702 96.9617 77.1761 97.6938 78.8078C97.7467 78.9313 98.0202 79.7428 98.0202 79.7957V87.4958L98.029 87.487Z" fill="white" fill-opacity="0.5"/>
<path id="Vector_74" d="M87.3737 87.487H85.5302V80.9776C85.5302 80.9071 85.345 80.1573 85.3009 80.025C84.904 78.9225 83.431 79.2488 82.7695 79.928C82.302 80.4043 81.5876 82.186 81.5876 82.8211V87.4958H79.7441V77.6259H81.5876V79.6017L82.9106 77.9611C84.2778 77.0702 86.3153 77.1761 87.0473 78.8078C87.1003 78.9313 87.3737 79.7428 87.3737 79.7957V87.4958V87.487Z" fill="white" fill-opacity="0.5"/>
<path id="Vector_75" d="M13.9549 81.8237H8.30108C8.14231 85.0343 10.5767 87.01 13.6991 85.8987L13.6815 87.3275C10.8678 88.236 7.53371 87.6274 6.66051 84.4521C6.05191 82.2559 6.17539 78.6043 8.70681 77.6782C11.8116 76.5403 14.2371 78.6043 13.9637 81.8237H13.9549ZM11.988 80.6418C12.0762 78.3661 8.8744 78.3573 8.354 80.3683L8.50395 80.6418H11.988Z" fill="white" fill-opacity="0.5"/>
<path id="Vector_76" d="M107.899 81.8243H102.245C102.192 84.9996 104.503 87.0283 107.643 85.8993L107.626 87.3282C104.142 88.4396 100.719 87.1783 100.402 83.2091C100.243 81.251 100.446 78.7284 102.483 77.7758C105.535 76.3558 108.305 78.5608 107.908 81.8155L107.899 81.8243ZM102.378 80.6424H105.862L106.038 80.3425C105.606 78.2609 102.413 78.5167 102.378 80.6424Z" fill="white" fill-opacity="0.5"/>
<path id="Vector_77" d="M49.7474 74.1943V77.6166H52.3759V79.0631H49.7474V85.1844C49.7474 85.449 50.2325 86.0312 50.5324 86.1105L52.2524 86.04V87.6188C51.1058 87.7423 49.1388 87.8922 48.3009 86.8955C48.151 86.7103 47.7717 85.8989 47.7717 85.7136V79.072L46.0605 78.9926V77.6166H47.7717V75.4468L49.7474 74.1943Z" fill="white" fill-opacity="0.5"/>
<path id="Vector_78" d="M115.14 79.4601C110.826 79.5747 112.467 84.5494 112.052 87.3631H110.191V77.7401L111.982 77.6784L112.238 79.3278C112.37 78.7104 112.961 78.0488 113.508 77.7754C113.887 77.5814 114.831 77.2285 115.131 77.5549V79.4601H115.14Z" fill="white" fill-opacity="0.5"/>
<path id="Vector_79" d="M5.14224 77.3526V79.4606C4.09262 79.4165 3.06947 79.9722 2.56671 80.8983C2.41677 81.1806 2.11688 82.142 2.11688 82.4154V87.4783H0.273438V77.6084H2.11688V79.4518C2.38149 79.2842 2.42559 78.8785 2.64609 78.5962C3.2988 77.7671 4.11908 77.4584 5.14224 77.3438V77.3526Z" fill="white" fill-opacity="0.5"/>
<path id="Vector_80" d="M76.4528 77.6162H74.6094V87.4861H76.4528V77.6162Z" fill="white" fill-opacity="0.5"/>
<path id="Vector_81" d="M76.7184 73.2686H74.3457V75.3766H76.7184V73.2686Z" fill="white" fill-opacity="0.5"/>
</g>
</g>
<defs>
<clipPath id="clip0_388_85264">
<rect width="166" height="87" fill="white"/>
</clipPath>
</defs>
</svg>
