<svg width="166" height="64" viewBox="0 0 166 64" fill="none" xmlns="http://www.w3.org/2000/svg">
<g id="Layer_1">
<path id="Vector" d="M26.5703 33.0079V7.49707H37.071C41.8345 7.49707 46.7461 10.4398 48.0798 15.0762C50.4933 23.4599 46.9155 33.0079 37.071 33.0079H26.5703ZM32.6887 27.694H37.3462C37.7062 27.694 39.5692 26.8472 39.9503 26.5931C42.9353 24.5819 43.2317 18.2095 41.411 15.3938C40.8394 14.5046 38.5953 12.8321 37.6003 12.8321H32.6887V27.7152V27.694Z" fill="white" fill-opacity="0.5"/>
<path id="Vector_2" d="M0 33.0086L9.0611 7.5189L15.2853 7.47656L24.7063 33.0086H18.3339L16.8308 29.0496H7.72734L6.24539 33.0086H0ZM15.4123 24.2438L12.3637 14.3994L9.31515 24.2438H15.4335H15.4123Z" fill="white" fill-opacity="0.5"/>
<path id="Vector_3" d="M116.398 33.0086L125.819 7.47656L132.043 7.5189L141.104 33.0086H134.859L133.419 29.1766L124.252 29.0496L122.749 33.0086H116.377H116.398ZM131.81 24.2438L128.762 14.3994L125.713 24.2438H131.832H131.81Z" fill="white" fill-opacity="0.5"/>
<path id="Vector_4" d="M99.3942 7.49707C99.9235 12.8956 98.5686 19.9243 99.733 25.1112C100.643 29.1548 106.105 29.8323 107.863 26.4449C108.201 25.8098 108.709 23.9468 108.709 23.3117V7.49707H114.553V25.704C114.553 26.4449 113.621 28.6467 113.176 29.3665C109.535 35.3155 97.2348 34.9979 94.3979 28.308C94.2497 27.9481 93.5723 25.8733 93.5723 25.6828V7.49707H99.4154H99.3942Z" fill="white" fill-opacity="0.5"/>
<path id="Vector_5" d="M73.3337 13.5941L68.9514 15.7535L68.4221 15.4783C66.8343 11.6252 61.3087 11.0113 58.8741 14.4198C57.1592 16.8332 56.9899 21.2156 57.7944 23.9678C59.361 29.3663 66.3262 29.7898 68.8243 24.8781L73.6089 26.8894C71.1955 33.1347 63.3623 35.146 57.5615 32.4361C49.7706 28.7947 49.0085 15.5418 54.9998 10.0162C60.356 5.06226 71.0261 6.01495 73.3126 13.5941H73.3337Z" fill="white" fill-opacity="0.5"/>
<path id="Vector_6" d="M82.9273 7.22297C82.5885 7.60404 80.1327 4.70365 79.7305 4.42842V0.321289L82.9273 3.36988V7.22297Z" fill="white" fill-opacity="0.5"/>
<path id="Vector_7" d="M79.7305 16.0078V12.1547L82.9273 9.08496V13.2133L79.7305 16.0078Z" fill="white" fill-opacity="0.5"/>
<path id="Vector_8" d="M82.3937 8.55566L79.5992 11.4772H75.2168L77.9902 8.55566H82.3937Z" fill="white" fill-opacity="0.5"/>
<path id="Vector_9" d="M82.1185 7.75165H77.9902L75.2168 4.83008H79.3239L82.1185 7.75165Z" fill="white" fill-opacity="0.5"/>
<path id="Vector_10" d="M86.3786 16.0078L83.457 13.2133V9.08496L86.3786 11.8795V16.0078Z" fill="white" fill-opacity="0.5"/>
<path id="Vector_11" d="M90.884 4.83008C91.265 5.16881 88.6187 7.37057 88.3646 7.75165H84.2363L87.0309 4.83008H90.884Z" fill="white" fill-opacity="0.5"/>
<path id="Vector_12" d="M90.884 11.4772H86.6286C86.2899 10.2282 84.8503 9.65655 84.2363 8.55566H88.0894L90.884 11.4772Z" fill="white" fill-opacity="0.5"/>
<path id="Vector_13" d="M83.457 7.22217V3.36908L86.3786 0.595703V4.44879L83.457 7.22217Z" fill="white" fill-opacity="0.5"/>
</g>
</svg>
