<svg width="18" height="12" viewBox="0 0 18 12" fill="none" xmlns="http://www.w3.org/2000/svg">
<g id="Layer_1" clip-path="url(#clip0_2054_36670)">
<path id="Vector" d="M7.77768 5.6188C7.73474 5.59662 7.41624 5.47441 7.41624 5.45365C7.78759 5.25547 8.15281 5.01388 8.3878 4.65668C8.95072 3.80073 8.86768 2.33938 8.24718 1.53062C7.60026 0.686932 6.54424 0.423634 5.52456 0.375977H0.000976562V11.3387H5.44245C6.51546 11.2783 7.5309 11.074 8.27691 10.2496C9.46411 8.93738 9.48911 6.5007 7.77768 5.6188ZM2.21494 2.30305L2.23853 2.27993L4.65775 2.27332C5.5373 2.32758 6.55462 2.30682 6.54943 3.46193C6.54519 4.36696 5.91478 4.65526 5.10271 4.69868C4.16985 4.74869 3.19263 4.65951 2.25505 4.69868L2.21494 4.68075V2.30305ZM6.77215 8.05406C6.70939 9.07753 6.00585 9.39981 5.07959 9.4418C4.14956 9.4838 3.18838 9.40877 2.25505 9.4418L2.21494 9.42387V6.5427L2.24325 6.5243L4.91539 6.51297C5.98462 6.51392 6.84812 6.81779 6.77215 8.05406Z" fill="white"/>
<path id="Vector_2" d="M17.9934 7.88374C17.9934 7.88374 18.0339 6.99098 17.9235 6.34359C17.6433 4.70152 16.6316 3.45487 14.9739 3.12032C13.1219 2.74614 11.1066 3.35295 10.2695 5.14459C9.6929 6.37803 9.67497 8.44383 10.3068 9.65981C11.4275 11.8157 15.0065 12.2347 16.7925 10.7177C17.1412 10.4214 17.5173 9.96322 17.7065 9.54657C17.7848 9.37292 17.8471 9.20164 17.8735 9.01101L17.8471 8.97279H15.6916C15.5666 9.13794 15.4779 9.31724 15.3226 9.4588C14.6347 10.0868 13.3083 10.0208 12.6222 9.41822C12.3613 9.1889 12.182 8.86237 12.0951 8.52829C12.0428 8.32728 12.0088 8.11259 12.0135 7.90733L12.0366 7.88374H17.9934ZM12.1272 6.1237C12.3405 5.44517 12.7411 4.94075 13.4687 4.80674C14.5134 4.61375 15.5142 5.08844 15.7105 6.17844C15.728 6.2747 15.7709 6.40115 15.7266 6.48986H12.072L12.0588 6.4658L12.1272 6.1237Z" fill="white"/>
<path id="Vector_3" d="M16.2598 0.891602L16.272 2.19818L16.2423 2.25008H11.5039V0.891602H16.2598Z" fill="white"/>
</g>
<defs>
<clipPath id="clip0_2054_36670">
<rect width="18" height="11.2458" fill="white" transform="translate(0 0.376953)"/>
</clipPath>
</defs>
</svg>
