<svg width="40" height="40" viewBox="0 0 40 40" fill="none" xmlns="http://www.w3.org/2000/svg">
<mask id="mask0_388_65185" style="mask-type:alpha" maskUnits="userSpaceOnUse" x="0" y="0" width="40" height="40">
<rect width="40" height="40" fill="#D9D9D9"/>
</mask>
<g mask="url(#mask0_388_65185)">
<path d="M8.66161 35.3844C7.27967 35.3844 6.25425 35.1029 5.58536 34.5398C4.91648 33.9768 4.58203 33.1322 4.58203 32.0061C4.58203 30.5172 5.20995 29.5675 6.46578 29.1569C7.72161 28.7461 9.20814 28.5407 10.9254 28.5407H11.7391V26.3844C11.7391 25.5116 11.7252 24.7993 11.6974 24.2473C11.6697 23.6957 11.5909 23.2407 11.4612 22.8823C11.3318 22.5243 11.1827 22.2748 11.0141 22.134C10.8458 21.9932 10.6248 21.9227 10.3512 21.9227C10.112 21.9227 9.89828 21.9611 9.70995 22.0377C9.52162 22.1141 9.36467 22.2162 9.23911 22.344C9.13884 22.4715 9.07481 22.6054 9.04703 22.7457C9.01925 22.8859 9.03314 23.0326 9.0887 23.1856C9.24064 23.4682 9.418 23.7441 9.62078 24.0136C9.82356 24.283 9.92495 24.5975 9.92495 24.9569C9.92495 25.5988 9.70064 26.1441 9.25203 26.5927C8.80314 27.0413 8.25828 27.2657 7.61745 27.2657C6.97634 27.2657 6.43148 27.042 5.98286 26.5948C5.53398 26.1473 5.30953 25.604 5.30953 24.9648C5.30953 24.2745 5.46342 23.7101 5.7712 23.2715C6.07898 22.8329 6.49564 22.4845 7.0212 22.2265C7.54675 21.9684 8.15578 21.7893 8.84828 21.689C9.5405 21.5884 10.284 21.5382 11.0787 21.5382C13.2584 21.5382 14.7719 21.927 15.6191 22.7048C16.4663 23.4826 16.8899 24.8597 16.8899 26.8361V32.4957C16.8899 32.9834 16.9497 33.3443 17.0691 33.5782C17.1888 33.8123 17.3876 33.9294 17.6654 33.9294C17.9684 33.9294 18.2145 33.6954 18.4037 33.2273C18.5931 32.7593 18.714 32.0402 18.7662 31.0702H19.1974C19.1202 32.6625 18.818 33.7795 18.2908 34.4215C17.7636 35.0634 16.8826 35.3844 15.6479 35.3844C14.542 35.3844 13.6755 35.2129 13.0483 34.8698C12.4213 34.527 12.0213 34.0073 11.8483 33.3107C11.5922 34.0532 11.2145 34.5844 10.7154 34.9044C10.2165 35.2244 9.53189 35.3844 8.66161 35.3844ZM23.0012 35.3844C22.4781 35.3844 22.0618 35.1712 21.752 34.7448C21.442 34.3187 21.3893 33.8622 21.5937 33.3752L25.502 23.0352C25.6751 22.595 25.9566 22.2354 26.3466 21.9565C26.7363 21.6776 27.1737 21.5382 27.6587 21.5382C28.144 21.5382 28.5815 21.6776 28.9712 21.9565C29.3612 22.2354 29.6427 22.595 29.8158 23.0352L33.7241 33.3752C33.9286 33.8622 33.8758 34.3187 33.5658 34.7448C33.2561 35.1712 32.8401 35.3844 32.3179 35.3844C32.0045 35.3844 31.7198 35.2947 31.4637 35.1152C31.2076 34.9361 31.0155 34.6927 30.8874 34.3852L30.1187 32.1569H25.2008L24.4329 34.3852C24.3304 34.6672 24.1512 34.9041 23.8954 35.0961C23.6395 35.2883 23.3415 35.3844 23.0012 35.3844ZM10.5508 34.2723C10.8858 34.2723 11.1676 34.0091 11.3962 33.4827C11.6248 32.9563 11.7391 32.3209 11.7391 31.5765V28.9965C11.0724 28.9965 10.5852 29.1957 10.2774 29.594C9.96995 29.9923 9.8162 30.6412 9.8162 31.5407V31.9648C9.8162 32.8898 9.86773 33.5057 9.97078 33.8123C10.0738 34.119 10.2672 34.2723 10.5508 34.2723ZM26.2037 29.4644H29.1558L27.6587 25.0832L26.2037 29.4644ZM24.7795 18.5032C23.5495 18.5032 22.5681 18.0726 21.8354 17.2115C21.1023 16.3504 20.7358 15.1905 20.7358 13.7319C20.7358 11.0708 21.5804 8.88607 23.2695 7.17773C24.9587 5.4694 27.1276 4.61523 29.7762 4.61523C30.8562 4.61523 31.7279 4.73704 32.3912 4.98065C33.0548 5.22426 33.3866 5.53843 33.3866 5.92315C33.3866 6.07676 33.3615 6.22898 33.3112 6.37982C33.2609 6.53037 33.1716 6.67509 33.0433 6.81398C32.9044 6.98704 32.7413 7.1126 32.5541 7.19065C32.3666 7.26871 32.1729 7.27996 31.9729 7.2244C31.6137 7.12162 31.2033 7.03176 30.7416 6.95482C30.2797 6.87815 29.8563 6.83982 29.4716 6.83982C27.6499 6.83982 26.1873 7.4551 25.0837 8.68565C23.9801 9.91648 23.4283 11.5447 23.4283 13.5702C23.4283 14.128 23.5287 14.7162 23.7295 15.3348C23.9304 15.9534 24.393 16.2627 25.1174 16.2627C25.3908 16.2627 25.6626 16.2013 25.9329 16.0786C26.2031 15.9555 26.4441 15.7744 26.6558 15.5352C27.0936 15.0744 27.4991 14.3063 27.8724 13.2311C28.2458 12.1558 28.587 10.8501 28.8962 9.31398C28.947 8.97593 29.0809 8.73551 29.2979 8.59273C29.5148 8.44968 29.8147 8.37815 30.1974 8.37815C30.6569 8.37815 31.0079 8.50204 31.2504 8.74982C31.4929 8.9976 31.5626 9.30162 31.4595 9.6619C31.1501 10.7675 30.927 11.7287 30.7904 12.5456C30.6537 13.3623 30.5854 14.1025 30.5854 14.7661C30.5854 15.2822 30.6549 15.6563 30.7941 15.8886C30.9336 16.1208 31.1427 16.2369 31.4216 16.2369C31.7052 16.2369 31.9823 16.1312 32.2529 15.9198C32.5234 15.7082 32.9013 15.3236 33.3866 14.7661C33.4422 14.6827 33.634 14.5961 33.962 14.5061C34.1637 14.5061 34.3174 14.5832 34.4233 14.7373C34.5291 14.8915 34.582 15.1098 34.582 15.3923C34.582 16.1115 34.1718 16.8027 33.3512 17.4661C32.5306 18.1297 31.6716 18.4615 30.7741 18.4615C30.1074 18.4615 29.5359 18.2804 29.0595 17.9181C28.5831 17.5559 28.2584 17.0458 28.0854 16.3877C27.7009 17.0544 27.2268 17.5736 26.6629 17.9452C26.0993 18.3172 25.4715 18.5032 24.7795 18.5032ZM6.12078 18.4615V9.99232C6.12078 8.50371 6.64481 7.23537 7.69286 6.18732C8.74092 5.13926 10.0118 4.61523 11.5054 4.61523C12.9987 4.61523 14.2694 5.13926 15.3174 6.18732C16.3658 7.23537 16.8899 8.50371 16.8899 9.99232V18.4615H13.8129V15.3819H9.19745V18.4615H6.12078ZM9.19745 12.3077H13.8129V9.99982C13.8129 9.35871 13.5886 8.81385 13.1399 8.36523C12.6911 7.91662 12.1462 7.69232 11.5054 7.69232C10.8643 7.69232 10.3193 7.91662 9.87036 8.36523C9.42175 8.81385 9.19745 9.35871 9.19745 9.99982V12.3077Z" fill="#FF6666"/>
</g>
</svg>
