<svg width="18" height="20" viewBox="0 0 18 20" fill="none" xmlns="http://www.w3.org/2000/svg">
<g id="Layer_1" clip-path="url(#clip0_2054_36677)">
<path id="Vector" d="M17.7328 14.948C17.7598 14.9852 17.3977 15.5065 17.3382 15.5901C12.4912 22.3886 1.66443 19.8452 0.287805 11.63C-1.40263 1.54102 11.7157 -3.67971 17.4828 4.61001L17.8551 5.25359L14.2339 7.08667L14.1401 7.03735C12.4569 4.47268 8.98224 3.84216 6.47995 5.64767C3.29684 7.94446 3.62371 12.8688 7.07324 14.7318C9.5325 16.0601 12.484 15.3039 14.0975 13.0723L17.7323 14.9485L17.7328 14.948Z" fill="white"/>
<path id="Vector_2" d="M9.28276 7.82159C10.9529 7.59191 12.2734 9.10102 11.741 10.7141C11.2043 12.3407 9.03132 12.7295 7.9453 11.4017C6.8941 10.1169 7.63197 8.04837 9.28276 7.8211V7.82159Z" fill="white"/>
</g>
<defs>
<clipPath id="clip0_2054_36677">
<rect width="17.7167" height="19" fill="white" transform="translate(0.141602 0.5)"/>
</clipPath>
</defs>
</svg>
