<svg width="40" height="40" viewBox="0 0 40 40" fill="none" xmlns="http://www.w3.org/2000/svg">
<mask id="mask0_2012_158" style="mask-type:alpha" maskUnits="userSpaceOnUse" x="0" y="0" width="40" height="40">
<rect width="40" height="40" fill="#D9D9D9"/>
</mask>
<g mask="url(#mask0_2012_158)">
<path d="M8.84592 34.1667C8.00398 34.1667 7.29134 33.875 6.70801 33.2917C6.12467 32.7084 5.83301 31.9957 5.83301 31.1538V8.84629C5.83301 8.00435 6.12467 7.29171 6.70801 6.70837C7.29134 6.12504 8.00398 5.83337 8.84592 5.83337H31.1534C31.9954 5.83337 32.708 6.12504 33.2913 6.70837C33.8747 7.29171 34.1663 8.00435 34.1663 8.84629V31.1538C34.1663 31.9957 33.8747 32.7084 33.2913 33.2917C32.708 33.875 31.9954 34.1667 31.1534 34.1667H8.84592ZM11.2497 27.9167H28.8776L23.3972 20.6092L18.7176 26.6988L15.3843 22.4359L11.2497 27.9167ZM14.1663 16.25C14.7433 16.25 15.2347 16.047 15.6405 15.6409C16.0466 15.235 16.2497 14.7437 16.2497 14.1667C16.2497 13.5898 16.0466 13.0984 15.6405 12.6925C15.2347 12.2864 14.7433 12.0834 14.1663 12.0834C13.5894 12.0834 13.098 12.2864 12.6922 12.6925C12.2861 13.0984 12.083 13.5898 12.083 14.1667C12.083 14.7437 12.2861 15.235 12.6922 15.6409C13.098 16.047 13.5894 16.25 14.1663 16.25Z" fill="#FFB366"/>
</g>
</svg>
