<svg width="40" height="40" viewBox="0 0 40 40" fill="none" xmlns="http://www.w3.org/2000/svg">
<path d="M7 3H24L33 12V38H7V3Z" fill="#5CE5E5"/>
<path d="M10.902 26.322H13.19C14.1727 26.322 14.8987 26.6483 15.368 27.301C15.8447 27.9537 16.083 28.907 16.083 30.161C16.083 31.415 15.8447 32.3683 15.368 33.021C14.8987 33.6737 14.1727 34 13.19 34H10.902V26.322ZM13.113 32.988C13.6777 32.988 14.0957 32.801 14.367 32.427C14.6457 32.0457 14.785 31.503 14.785 30.799V29.523C14.785 28.819 14.6457 28.28 14.367 27.906C14.0957 27.5247 13.6777 27.334 13.113 27.334H12.123V32.988H13.113ZM19.4557 34.132C18.9717 34.132 18.55 34.044 18.1907 33.868C17.8387 33.6847 17.5454 33.4243 17.3107 33.087C17.0834 32.7497 16.9147 32.3353 16.8047 31.844C16.6947 31.3527 16.6397 30.7917 16.6397 30.161C16.6397 29.5377 16.6947 28.9803 16.8047 28.489C16.9147 27.9903 17.0834 27.5723 17.3107 27.235C17.5454 26.8977 17.8387 26.641 18.1907 26.465C18.55 26.2817 18.9717 26.19 19.4557 26.19C19.9397 26.19 20.3577 26.2817 20.7097 26.465C21.069 26.641 21.3624 26.8977 21.5897 27.235C21.8244 27.5723 21.9967 27.9903 22.1067 28.489C22.2167 28.9803 22.2717 29.5377 22.2717 30.161C22.2717 30.7917 22.2167 31.3527 22.1067 31.844C21.9967 32.3353 21.8244 32.7497 21.5897 33.087C21.3624 33.4243 21.069 33.6847 20.7097 33.868C20.3577 34.044 19.9397 34.132 19.4557 34.132ZM19.4557 33.109C20.0057 33.109 20.3944 32.9037 20.6217 32.493C20.849 32.075 20.9627 31.5103 20.9627 30.799V29.512C20.9627 28.808 20.849 28.2507 20.6217 27.84C20.3944 27.422 20.0057 27.213 19.4557 27.213C18.9057 27.213 18.517 27.422 18.2897 27.84C18.0624 28.2507 17.9487 28.808 17.9487 29.512V30.81C17.9487 31.514 18.0624 32.075 18.2897 32.493C18.517 32.9037 18.9057 33.109 19.4557 33.109ZM25.8314 34.132C24.8561 34.132 24.1301 33.7873 23.6534 33.098C23.1841 32.4087 22.9494 31.4297 22.9494 30.161C22.9494 28.8923 23.1841 27.9133 23.6534 27.224C24.1301 26.5347 24.8561 26.19 25.8314 26.19C26.2054 26.19 26.5281 26.2413 26.7994 26.344C27.0781 26.4393 27.3164 26.575 27.5144 26.751C27.7124 26.9197 27.8774 27.1213 28.0094 27.356C28.1487 27.5833 28.2624 27.829 28.3504 28.093L27.2394 28.467C27.1807 28.291 27.1147 28.126 27.0414 27.972C26.9681 27.818 26.8764 27.686 26.7664 27.576C26.6564 27.466 26.5244 27.378 26.3704 27.312C26.2237 27.246 26.0404 27.213 25.8204 27.213C25.2777 27.213 24.8817 27.422 24.6324 27.84C24.3831 28.2507 24.2584 28.808 24.2584 29.512V30.81C24.2584 31.514 24.3831 32.075 24.6324 32.493C24.8817 32.9037 25.2777 33.109 25.8204 33.109C26.0404 33.109 26.2237 33.076 26.3704 33.01C26.5244 32.944 26.6564 32.856 26.7664 32.746C26.8764 32.636 26.9681 32.504 27.0414 32.35C27.1147 32.196 27.1807 32.031 27.2394 31.855L28.3504 32.229C28.2624 32.493 28.1487 32.7423 28.0094 32.977C27.8774 33.2043 27.7124 33.406 27.5144 33.582C27.3164 33.7507 27.0781 33.8863 26.7994 33.989C26.5281 34.0843 26.2054 34.132 25.8314 34.132Z" fill="white"/>
</svg>
