<svg width="375" height="81" viewBox="0 0 375 81" fill="none" xmlns="http://www.w3.org/2000/svg">
<rect x="0.25" y="0.75" width="79.5" height="79.5" stroke="white" stroke-opacity="0.2" stroke-width="0.5"/>
<path d="M5.616 19.5V11.124H10.608V12.012H6.624V14.82H10.26V15.708H6.624V19.5H5.616ZM12.7031 11.856C12.4951 11.856 12.3431 11.808 12.2471 11.712C12.1591 11.608 12.1151 11.476 12.1151 11.316V11.16C12.1151 11 12.1591 10.872 12.2471 10.776C12.3431 10.672 12.4951 10.62 12.7031 10.62C12.9111 10.62 13.0591 10.672 13.1471 10.776C13.2431 10.872 13.2911 11 13.2911 11.16V11.316C13.2911 11.476 13.2431 11.608 13.1471 11.712C13.0591 11.808 12.9111 11.856 12.7031 11.856ZM12.2231 13.308H13.1831V19.5H12.2231V13.308ZM15.2231 19.5V13.308H16.1831V14.316H16.2311C16.3831 13.964 16.5951 13.684 16.8671 13.476C17.1471 13.268 17.5191 13.164 17.9831 13.164C18.6231 13.164 19.1271 13.372 19.4951 13.788C19.8711 14.196 20.0591 14.776 20.0591 15.528V19.5H19.0991V15.696C19.0991 14.584 18.6311 14.028 17.6951 14.028C17.5031 14.028 17.3151 14.052 17.1311 14.1C16.9551 14.148 16.7951 14.22 16.6511 14.316C16.5071 14.412 16.3911 14.536 16.3031 14.688C16.2231 14.832 16.1831 15.004 16.1831 15.204V19.5H15.2231ZM26.0034 18.492H25.9554C25.5794 19.26 24.9754 19.644 24.1434 19.644C23.7594 19.644 23.4114 19.568 23.0994 19.416C22.7874 19.264 22.5194 19.048 22.2954 18.768C22.0794 18.488 21.9114 18.148 21.7914 17.748C21.6794 17.348 21.6234 16.9 21.6234 16.404C21.6234 15.908 21.6794 15.46 21.7914 15.06C21.9114 14.66 22.0794 14.32 22.2954 14.04C22.5194 13.76 22.7874 13.544 23.0994 13.392C23.4114 13.24 23.7594 13.164 24.1434 13.164C24.5754 13.164 24.9434 13.26 25.2474 13.452C25.5594 13.636 25.7954 13.924 25.9554 14.316H26.0034V10.62H26.9634V19.5H26.0034V18.492ZM24.4074 18.78C24.6234 18.78 24.8274 18.752 25.0194 18.696C25.2194 18.64 25.3914 18.56 25.5354 18.456C25.6794 18.344 25.7914 18.212 25.8714 18.06C25.9594 17.9 26.0034 17.72 26.0034 17.52V15.216C26.0034 15.048 25.9594 14.892 25.8714 14.748C25.7914 14.596 25.6794 14.468 25.5354 14.364C25.3914 14.26 25.2194 14.18 25.0194 14.124C24.8274 14.06 24.6234 14.028 24.4074 14.028C23.8634 14.028 23.4354 14.2 23.1234 14.544C22.8114 14.88 22.6554 15.324 22.6554 15.876V16.932C22.6554 17.484 22.8114 17.932 23.1234 18.276C23.4354 18.612 23.8634 18.78 24.4074 18.78ZM10.02 39.5C9.66 39.5 9.4 39.404 9.24 39.212C9.088 39.02 8.992 38.78 8.952 38.492H8.892C8.756 38.876 8.532 39.164 8.22 39.356C7.908 39.548 7.536 39.644 7.104 39.644C6.448 39.644 5.936 39.476 5.568 39.14C5.208 38.804 5.028 38.348 5.028 37.772C5.028 37.188 5.24 36.74 5.664 36.428C6.096 36.116 6.764 35.96 7.668 35.96H8.892V35.348C8.892 34.908 8.772 34.572 8.532 34.34C8.292 34.108 7.924 33.992 7.428 33.992C7.052 33.992 6.736 34.076 6.48 34.244C6.232 34.412 6.024 34.636 5.856 34.916L5.28 34.376C5.448 34.04 5.716 33.756 6.084 33.524C6.452 33.284 6.916 33.164 7.476 33.164C8.228 33.164 8.812 33.348 9.228 33.716C9.644 34.084 9.852 34.596 9.852 35.252V38.66H10.56V39.5H10.02ZM7.26 38.828C7.5 38.828 7.72 38.8 7.92 38.744C8.12 38.688 8.292 38.608 8.436 38.504C8.58 38.4 8.692 38.28 8.772 38.144C8.852 38.008 8.892 37.86 8.892 37.7V36.68H7.62C7.068 36.68 6.664 36.76 6.408 36.92C6.16 37.08 6.036 37.312 6.036 37.616V37.868C6.036 38.172 6.144 38.408 6.36 38.576C6.584 38.744 6.884 38.828 7.26 38.828ZM17.8141 39.644C16.7501 39.644 15.9221 39.284 15.3301 38.564C14.7381 37.836 14.4421 36.768 14.4421 35.36C14.4421 33.952 14.7381 32.872 15.3301 32.12C15.9221 31.36 16.7501 30.98 17.8141 30.98C18.5181 30.98 19.1061 31.14 19.5781 31.46C20.0581 31.78 20.4301 32.232 20.6941 32.816L19.8781 33.308C19.7101 32.876 19.4541 32.532 19.1101 32.276C18.7661 32.012 18.3341 31.88 17.8141 31.88C17.4541 31.88 17.1301 31.948 16.8421 32.084C16.5621 32.22 16.3221 32.416 16.1221 32.672C15.9301 32.92 15.7821 33.22 15.6781 33.572C15.5741 33.916 15.5221 34.304 15.5221 34.736V35.984C15.5221 36.848 15.7221 37.524 16.1221 38.012C16.5221 38.5 17.0861 38.744 17.8141 38.744C18.3501 38.744 18.7981 38.608 19.1581 38.336C19.5181 38.056 19.7821 37.688 19.9501 37.232L20.7541 37.736C20.4901 38.328 20.1101 38.796 19.6141 39.14C19.1181 39.476 18.5181 39.644 17.8141 39.644ZM24.5592 39.644C24.1432 39.644 23.7632 39.568 23.4192 39.416C23.0752 39.264 22.7792 39.048 22.5312 38.768C22.2912 38.48 22.1032 38.14 21.9672 37.748C21.8312 37.348 21.7632 36.9 21.7632 36.404C21.7632 35.916 21.8312 35.472 21.9672 35.072C22.1032 34.672 22.2912 34.332 22.5312 34.052C22.7792 33.764 23.0752 33.544 23.4192 33.392C23.7632 33.24 24.1432 33.164 24.5592 33.164C24.9752 33.164 25.3512 33.24 25.6872 33.392C26.0312 33.544 26.3272 33.764 26.5752 34.052C26.8232 34.332 27.0152 34.672 27.1512 35.072C27.2872 35.472 27.3552 35.916 27.3552 36.404C27.3552 36.9 27.2872 37.348 27.1512 37.748C27.0152 38.14 26.8232 38.48 26.5752 38.768C26.3272 39.048 26.0312 39.264 25.6872 39.416C25.3512 39.568 24.9752 39.644 24.5592 39.644ZM24.5592 38.792C25.0792 38.792 25.5032 38.632 25.8312 38.312C26.1592 37.992 26.3232 37.504 26.3232 36.848V35.96C26.3232 35.304 26.1592 34.816 25.8312 34.496C25.5032 34.176 25.0792 34.016 24.5592 34.016C24.0392 34.016 23.6152 34.176 23.2872 34.496C22.9592 34.816 22.7952 35.304 22.7952 35.96V36.848C22.7952 37.504 22.9592 37.992 23.2872 38.312C23.6152 38.632 24.0392 38.792 24.5592 38.792ZM28.9341 33.308H29.8941V34.316H29.9421C30.1021 33.924 30.3341 33.636 30.6381 33.452C30.9501 33.26 31.3221 33.164 31.7541 33.164C32.1381 33.164 32.4861 33.24 32.7981 33.392C33.1101 33.544 33.3741 33.76 33.5901 34.04C33.8141 34.32 33.9821 34.66 34.0941 35.06C34.2141 35.46 34.2741 35.908 34.2741 36.404C34.2741 36.9 34.2141 37.348 34.0941 37.748C33.9821 38.148 33.8141 38.488 33.5901 38.768C33.3741 39.048 33.1101 39.264 32.7981 39.416C32.4861 39.568 32.1381 39.644 31.7541 39.644C30.9141 39.644 30.3101 39.26 29.9421 38.492H29.8941V41.9H28.9341V33.308ZM31.4901 38.78C32.0341 38.78 32.4621 38.612 32.7741 38.276C33.0861 37.932 33.2421 37.484 33.2421 36.932V35.876C33.2421 35.324 33.0861 34.88 32.7741 34.544C32.4621 34.2 32.0341 34.028 31.4901 34.028C31.2741 34.028 31.0661 34.06 30.8661 34.124C30.6741 34.18 30.5061 34.26 30.3621 34.364C30.2181 34.468 30.1021 34.596 30.0141 34.748C29.9341 34.892 29.8941 35.048 29.8941 35.216V37.52C29.8941 37.72 29.9341 37.9 30.0141 38.06C30.1021 38.212 30.2181 38.344 30.3621 38.456C30.5061 38.56 30.6741 38.64 30.8661 38.696C31.0661 38.752 31.2741 38.78 31.4901 38.78ZM39.6524 33.308H40.6004L37.8284 40.94C37.7564 41.124 37.6844 41.276 37.6124 41.396C37.5404 41.524 37.4524 41.624 37.3484 41.696C37.2444 41.768 37.1124 41.82 36.9524 41.852C36.8004 41.884 36.6124 41.9 36.3884 41.9H35.8964V41.06H36.8684L37.3364 39.74L35.0204 33.308H35.9804L37.4684 37.52L37.7564 38.528H37.8164L38.1524 37.52L39.6524 33.308ZM41.1767 33.308H42.1127L42.7727 35.984L43.4327 38.696H43.4567L44.2127 35.984L44.9927 33.308H45.8447L46.6487 35.984L47.4167 38.696H47.4407L48.0767 35.984L48.7487 33.308H49.6487L48.0047 39.5H46.8167L45.9527 36.524L45.4127 34.64H45.3887L44.8607 36.524L43.9967 39.5H42.8327L41.1767 33.308ZM51.0356 39.5V33.308H51.9956V34.448H52.0556C52.1676 34.152 52.3676 33.888 52.6556 33.656C52.9436 33.424 53.3396 33.308 53.8436 33.308H54.2156V34.268H53.6516C53.1316 34.268 52.7236 34.368 52.4276 34.568C52.1396 34.76 51.9956 35.004 51.9956 35.3V39.5H51.0356ZM55.9219 31.856C55.7139 31.856 55.5619 31.808 55.4659 31.712C55.3779 31.608 55.3339 31.476 55.3339 31.316V31.16C55.3339 31 55.3779 30.872 55.4659 30.776C55.5619 30.672 55.7139 30.62 55.9219 30.62C56.1299 30.62 56.2779 30.672 56.3659 30.776C56.4619 30.872 56.5099 31 56.5099 31.16V31.316C56.5099 31.476 56.4619 31.608 56.3659 31.712C56.2779 31.808 56.1299 31.856 55.9219 31.856ZM55.4419 33.308H56.4019V39.5H55.4419V33.308ZM59.8099 39.5C59.4739 39.5 59.2179 39.408 59.0419 39.224C58.8739 39.032 58.7899 38.784 58.7899 38.48V34.148H57.7699V33.308H58.3459C58.5539 33.308 58.6939 33.268 58.7659 33.188C58.8459 33.1 58.8859 32.952 58.8859 32.744V31.592H59.7499V33.308H61.1059V34.148H59.7499V38.66H61.0099V39.5H59.8099ZM64.93 39.644C64.506 39.644 64.122 39.568 63.778 39.416C63.442 39.264 63.15 39.048 62.902 38.768C62.662 38.48 62.474 38.14 62.338 37.748C62.21 37.348 62.146 36.9 62.146 36.404C62.146 35.916 62.21 35.472 62.338 35.072C62.474 34.672 62.662 34.332 62.902 34.052C63.15 33.764 63.442 33.544 63.778 33.392C64.122 33.24 64.506 33.164 64.93 33.164C65.346 33.164 65.718 33.24 66.046 33.392C66.374 33.544 66.654 33.756 66.886 34.028C67.118 34.292 67.294 34.608 67.414 34.976C67.542 35.344 67.606 35.748 67.606 36.188V36.644H63.154V36.932C63.154 37.196 63.194 37.444 63.274 37.676C63.362 37.9 63.482 38.096 63.634 38.264C63.794 38.432 63.986 38.564 64.21 38.66C64.442 38.756 64.702 38.804 64.99 38.804C65.382 38.804 65.722 38.712 66.01 38.528C66.306 38.344 66.534 38.08 66.694 37.736L67.378 38.228C67.178 38.652 66.866 38.996 66.442 39.26C66.018 39.516 65.514 39.644 64.93 39.644ZM64.93 33.968C64.666 33.968 64.426 34.016 64.21 34.112C63.994 34.2 63.806 34.328 63.646 34.496C63.494 34.664 63.374 34.864 63.286 35.096C63.198 35.32 63.154 35.568 63.154 35.84V35.924H66.574V35.792C66.574 35.24 66.422 34.8 66.118 34.472C65.822 34.136 65.426 33.968 64.93 33.968ZM69.188 39.5V33.308H70.148V34.448H70.208C70.32 34.152 70.52 33.888 70.808 33.656C71.096 33.424 71.492 33.308 71.996 33.308H72.368V34.268H71.804C71.284 34.268 70.876 34.368 70.58 34.568C70.292 34.76 70.148 35.004 70.148 35.3V39.5H69.188Z" fill="white" fill-opacity="0.5"/>
<mask id="mask0_388_86853" style="mask-type:alpha" maskUnits="userSpaceOnUse" x="82" y="34" width="12" height="13">
<rect x="82" y="34.5" width="12" height="12" fill="#D9D9D9"/>
</mask>
<g mask="url(#mask0_388_86853)">
<path d="M87.625 44.75V40.875H83.75V40.125H87.625V36.25H88.375V40.125H92.25V40.875H88.375V44.75H87.625Z" fill="white" fill-opacity="0.2"/>
</g>
<rect x="96.25" y="0.75" width="79.5" height="79.5" stroke="white" stroke-opacity="0.2" stroke-width="0.5"/>
<path d="M101.616 19.5V11.124H106.608V12.012H102.624V14.82H106.26V15.708H102.624V19.5H101.616ZM108.703 11.856C108.495 11.856 108.343 11.808 108.247 11.712C108.159 11.608 108.115 11.476 108.115 11.316V11.16C108.115 11 108.159 10.872 108.247 10.776C108.343 10.672 108.495 10.62 108.703 10.62C108.911 10.62 109.059 10.672 109.147 10.776C109.243 10.872 109.291 11 109.291 11.16V11.316C109.291 11.476 109.243 11.608 109.147 11.712C109.059 11.808 108.911 11.856 108.703 11.856ZM108.223 13.308H109.183V19.5H108.223V13.308ZM111.223 19.5V13.308H112.183V14.316H112.231C112.383 13.964 112.595 13.684 112.867 13.476C113.147 13.268 113.519 13.164 113.983 13.164C114.623 13.164 115.127 13.372 115.495 13.788C115.871 14.196 116.059 14.776 116.059 15.528V19.5H115.099V15.696C115.099 14.584 114.631 14.028 113.695 14.028C113.503 14.028 113.315 14.052 113.131 14.1C112.955 14.148 112.795 14.22 112.651 14.316C112.507 14.412 112.391 14.536 112.303 14.688C112.223 14.832 112.183 15.004 112.183 15.204V19.5H111.223ZM122.003 18.492H121.955C121.579 19.26 120.975 19.644 120.143 19.644C119.759 19.644 119.411 19.568 119.099 19.416C118.787 19.264 118.519 19.048 118.295 18.768C118.079 18.488 117.911 18.148 117.791 17.748C117.679 17.348 117.623 16.9 117.623 16.404C117.623 15.908 117.679 15.46 117.791 15.06C117.911 14.66 118.079 14.32 118.295 14.04C118.519 13.76 118.787 13.544 119.099 13.392C119.411 13.24 119.759 13.164 120.143 13.164C120.575 13.164 120.943 13.26 121.247 13.452C121.559 13.636 121.795 13.924 121.955 14.316H122.003V10.62H122.963V19.5H122.003V18.492ZM120.407 18.78C120.623 18.78 120.827 18.752 121.019 18.696C121.219 18.64 121.391 18.56 121.535 18.456C121.679 18.344 121.791 18.212 121.871 18.06C121.959 17.9 122.003 17.72 122.003 17.52V15.216C122.003 15.048 121.959 14.892 121.871 14.748C121.791 14.596 121.679 14.468 121.535 14.364C121.391 14.26 121.219 14.18 121.019 14.124C120.827 14.06 120.623 14.028 120.407 14.028C119.863 14.028 119.435 14.2 119.123 14.544C118.811 14.88 118.655 15.324 118.655 15.876V16.932C118.655 17.484 118.811 17.932 119.123 18.276C119.435 18.612 119.863 18.78 120.407 18.78ZM106.02 39.5C105.66 39.5 105.4 39.404 105.24 39.212C105.088 39.02 104.992 38.78 104.952 38.492H104.892C104.756 38.876 104.532 39.164 104.22 39.356C103.908 39.548 103.536 39.644 103.104 39.644C102.448 39.644 101.936 39.476 101.568 39.14C101.208 38.804 101.028 38.348 101.028 37.772C101.028 37.188 101.24 36.74 101.664 36.428C102.096 36.116 102.764 35.96 103.668 35.96H104.892V35.348C104.892 34.908 104.772 34.572 104.532 34.34C104.292 34.108 103.924 33.992 103.428 33.992C103.052 33.992 102.736 34.076 102.48 34.244C102.232 34.412 102.024 34.636 101.856 34.916L101.28 34.376C101.448 34.04 101.716 33.756 102.084 33.524C102.452 33.284 102.916 33.164 103.476 33.164C104.228 33.164 104.812 33.348 105.228 33.716C105.644 34.084 105.852 34.596 105.852 35.252V38.66H106.56V39.5H106.02ZM103.26 38.828C103.5 38.828 103.72 38.8 103.92 38.744C104.12 38.688 104.292 38.608 104.436 38.504C104.58 38.4 104.692 38.28 104.772 38.144C104.852 38.008 104.892 37.86 104.892 37.7V36.68H103.62C103.068 36.68 102.664 36.76 102.408 36.92C102.16 37.08 102.036 37.312 102.036 37.616V37.868C102.036 38.172 102.144 38.408 102.36 38.576C102.584 38.744 102.884 38.828 103.26 38.828ZM110.862 31.124H113.67C114.19 31.124 114.662 31.212 115.086 31.388C115.51 31.564 115.87 31.828 116.166 32.18C116.47 32.524 116.702 32.96 116.862 33.488C117.022 34.008 117.102 34.616 117.102 35.312C117.102 36.008 117.022 36.62 116.862 37.148C116.702 37.668 116.47 38.104 116.166 38.456C115.87 38.8 115.51 39.06 115.086 39.236C114.662 39.412 114.19 39.5 113.67 39.5H110.862V31.124ZM113.67 38.612C114.014 38.612 114.33 38.556 114.618 38.444C114.906 38.324 115.154 38.152 115.362 37.928C115.57 37.704 115.73 37.432 115.842 37.112C115.962 36.784 116.022 36.412 116.022 35.996V34.628C116.022 34.212 115.962 33.844 115.842 33.524C115.73 33.196 115.57 32.92 115.362 32.696C115.154 32.472 114.906 32.304 114.618 32.192C114.33 32.072 114.014 32.012 113.67 32.012H111.87V38.612H113.67ZM121.145 39.644C120.721 39.644 120.337 39.568 119.993 39.416C119.657 39.264 119.365 39.048 119.117 38.768C118.877 38.48 118.689 38.14 118.553 37.748C118.425 37.348 118.361 36.9 118.361 36.404C118.361 35.916 118.425 35.472 118.553 35.072C118.689 34.672 118.877 34.332 119.117 34.052C119.365 33.764 119.657 33.544 119.993 33.392C120.337 33.24 120.721 33.164 121.145 33.164C121.561 33.164 121.933 33.24 122.261 33.392C122.589 33.544 122.869 33.756 123.101 34.028C123.333 34.292 123.509 34.608 123.629 34.976C123.757 35.344 123.821 35.748 123.821 36.188V36.644H119.369V36.932C119.369 37.196 119.409 37.444 119.489 37.676C119.577 37.9 119.697 38.096 119.849 38.264C120.009 38.432 120.201 38.564 120.425 38.66C120.657 38.756 120.917 38.804 121.205 38.804C121.597 38.804 121.937 38.712 122.225 38.528C122.521 38.344 122.749 38.08 122.909 37.736L123.593 38.228C123.393 38.652 123.081 38.996 122.657 39.26C122.233 39.516 121.729 39.644 121.145 39.644ZM121.145 33.968C120.881 33.968 120.641 34.016 120.425 34.112C120.209 34.2 120.021 34.328 119.861 34.496C119.709 34.664 119.589 34.864 119.501 35.096C119.413 35.32 119.369 35.568 119.369 35.84V35.924H122.789V35.792C122.789 35.24 122.637 34.8 122.333 34.472C122.037 34.136 121.641 33.968 121.145 33.968ZM127.263 39.644C126.687 39.644 126.203 39.536 125.811 39.32C125.427 39.096 125.095 38.8 124.815 38.432L125.499 37.88C125.739 38.184 126.007 38.42 126.303 38.588C126.599 38.748 126.943 38.828 127.335 38.828C127.743 38.828 128.059 38.74 128.283 38.564C128.515 38.388 128.631 38.14 128.631 37.82C128.631 37.58 128.551 37.376 128.391 37.208C128.239 37.032 127.959 36.912 127.551 36.848L127.059 36.776C126.771 36.736 126.507 36.676 126.267 36.596C126.027 36.508 125.815 36.396 125.631 36.26C125.455 36.116 125.315 35.94 125.211 35.732C125.115 35.524 125.067 35.276 125.067 34.988C125.067 34.684 125.123 34.42 125.235 34.196C125.347 33.964 125.499 33.772 125.691 33.62C125.891 33.468 126.127 33.356 126.399 33.284C126.671 33.204 126.963 33.164 127.275 33.164C127.779 33.164 128.199 33.252 128.535 33.428C128.879 33.604 129.179 33.848 129.435 34.16L128.799 34.736C128.663 34.544 128.463 34.372 128.199 34.22C127.935 34.06 127.603 33.98 127.203 33.98C126.803 33.98 126.499 34.068 126.291 34.244C126.091 34.412 125.991 34.644 125.991 34.94C125.991 35.244 126.091 35.464 126.291 35.6C126.499 35.736 126.795 35.836 127.179 35.9L127.659 35.972C128.347 36.076 128.835 36.276 129.123 36.572C129.411 36.86 129.555 37.24 129.555 37.712C129.555 38.312 129.351 38.784 128.943 39.128C128.535 39.472 127.975 39.644 127.263 39.644ZM131.73 31.856C131.522 31.856 131.37 31.808 131.274 31.712C131.186 31.608 131.142 31.476 131.142 31.316V31.16C131.142 31 131.186 30.872 131.274 30.776C131.37 30.672 131.522 30.62 131.73 30.62C131.938 30.62 132.086 30.672 132.174 30.776C132.27 30.872 132.318 31 132.318 31.16V31.316C132.318 31.476 132.27 31.608 132.174 31.712C132.086 31.808 131.938 31.856 131.73 31.856ZM131.25 33.308H132.21V39.5H131.25V33.308ZM139.47 40.184C139.47 40.824 139.218 41.292 138.714 41.588C138.218 41.892 137.47 42.044 136.47 42.044C135.502 42.044 134.806 41.912 134.382 41.648C133.958 41.384 133.746 41.008 133.746 40.52C133.746 40.184 133.834 39.92 134.01 39.728C134.186 39.544 134.426 39.408 134.73 39.32V39.188C134.362 39.012 134.178 38.724 134.178 38.324C134.178 38.012 134.278 37.776 134.478 37.616C134.678 37.448 134.934 37.324 135.246 37.244V37.196C134.878 37.02 134.59 36.768 134.382 36.44C134.182 36.112 134.082 35.732 134.082 35.3C134.082 34.988 134.138 34.7 134.25 34.436C134.362 34.172 134.518 33.948 134.718 33.764C134.926 33.572 135.17 33.424 135.45 33.32C135.738 33.216 136.058 33.164 136.41 33.164C136.85 33.164 137.242 33.244 137.586 33.404V33.296C137.586 33.056 137.642 32.86 137.754 32.708C137.866 32.548 138.05 32.468 138.306 32.468H139.23V33.308H138.054V33.704C138.278 33.896 138.45 34.128 138.57 34.4C138.698 34.664 138.762 34.964 138.762 35.3C138.762 35.612 138.706 35.9 138.594 36.164C138.482 36.428 138.322 36.656 138.114 36.848C137.914 37.032 137.67 37.176 137.382 37.28C137.094 37.384 136.774 37.436 136.422 37.436C136.222 37.436 136.022 37.416 135.822 37.376C135.614 37.432 135.426 37.516 135.258 37.628C135.09 37.732 135.006 37.88 135.006 38.072C135.006 38.256 135.094 38.38 135.27 38.444C135.446 38.508 135.674 38.54 135.954 38.54H137.274C138.042 38.54 138.598 38.688 138.942 38.984C139.294 39.272 139.47 39.672 139.47 40.184ZM138.57 40.256C138.57 40.008 138.474 39.808 138.282 39.656C138.098 39.512 137.766 39.44 137.286 39.44H135.222C134.838 39.616 134.646 39.896 134.646 40.28C134.646 40.552 134.746 40.784 134.946 40.976C135.154 41.168 135.502 41.264 135.99 41.264H136.878C137.414 41.264 137.83 41.18 138.126 41.012C138.422 40.844 138.57 40.592 138.57 40.256ZM136.422 36.668C136.83 36.668 137.154 36.572 137.394 36.38C137.634 36.18 137.754 35.876 137.754 35.468V35.132C137.754 34.724 137.634 34.424 137.394 34.232C137.154 34.032 136.83 33.932 136.422 33.932C136.014 33.932 135.69 34.032 135.45 34.232C135.21 34.424 135.09 34.724 135.09 35.132V35.468C135.09 35.876 135.21 36.18 135.45 36.38C135.69 36.572 136.014 36.668 136.422 36.668ZM140.59 39.5V33.308H141.55V34.316H141.598C141.75 33.964 141.962 33.684 142.234 33.476C142.514 33.268 142.886 33.164 143.35 33.164C143.99 33.164 144.494 33.372 144.862 33.788C145.238 34.196 145.426 34.776 145.426 35.528V39.5H144.466V35.696C144.466 34.584 143.998 34.028 143.062 34.028C142.87 34.028 142.682 34.052 142.498 34.1C142.322 34.148 142.162 34.22 142.018 34.316C141.874 34.412 141.758 34.536 141.67 34.688C141.59 34.832 141.55 35.004 141.55 35.204V39.5H140.59ZM149.739 39.644C149.315 39.644 148.931 39.568 148.587 39.416C148.251 39.264 147.959 39.048 147.711 38.768C147.471 38.48 147.283 38.14 147.147 37.748C147.019 37.348 146.955 36.9 146.955 36.404C146.955 35.916 147.019 35.472 147.147 35.072C147.283 34.672 147.471 34.332 147.711 34.052C147.959 33.764 148.251 33.544 148.587 33.392C148.931 33.24 149.315 33.164 149.739 33.164C150.155 33.164 150.527 33.24 150.855 33.392C151.183 33.544 151.463 33.756 151.695 34.028C151.927 34.292 152.103 34.608 152.223 34.976C152.351 35.344 152.415 35.748 152.415 36.188V36.644H147.963V36.932C147.963 37.196 148.003 37.444 148.083 37.676C148.171 37.9 148.291 38.096 148.443 38.264C148.603 38.432 148.795 38.564 149.019 38.66C149.251 38.756 149.511 38.804 149.799 38.804C150.191 38.804 150.531 38.712 150.819 38.528C151.115 38.344 151.343 38.08 151.503 37.736L152.187 38.228C151.987 38.652 151.675 38.996 151.251 39.26C150.827 39.516 150.323 39.644 149.739 39.644ZM149.739 33.968C149.475 33.968 149.235 34.016 149.019 34.112C148.803 34.2 148.615 34.328 148.455 34.496C148.303 34.664 148.183 34.864 148.095 35.096C148.007 35.32 147.963 35.568 147.963 35.84V35.924H151.383V35.792C151.383 35.24 151.231 34.8 150.927 34.472C150.631 34.136 150.235 33.968 149.739 33.968ZM153.997 39.5V33.308H154.957V34.448H155.017C155.129 34.152 155.329 33.888 155.617 33.656C155.905 33.424 156.301 33.308 156.805 33.308H157.177V34.268H156.613C156.093 34.268 155.685 34.368 155.389 34.568C155.101 34.76 154.957 35.004 154.957 35.3V39.5H153.997Z" fill="white" fill-opacity="0.5"/>
<mask id="mask1_388_86853" style="mask-type:alpha" maskUnits="userSpaceOnUse" x="178" y="34" width="12" height="13">
<rect x="178" y="34.5" width="12" height="12" fill="#D9D9D9"/>
</mask>
<g mask="url(#mask1_388_86853)">
<path d="M183.625 44.75V40.875H179.75V40.125H183.625V36.25H184.375V40.125H188.25V40.875H184.375V44.75H183.625Z" fill="white" fill-opacity="0.2"/>
</g>
<rect x="192.25" y="0.75" width="79.5" height="79.5" stroke="white" stroke-opacity="0.2" stroke-width="0.5"/>
<path d="M197.616 19.5V11.124H202.608V12.012H198.624V14.82H202.26V15.708H198.624V19.5H197.616ZM204.703 11.856C204.495 11.856 204.343 11.808 204.247 11.712C204.159 11.608 204.115 11.476 204.115 11.316V11.16C204.115 11 204.159 10.872 204.247 10.776C204.343 10.672 204.495 10.62 204.703 10.62C204.911 10.62 205.059 10.672 205.147 10.776C205.243 10.872 205.291 11 205.291 11.16V11.316C205.291 11.476 205.243 11.608 205.147 11.712C205.059 11.808 204.911 11.856 204.703 11.856ZM204.223 13.308H205.183V19.5H204.223V13.308ZM207.223 19.5V13.308H208.183V14.316H208.231C208.383 13.964 208.595 13.684 208.867 13.476C209.147 13.268 209.519 13.164 209.983 13.164C210.623 13.164 211.127 13.372 211.495 13.788C211.871 14.196 212.059 14.776 212.059 15.528V19.5H211.099V15.696C211.099 14.584 210.631 14.028 209.695 14.028C209.503 14.028 209.315 14.052 209.131 14.1C208.955 14.148 208.795 14.22 208.651 14.316C208.507 14.412 208.391 14.536 208.303 14.688C208.223 14.832 208.183 15.004 208.183 15.204V19.5H207.223ZM218.003 18.492H217.955C217.579 19.26 216.975 19.644 216.143 19.644C215.759 19.644 215.411 19.568 215.099 19.416C214.787 19.264 214.519 19.048 214.295 18.768C214.079 18.488 213.911 18.148 213.791 17.748C213.679 17.348 213.623 16.9 213.623 16.404C213.623 15.908 213.679 15.46 213.791 15.06C213.911 14.66 214.079 14.32 214.295 14.04C214.519 13.76 214.787 13.544 215.099 13.392C215.411 13.24 215.759 13.164 216.143 13.164C216.575 13.164 216.943 13.26 217.247 13.452C217.559 13.636 217.795 13.924 217.955 14.316H218.003V10.62H218.963V19.5H218.003V18.492ZM216.407 18.78C216.623 18.78 216.827 18.752 217.019 18.696C217.219 18.64 217.391 18.56 217.535 18.456C217.679 18.344 217.791 18.212 217.871 18.06C217.959 17.9 218.003 17.72 218.003 17.52V15.216C218.003 15.048 217.959 14.892 217.871 14.748C217.791 14.596 217.679 14.468 217.535 14.364C217.391 14.26 217.219 14.18 217.019 14.124C216.827 14.06 216.623 14.028 216.407 14.028C215.863 14.028 215.435 14.2 215.123 14.544C214.811 14.88 214.655 15.324 214.655 15.876V16.932C214.655 17.484 214.811 17.932 215.123 18.276C215.435 18.612 215.863 18.78 216.407 18.78ZM202.02 39.5C201.66 39.5 201.4 39.404 201.24 39.212C201.088 39.02 200.992 38.78 200.952 38.492H200.892C200.756 38.876 200.532 39.164 200.22 39.356C199.908 39.548 199.536 39.644 199.104 39.644C198.448 39.644 197.936 39.476 197.568 39.14C197.208 38.804 197.028 38.348 197.028 37.772C197.028 37.188 197.24 36.74 197.664 36.428C198.096 36.116 198.764 35.96 199.668 35.96H200.892V35.348C200.892 34.908 200.772 34.572 200.532 34.34C200.292 34.108 199.924 33.992 199.428 33.992C199.052 33.992 198.736 34.076 198.48 34.244C198.232 34.412 198.024 34.636 197.856 34.916L197.28 34.376C197.448 34.04 197.716 33.756 198.084 33.524C198.452 33.284 198.916 33.164 199.476 33.164C200.228 33.164 200.812 33.348 201.228 33.716C201.644 34.084 201.852 34.596 201.852 35.252V38.66H202.56V39.5H202.02ZM199.26 38.828C199.5 38.828 199.72 38.8 199.92 38.744C200.12 38.688 200.292 38.608 200.436 38.504C200.58 38.4 200.692 38.28 200.772 38.144C200.852 38.008 200.892 37.86 200.892 37.7V36.68H199.62C199.068 36.68 198.664 36.76 198.408 36.92C198.16 37.08 198.036 37.312 198.036 37.616V37.868C198.036 38.172 198.144 38.408 198.36 38.576C198.584 38.744 198.884 38.828 199.26 38.828ZM206.862 31.124H209.67C210.19 31.124 210.662 31.212 211.086 31.388C211.51 31.564 211.87 31.828 212.166 32.18C212.47 32.524 212.702 32.96 212.862 33.488C213.022 34.008 213.102 34.616 213.102 35.312C213.102 36.008 213.022 36.62 212.862 37.148C212.702 37.668 212.47 38.104 212.166 38.456C211.87 38.8 211.51 39.06 211.086 39.236C210.662 39.412 210.19 39.5 209.67 39.5H206.862V31.124ZM209.67 38.612C210.014 38.612 210.33 38.556 210.618 38.444C210.906 38.324 211.154 38.152 211.362 37.928C211.57 37.704 211.73 37.432 211.842 37.112C211.962 36.784 212.022 36.412 212.022 35.996V34.628C212.022 34.212 211.962 33.844 211.842 33.524C211.73 33.196 211.57 32.92 211.362 32.696C211.154 32.472 210.906 32.304 210.618 32.192C210.33 32.072 210.014 32.012 209.67 32.012H207.87V38.612H209.67ZM217.145 39.644C216.721 39.644 216.337 39.568 215.993 39.416C215.657 39.264 215.365 39.048 215.117 38.768C214.877 38.48 214.689 38.14 214.553 37.748C214.425 37.348 214.361 36.9 214.361 36.404C214.361 35.916 214.425 35.472 214.553 35.072C214.689 34.672 214.877 34.332 215.117 34.052C215.365 33.764 215.657 33.544 215.993 33.392C216.337 33.24 216.721 33.164 217.145 33.164C217.561 33.164 217.933 33.24 218.261 33.392C218.589 33.544 218.869 33.756 219.101 34.028C219.333 34.292 219.509 34.608 219.629 34.976C219.757 35.344 219.821 35.748 219.821 36.188V36.644H215.369V36.932C215.369 37.196 215.409 37.444 215.489 37.676C215.577 37.9 215.697 38.096 215.849 38.264C216.009 38.432 216.201 38.564 216.425 38.66C216.657 38.756 216.917 38.804 217.205 38.804C217.597 38.804 217.937 38.712 218.225 38.528C218.521 38.344 218.749 38.08 218.909 37.736L219.593 38.228C219.393 38.652 219.081 38.996 218.657 39.26C218.233 39.516 217.729 39.644 217.145 39.644ZM217.145 33.968C216.881 33.968 216.641 34.016 216.425 34.112C216.209 34.2 216.021 34.328 215.861 34.496C215.709 34.664 215.589 34.864 215.501 35.096C215.413 35.32 215.369 35.568 215.369 35.84V35.924H218.789V35.792C218.789 35.24 218.637 34.8 218.333 34.472C218.037 34.136 217.641 33.968 217.145 33.968ZM222.677 39.5L220.505 33.308H221.465L222.545 36.38L223.217 38.492H223.277L223.949 36.38L225.053 33.308H225.977L223.793 39.5H222.677ZM229.45 39.644C229.026 39.644 228.642 39.568 228.298 39.416C227.962 39.264 227.67 39.048 227.422 38.768C227.182 38.48 226.994 38.14 226.858 37.748C226.73 37.348 226.666 36.9 226.666 36.404C226.666 35.916 226.73 35.472 226.858 35.072C226.994 34.672 227.182 34.332 227.422 34.052C227.67 33.764 227.962 33.544 228.298 33.392C228.642 33.24 229.026 33.164 229.45 33.164C229.866 33.164 230.238 33.24 230.566 33.392C230.894 33.544 231.174 33.756 231.406 34.028C231.638 34.292 231.814 34.608 231.934 34.976C232.062 35.344 232.126 35.748 232.126 36.188V36.644H227.674V36.932C227.674 37.196 227.714 37.444 227.794 37.676C227.882 37.9 228.002 38.096 228.154 38.264C228.314 38.432 228.506 38.564 228.73 38.66C228.962 38.756 229.222 38.804 229.51 38.804C229.902 38.804 230.242 38.712 230.53 38.528C230.826 38.344 231.054 38.08 231.214 37.736L231.898 38.228C231.698 38.652 231.386 38.996 230.962 39.26C230.538 39.516 230.034 39.644 229.45 39.644ZM229.45 33.968C229.186 33.968 228.946 34.016 228.73 34.112C228.514 34.2 228.326 34.328 228.166 34.496C228.014 34.664 227.894 34.864 227.806 35.096C227.718 35.32 227.674 35.568 227.674 35.84V35.924H231.094V35.792C231.094 35.24 230.942 34.8 230.638 34.472C230.342 34.136 229.946 33.968 229.45 33.968ZM234.728 39.5C234.392 39.5 234.136 39.408 233.96 39.224C233.792 39.032 233.708 38.792 233.708 38.504V30.62H234.668V38.66H235.58V39.5H234.728ZM239.317 39.644C238.901 39.644 238.521 39.568 238.177 39.416C237.833 39.264 237.537 39.048 237.289 38.768C237.049 38.48 236.861 38.14 236.725 37.748C236.589 37.348 236.521 36.9 236.521 36.404C236.521 35.916 236.589 35.472 236.725 35.072C236.861 34.672 237.049 34.332 237.289 34.052C237.537 33.764 237.833 33.544 238.177 33.392C238.521 33.24 238.901 33.164 239.317 33.164C239.733 33.164 240.109 33.24 240.445 33.392C240.789 33.544 241.085 33.764 241.333 34.052C241.581 34.332 241.773 34.672 241.909 35.072C242.045 35.472 242.113 35.916 242.113 36.404C242.113 36.9 242.045 37.348 241.909 37.748C241.773 38.14 241.581 38.48 241.333 38.768C241.085 39.048 240.789 39.264 240.445 39.416C240.109 39.568 239.733 39.644 239.317 39.644ZM239.317 38.792C239.837 38.792 240.261 38.632 240.589 38.312C240.917 37.992 241.081 37.504 241.081 36.848V35.96C241.081 35.304 240.917 34.816 240.589 34.496C240.261 34.176 239.837 34.016 239.317 34.016C238.797 34.016 238.373 34.176 238.045 34.496C237.717 34.816 237.553 35.304 237.553 35.96V36.848C237.553 37.504 237.717 37.992 238.045 38.312C238.373 38.632 238.797 38.792 239.317 38.792ZM243.692 33.308H244.652V34.316H244.7C244.86 33.924 245.092 33.636 245.396 33.452C245.708 33.26 246.08 33.164 246.512 33.164C246.896 33.164 247.244 33.24 247.556 33.392C247.868 33.544 248.132 33.76 248.348 34.04C248.572 34.32 248.74 34.66 248.852 35.06C248.972 35.46 249.032 35.908 249.032 36.404C249.032 36.9 248.972 37.348 248.852 37.748C248.74 38.148 248.572 38.488 248.348 38.768C248.132 39.048 247.868 39.264 247.556 39.416C247.244 39.568 246.896 39.644 246.512 39.644C245.672 39.644 245.068 39.26 244.7 38.492H244.652V41.9H243.692V33.308ZM246.248 38.78C246.792 38.78 247.22 38.612 247.532 38.276C247.844 37.932 248 37.484 248 36.932V35.876C248 35.324 247.844 34.88 247.532 34.544C247.22 34.2 246.792 34.028 246.248 34.028C246.032 34.028 245.824 34.06 245.624 34.124C245.432 34.18 245.264 34.26 245.12 34.364C244.976 34.468 244.86 34.596 244.772 34.748C244.692 34.892 244.652 35.048 244.652 35.216V37.52C244.652 37.72 244.692 37.9 244.772 38.06C244.86 38.212 244.976 38.344 245.12 38.456C245.264 38.56 245.432 38.64 245.624 38.696C245.824 38.752 246.032 38.78 246.248 38.78ZM252.981 39.644C252.557 39.644 252.173 39.568 251.829 39.416C251.493 39.264 251.201 39.048 250.953 38.768C250.713 38.48 250.525 38.14 250.389 37.748C250.261 37.348 250.197 36.9 250.197 36.404C250.197 35.916 250.261 35.472 250.389 35.072C250.525 34.672 250.713 34.332 250.953 34.052C251.201 33.764 251.493 33.544 251.829 33.392C252.173 33.24 252.557 33.164 252.981 33.164C253.397 33.164 253.769 33.24 254.097 33.392C254.425 33.544 254.705 33.756 254.937 34.028C255.169 34.292 255.345 34.608 255.465 34.976C255.593 35.344 255.657 35.748 255.657 36.188V36.644H251.205V36.932C251.205 37.196 251.245 37.444 251.325 37.676C251.413 37.9 251.533 38.096 251.685 38.264C251.845 38.432 252.037 38.564 252.261 38.66C252.493 38.756 252.753 38.804 253.041 38.804C253.433 38.804 253.773 38.712 254.061 38.528C254.357 38.344 254.585 38.08 254.745 37.736L255.429 38.228C255.229 38.652 254.917 38.996 254.493 39.26C254.069 39.516 253.565 39.644 252.981 39.644ZM252.981 33.968C252.717 33.968 252.477 34.016 252.261 34.112C252.045 34.2 251.857 34.328 251.697 34.496C251.545 34.664 251.425 34.864 251.337 35.096C251.249 35.32 251.205 35.568 251.205 35.84V35.924H254.625V35.792C254.625 35.24 254.473 34.8 254.169 34.472C253.873 34.136 253.477 33.968 252.981 33.968ZM257.239 39.5V33.308H258.199V34.448H258.259C258.371 34.152 258.571 33.888 258.859 33.656C259.147 33.424 259.543 33.308 260.047 33.308H260.419V34.268H259.855C259.335 34.268 258.927 34.368 258.631 34.568C258.343 34.76 258.199 35.004 258.199 35.3V39.5H257.239Z" fill="white" fill-opacity="0.5"/>
<mask id="mask2_388_86853" style="mask-type:alpha" maskUnits="userSpaceOnUse" x="274" y="34" width="12" height="13">
<rect x="274" y="34.5" width="12" height="12" fill="#D9D9D9"/>
</mask>
<g mask="url(#mask2_388_86853)">
<path d="M279.625 44.75V40.875H275.75V40.125H279.625V36.25H280.375V40.125H284.25V40.875H280.375V44.75H279.625Z" fill="white" fill-opacity="0.2"/>
</g>
<rect x="288.25" y="0.75" width="79.5" height="79.5" stroke="white" stroke-opacity="0.2" stroke-width="0.5"/>
<path d="M293.616 19.5V11.124H298.608V12.012H294.624V14.82H298.26V15.708H294.624V19.5H293.616ZM300.703 11.856C300.495 11.856 300.343 11.808 300.247 11.712C300.159 11.608 300.115 11.476 300.115 11.316V11.16C300.115 11 300.159 10.872 300.247 10.776C300.343 10.672 300.495 10.62 300.703 10.62C300.911 10.62 301.059 10.672 301.147 10.776C301.243 10.872 301.291 11 301.291 11.16V11.316C301.291 11.476 301.243 11.608 301.147 11.712C301.059 11.808 300.911 11.856 300.703 11.856ZM300.223 13.308H301.183V19.5H300.223V13.308ZM303.223 19.5V13.308H304.183V14.316H304.231C304.383 13.964 304.595 13.684 304.867 13.476C305.147 13.268 305.519 13.164 305.983 13.164C306.623 13.164 307.127 13.372 307.495 13.788C307.871 14.196 308.059 14.776 308.059 15.528V19.5H307.099V15.696C307.099 14.584 306.631 14.028 305.695 14.028C305.503 14.028 305.315 14.052 305.131 14.1C304.955 14.148 304.795 14.22 304.651 14.316C304.507 14.412 304.391 14.536 304.303 14.688C304.223 14.832 304.183 15.004 304.183 15.204V19.5H303.223ZM314.003 18.492H313.955C313.579 19.26 312.975 19.644 312.143 19.644C311.759 19.644 311.411 19.568 311.099 19.416C310.787 19.264 310.519 19.048 310.295 18.768C310.079 18.488 309.911 18.148 309.791 17.748C309.679 17.348 309.623 16.9 309.623 16.404C309.623 15.908 309.679 15.46 309.791 15.06C309.911 14.66 310.079 14.32 310.295 14.04C310.519 13.76 310.787 13.544 311.099 13.392C311.411 13.24 311.759 13.164 312.143 13.164C312.575 13.164 312.943 13.26 313.247 13.452C313.559 13.636 313.795 13.924 313.955 14.316H314.003V10.62H314.963V19.5H314.003V18.492ZM312.407 18.78C312.623 18.78 312.827 18.752 313.019 18.696C313.219 18.64 313.391 18.56 313.535 18.456C313.679 18.344 313.791 18.212 313.871 18.06C313.959 17.9 314.003 17.72 314.003 17.52V15.216C314.003 15.048 313.959 14.892 313.871 14.748C313.791 14.596 313.679 14.468 313.535 14.364C313.391 14.26 313.219 14.18 313.019 14.124C312.827 14.06 312.623 14.028 312.407 14.028C311.863 14.028 311.435 14.2 311.123 14.544C310.811 14.88 310.655 15.324 310.655 15.876V16.932C310.655 17.484 310.811 17.932 311.123 18.276C311.435 18.612 311.863 18.78 312.407 18.78ZM298.02 39.5C297.66 39.5 297.4 39.404 297.24 39.212C297.088 39.02 296.992 38.78 296.952 38.492H296.892C296.756 38.876 296.532 39.164 296.22 39.356C295.908 39.548 295.536 39.644 295.104 39.644C294.448 39.644 293.936 39.476 293.568 39.14C293.208 38.804 293.028 38.348 293.028 37.772C293.028 37.188 293.24 36.74 293.664 36.428C294.096 36.116 294.764 35.96 295.668 35.96H296.892V35.348C296.892 34.908 296.772 34.572 296.532 34.34C296.292 34.108 295.924 33.992 295.428 33.992C295.052 33.992 294.736 34.076 294.48 34.244C294.232 34.412 294.024 34.636 293.856 34.916L293.28 34.376C293.448 34.04 293.716 33.756 294.084 33.524C294.452 33.284 294.916 33.164 295.476 33.164C296.228 33.164 296.812 33.348 297.228 33.716C297.644 34.084 297.852 34.596 297.852 35.252V38.66H298.56V39.5H298.02ZM295.26 38.828C295.5 38.828 295.72 38.8 295.92 38.744C296.12 38.688 296.292 38.608 296.436 38.504C296.58 38.4 296.692 38.28 296.772 38.144C296.852 38.008 296.892 37.86 296.892 37.7V36.68H295.62C295.068 36.68 294.664 36.76 294.408 36.92C294.16 37.08 294.036 37.312 294.036 37.616V37.868C294.036 38.172 294.144 38.408 294.36 38.576C294.584 38.744 294.884 38.828 295.26 38.828ZM299.93 39.5V33.308H300.89V34.316H300.938C301.09 33.964 301.302 33.684 301.574 33.476C301.854 33.268 302.226 33.164 302.69 33.164C303.33 33.164 303.834 33.372 304.202 33.788C304.578 34.196 304.766 34.776 304.766 35.528V39.5H303.806V35.696C303.806 34.584 303.338 34.028 302.402 34.028C302.21 34.028 302.022 34.052 301.838 34.1C301.662 34.148 301.502 34.22 301.358 34.316C301.214 34.412 301.098 34.536 301.01 34.688C300.93 34.832 300.89 35.004 300.89 35.204V39.5H299.93ZM314.926 39.5L314.086 37.028H310.702L309.862 39.5H308.842L311.77 31.124H313.054L315.982 39.5H314.926ZM312.418 32.06H312.358L310.942 36.14H313.834L312.418 32.06ZM317.274 39.5V33.308H318.234V34.316H318.282C318.434 33.964 318.646 33.684 318.918 33.476C319.198 33.268 319.57 33.164 320.034 33.164C320.674 33.164 321.178 33.372 321.546 33.788C321.922 34.196 322.11 34.776 322.11 35.528V39.5H321.15V35.696C321.15 34.584 320.682 34.028 319.746 34.028C319.554 34.028 319.366 34.052 319.182 34.1C319.006 34.148 318.846 34.22 318.702 34.316C318.558 34.412 318.442 34.536 318.354 34.688C318.274 34.832 318.234 35.004 318.234 35.204V39.5H317.274ZM328.594 39.5C328.234 39.5 327.974 39.404 327.814 39.212C327.662 39.02 327.566 38.78 327.526 38.492H327.466C327.33 38.876 327.106 39.164 326.794 39.356C326.482 39.548 326.11 39.644 325.678 39.644C325.022 39.644 324.51 39.476 324.142 39.14C323.782 38.804 323.602 38.348 323.602 37.772C323.602 37.188 323.814 36.74 324.238 36.428C324.67 36.116 325.338 35.96 326.242 35.96H327.466V35.348C327.466 34.908 327.346 34.572 327.106 34.34C326.866 34.108 326.498 33.992 326.002 33.992C325.626 33.992 325.31 34.076 325.054 34.244C324.806 34.412 324.598 34.636 324.43 34.916L323.854 34.376C324.022 34.04 324.29 33.756 324.658 33.524C325.026 33.284 325.49 33.164 326.05 33.164C326.802 33.164 327.386 33.348 327.802 33.716C328.218 34.084 328.426 34.596 328.426 35.252V38.66H329.134V39.5H328.594ZM325.834 38.828C326.074 38.828 326.294 38.8 326.494 38.744C326.694 38.688 326.866 38.608 327.01 38.504C327.154 38.4 327.266 38.28 327.346 38.144C327.426 38.008 327.466 37.86 327.466 37.7V36.68H326.194C325.642 36.68 325.238 36.76 324.982 36.92C324.734 37.08 324.61 37.312 324.61 37.616V37.868C324.61 38.172 324.718 38.408 324.934 38.576C325.158 38.744 325.458 38.828 325.834 38.828ZM331.524 39.5C331.188 39.5 330.932 39.408 330.756 39.224C330.588 39.032 330.504 38.792 330.504 38.504V30.62H331.464V38.66H332.376V39.5H331.524ZM337.473 33.308H338.421L335.649 40.94C335.577 41.124 335.505 41.276 335.433 41.396C335.361 41.524 335.273 41.624 335.169 41.696C335.065 41.768 334.933 41.82 334.773 41.852C334.621 41.884 334.433 41.9 334.209 41.9H333.717V41.06H334.689L335.157 39.74L332.841 33.308H333.801L335.289 37.52L335.577 38.528H335.637L335.973 37.52L337.473 33.308ZM341.458 39.644C340.882 39.644 340.398 39.536 340.006 39.32C339.622 39.096 339.29 38.8 339.01 38.432L339.694 37.88C339.934 38.184 340.202 38.42 340.498 38.588C340.794 38.748 341.138 38.828 341.53 38.828C341.938 38.828 342.254 38.74 342.478 38.564C342.71 38.388 342.826 38.14 342.826 37.82C342.826 37.58 342.746 37.376 342.586 37.208C342.434 37.032 342.154 36.912 341.746 36.848L341.254 36.776C340.966 36.736 340.702 36.676 340.462 36.596C340.222 36.508 340.01 36.396 339.826 36.26C339.65 36.116 339.51 35.94 339.406 35.732C339.31 35.524 339.262 35.276 339.262 34.988C339.262 34.684 339.318 34.42 339.43 34.196C339.542 33.964 339.694 33.772 339.886 33.62C340.086 33.468 340.322 33.356 340.594 33.284C340.866 33.204 341.158 33.164 341.47 33.164C341.974 33.164 342.394 33.252 342.73 33.428C343.074 33.604 343.374 33.848 343.63 34.16L342.994 34.736C342.858 34.544 342.658 34.372 342.394 34.22C342.13 34.06 341.798 33.98 341.398 33.98C340.998 33.98 340.694 34.068 340.486 34.244C340.286 34.412 340.186 34.644 340.186 34.94C340.186 35.244 340.286 35.464 340.486 35.6C340.694 35.736 340.99 35.836 341.374 35.9L341.854 35.972C342.542 36.076 343.03 36.276 343.318 36.572C343.606 36.86 343.75 37.24 343.75 37.712C343.75 38.312 343.546 38.784 343.138 39.128C342.73 39.472 342.17 39.644 341.458 39.644ZM346.732 39.5C346.396 39.5 346.14 39.408 345.964 39.224C345.796 39.032 345.712 38.784 345.712 38.48V34.148H344.692V33.308H345.268C345.476 33.308 345.616 33.268 345.688 33.188C345.768 33.1 345.808 32.952 345.808 32.744V31.592H346.672V33.308H348.028V34.148H346.672V38.66H347.932V39.5H346.732Z" fill="white" fill-opacity="0.5"/>
<mask id="mask3_388_86853" style="mask-type:alpha" maskUnits="userSpaceOnUse" x="370" y="34" width="12" height="13">
<rect x="370" y="34.5" width="12" height="12" fill="#D9D9D9"/>
</mask>
<g mask="url(#mask3_388_86853)">
<path d="M375.625 44.75V40.875H371.75V40.125H375.625V36.25H376.375V40.125H380.25V40.875H376.375V44.75H375.625Z" fill="white" fill-opacity="0.2"/>
</g>
</svg>
