<svg width="1080" height="192" viewBox="0 0 1080 192" fill="none" xmlns="http://www.w3.org/2000/svg">
<rect x="0.5" y="16.5" width="159" height="159" stroke="white" stroke-opacity="0.2"/>
<path d="M11.1979 104V90.04H19.5179V91.52H12.8779V96.2H18.9379V97.68H12.8779V104H11.1979ZM22.0098 91.26C21.6631 91.26 21.4098 91.18 21.2498 91.02C21.1031 90.8467 21.0298 90.6267 21.0298 90.36V90.1C21.0298 89.8333 21.1031 89.62 21.2498 89.46C21.4098 89.2867 21.6631 89.2 22.0098 89.2C22.3564 89.2 22.6031 89.2867 22.7498 89.46C22.9098 89.62 22.9898 89.8333 22.9898 90.1V90.36C22.9898 90.6267 22.9098 90.8467 22.7498 91.02C22.6031 91.18 22.3564 91.26 22.0098 91.26ZM21.2098 93.68H22.8098V104H21.2098V93.68ZM25.2098 104V93.68H26.8098V95.36H26.8898C27.1431 94.7733 27.4964 94.3067 27.9498 93.96C28.4164 93.6133 29.0364 93.44 29.8098 93.44C30.8764 93.44 31.7164 93.7867 32.3298 94.48C32.9564 95.16 33.2698 96.1267 33.2698 97.38V104H31.6698V97.66C31.6698 95.8067 30.8898 94.88 29.3298 94.88C29.0098 94.88 28.6964 94.92 28.3898 95C28.0964 95.08 27.8298 95.2 27.5898 95.36C27.3498 95.52 27.1564 95.7267 27.0098 95.98C26.8764 96.22 26.8098 96.5067 26.8098 96.84V104H25.2098ZM42.177 102.32H42.097C41.4703 103.6 40.4636 104.24 39.077 104.24C38.437 104.24 37.857 104.113 37.337 103.86C36.817 103.607 36.3703 103.247 35.997 102.78C35.637 102.313 35.357 101.747 35.157 101.08C34.9703 100.413 34.877 99.6667 34.877 98.84C34.877 98.0133 34.9703 97.2667 35.157 96.6C35.357 95.9333 35.637 95.3667 35.997 94.9C36.3703 94.4333 36.817 94.0733 37.337 93.82C37.857 93.5667 38.437 93.44 39.077 93.44C39.797 93.44 40.4103 93.6 40.917 93.92C41.437 94.2267 41.8303 94.7067 42.097 95.36H42.177V89.2H43.777V104H42.177V102.32ZM39.517 102.8C39.877 102.8 40.217 102.753 40.537 102.66C40.8703 102.567 41.157 102.433 41.397 102.26C41.637 102.073 41.8236 101.853 41.957 101.6C42.1036 101.333 42.177 101.033 42.177 100.7V96.86C42.177 96.58 42.1036 96.32 41.957 96.08C41.8236 95.8267 41.637 95.6133 41.397 95.44C41.157 95.2667 40.8703 95.1333 40.537 95.04C40.217 94.9333 39.877 94.88 39.517 94.88C38.6103 94.88 37.897 95.1667 37.377 95.74C36.857 96.3 36.597 97.04 36.597 97.96V99.72C36.597 100.64 36.857 101.387 37.377 101.96C37.897 102.52 38.6103 102.8 39.517 102.8ZM57.4051 104C56.8051 104 56.3717 103.84 56.1051 103.52C55.8517 103.2 55.6917 102.8 55.6251 102.32H55.5251C55.2984 102.96 54.9251 103.44 54.4051 103.76C53.8851 104.08 53.2651 104.24 52.5451 104.24C51.4517 104.24 50.5984 103.96 49.9851 103.4C49.3851 102.84 49.0851 102.08 49.0851 101.12C49.0851 100.147 49.4384 99.4 50.1451 98.88C50.8651 98.36 51.9784 98.1 53.4851 98.1H55.5251V97.08C55.5251 96.3467 55.3251 95.7867 54.9251 95.4C54.5251 95.0133 53.9117 94.82 53.0851 94.82C52.4584 94.82 51.9317 94.96 51.5051 95.24C51.0917 95.52 50.7451 95.8933 50.4651 96.36L49.5051 95.46C49.7851 94.9 50.2317 94.4267 50.8451 94.04C51.4584 93.64 52.2317 93.44 53.1651 93.44C54.4184 93.44 55.3917 93.7467 56.0851 94.36C56.7784 94.9733 57.1251 95.8267 57.1251 96.92V102.6H58.3051V104H57.4051ZM52.8051 102.88C53.2051 102.88 53.5717 102.833 53.9051 102.74C54.2384 102.647 54.5251 102.513 54.7651 102.34C55.0051 102.167 55.1917 101.967 55.3251 101.74C55.4584 101.513 55.5251 101.267 55.5251 101V99.3H53.4051C52.4851 99.3 51.8117 99.4333 51.3851 99.7C50.9717 99.9667 50.7651 100.353 50.7651 100.86V101.28C50.7651 101.787 50.9451 102.18 51.3051 102.46C51.6784 102.74 52.1784 102.88 52.8051 102.88ZM68.3952 104.24C66.6219 104.24 65.2419 103.64 64.2552 102.44C63.2686 101.227 62.7752 99.4467 62.7752 97.1C62.7752 94.7533 63.2686 92.9533 64.2552 91.7C65.2419 90.4333 66.6219 89.8 68.3952 89.8C69.5686 89.8 70.5486 90.0667 71.3352 90.6C72.1352 91.1333 72.7552 91.8867 73.1952 92.86L71.8352 93.68C71.5552 92.96 71.1286 92.3867 70.5552 91.96C69.9819 91.52 69.2619 91.3 68.3952 91.3C67.7952 91.3 67.2552 91.4133 66.7752 91.64C66.3086 91.8667 65.9086 92.1933 65.5752 92.62C65.2552 93.0333 65.0086 93.5333 64.8352 94.12C64.6619 94.6933 64.5752 95.34 64.5752 96.06V98.14C64.5752 99.58 64.9086 100.707 65.5752 101.52C66.2419 102.333 67.1819 102.74 68.3952 102.74C69.2886 102.74 70.0352 102.513 70.6352 102.06C71.2352 101.593 71.6752 100.98 71.9552 100.22L73.2952 101.06C72.8552 102.047 72.2219 102.827 71.3952 103.4C70.5686 103.96 69.5686 104.24 68.3952 104.24ZM78.6371 104.24C77.9438 104.24 77.3104 104.113 76.7371 103.86C76.1638 103.607 75.6704 103.247 75.2571 102.78C74.8571 102.3 74.5438 101.733 74.3171 101.08C74.0904 100.413 73.9771 99.6667 73.9771 98.84C73.9771 98.0267 74.0904 97.2867 74.3171 96.62C74.5438 95.9533 74.8571 95.3867 75.2571 94.92C75.6704 94.44 76.1638 94.0733 76.7371 93.82C77.3104 93.5667 77.9438 93.44 78.6371 93.44C79.3304 93.44 79.9571 93.5667 80.5171 93.82C81.0904 94.0733 81.5838 94.44 81.9971 94.92C82.4104 95.3867 82.7304 95.9533 82.9571 96.62C83.1838 97.2867 83.2971 98.0267 83.2971 98.84C83.2971 99.6667 83.1838 100.413 82.9571 101.08C82.7304 101.733 82.4104 102.3 81.9971 102.78C81.5838 103.247 81.0904 103.607 80.5171 103.86C79.9571 104.113 79.3304 104.24 78.6371 104.24ZM78.6371 102.82C79.5038 102.82 80.2104 102.553 80.7571 102.02C81.3038 101.487 81.5771 100.673 81.5771 99.58V98.1C81.5771 97.0067 81.3038 96.1933 80.7571 95.66C80.2104 95.1267 79.5038 94.86 78.6371 94.86C77.7704 94.86 77.0638 95.1267 76.5171 95.66C75.9704 96.1933 75.6971 97.0067 75.6971 98.1V99.58C75.6971 100.673 75.9704 101.487 76.5171 102.02C77.0638 102.553 77.7704 102.82 78.6371 102.82ZM84.9285 93.68H86.5285V95.36H86.6085C86.8752 94.7067 87.2618 94.2267 87.7685 93.92C88.2885 93.6 88.9085 93.44 89.6285 93.44C90.2685 93.44 90.8485 93.5667 91.3685 93.82C91.8885 94.0733 92.3285 94.4333 92.6885 94.9C93.0618 95.3667 93.3418 95.9333 93.5285 96.6C93.7285 97.2667 93.8285 98.0133 93.8285 98.84C93.8285 99.6667 93.7285 100.413 93.5285 101.08C93.3418 101.747 93.0618 102.313 92.6885 102.78C92.3285 103.247 91.8885 103.607 91.3685 103.86C90.8485 104.113 90.2685 104.24 89.6285 104.24C88.2285 104.24 87.2218 103.6 86.6085 102.32H86.5285V108H84.9285V93.68ZM89.1885 102.8C90.0952 102.8 90.8085 102.52 91.3285 101.96C91.8485 101.387 92.1085 100.64 92.1085 99.72V97.96C92.1085 97.04 91.8485 96.3 91.3285 95.74C90.8085 95.1667 90.0952 94.88 89.1885 94.88C88.8285 94.88 88.4818 94.9333 88.1485 95.04C87.8285 95.1333 87.5485 95.2667 87.3085 95.44C87.0685 95.6133 86.8752 95.8267 86.7285 96.08C86.5952 96.32 86.5285 96.58 86.5285 96.86V100.7C86.5285 101.033 86.5952 101.333 86.7285 101.6C86.8752 101.853 87.0685 102.073 87.3085 102.26C87.5485 102.433 87.8285 102.567 88.1485 102.66C88.4818 102.753 88.8285 102.8 89.1885 102.8ZM101.792 93.68H103.372L98.7524 106.4C98.6324 106.707 98.5124 106.96 98.3924 107.16C98.2724 107.373 98.1258 107.54 97.9524 107.66C97.7791 107.78 97.5591 107.867 97.2924 107.92C97.0391 107.973 96.7258 108 96.3524 108H95.5324V106.6H97.1524L97.9324 104.4L94.0724 93.68H95.6724L98.1524 100.7L98.6324 102.38H98.7324L99.2924 100.7L101.792 93.68ZM103.333 93.68H104.893L105.993 98.14L107.093 102.66H107.133L108.393 98.14L109.693 93.68H111.113L112.453 98.14L113.733 102.66H113.773L114.833 98.14L115.953 93.68H117.453L114.713 104H112.733L111.293 99.04L110.393 95.9H110.353L109.473 99.04L108.033 104H106.093L103.333 93.68ZM118.764 104V93.68H120.364V95.58H120.464C120.651 95.0867 120.984 94.6467 121.464 94.26C121.944 93.8733 122.604 93.68 123.444 93.68H124.064V95.28H123.124C122.258 95.28 121.578 95.4467 121.084 95.78C120.604 96.1 120.364 96.5067 120.364 97V104H118.764ZM125.908 91.26C125.562 91.26 125.308 91.18 125.148 91.02C125.002 90.8467 124.928 90.6267 124.928 90.36V90.1C124.928 89.8333 125.002 89.62 125.148 89.46C125.308 89.2867 125.562 89.2 125.908 89.2C126.255 89.2 126.502 89.2867 126.648 89.46C126.808 89.62 126.888 89.8333 126.888 90.1V90.36C126.888 90.6267 126.808 90.8467 126.648 91.02C126.502 91.18 126.255 91.26 125.908 91.26ZM125.108 93.68H126.708V104H125.108V93.68ZM131.388 104C130.828 104 130.402 103.847 130.108 103.54C129.828 103.22 129.688 102.807 129.688 102.3V95.08H127.988V93.68H128.948C129.295 93.68 129.528 93.6133 129.648 93.48C129.782 93.3333 129.848 93.0867 129.848 92.74V90.82H131.288V93.68H133.548V95.08H131.288V102.6H133.388V104H131.388ZM138.922 104.24C138.215 104.24 137.575 104.113 137.002 103.86C136.442 103.607 135.955 103.247 135.542 102.78C135.142 102.3 134.828 101.733 134.602 101.08C134.388 100.413 134.282 99.6667 134.282 98.84C134.282 98.0267 134.388 97.2867 134.602 96.62C134.828 95.9533 135.142 95.3867 135.542 94.92C135.955 94.44 136.442 94.0733 137.002 93.82C137.575 93.5667 138.215 93.44 138.922 93.44C139.615 93.44 140.235 93.5667 140.782 93.82C141.328 94.0733 141.795 94.4267 142.182 94.88C142.568 95.32 142.862 95.8467 143.062 96.46C143.275 97.0733 143.382 97.7467 143.382 98.48V99.24H135.962V99.72C135.962 100.16 136.028 100.573 136.162 100.96C136.308 101.333 136.508 101.66 136.762 101.94C137.028 102.22 137.348 102.44 137.722 102.6C138.108 102.76 138.542 102.84 139.022 102.84C139.675 102.84 140.242 102.687 140.722 102.38C141.215 102.073 141.595 101.633 141.862 101.06L143.002 101.88C142.668 102.587 142.148 103.16 141.442 103.6C140.735 104.027 139.895 104.24 138.922 104.24ZM138.922 94.78C138.482 94.78 138.082 94.86 137.722 95.02C137.362 95.1667 137.048 95.38 136.782 95.66C136.528 95.94 136.328 96.2733 136.182 96.66C136.035 97.0333 135.962 97.4467 135.962 97.9V98.04H141.662V97.82C141.662 96.9 141.408 96.1667 140.902 95.62C140.408 95.06 139.748 94.78 138.922 94.78ZM145.018 104V93.68H146.618V95.58H146.718C146.905 95.0867 147.238 94.6467 147.718 94.26C148.198 93.8733 148.858 93.68 149.698 93.68H150.318V95.28H149.378C148.512 95.28 147.832 95.4467 147.338 95.78C146.858 96.1 146.618 96.5067 146.618 97V104H145.018Z" fill="white" fill-opacity="0.5"/>
<mask id="mask0_388_83901" style="mask-type:alpha" maskUnits="userSpaceOnUse" x="164" y="84" width="24" height="24">
<rect x="164" y="84" width="24" height="24" fill="#D9D9D9"/>
</mask>
<g mask="url(#mask0_388_83901)">
<path d="M175.25 104.5V96.75H167.5V95.25H175.25V87.5H176.75V95.25H184.5V96.75H176.75V104.5H175.25Z" fill="white" fill-opacity="0.2"/>
</g>
<rect x="192.5" y="16.5" width="159" height="159" stroke="white" stroke-opacity="0.2"/>
<path d="M211.524 104V90.04H219.844V91.52H213.204V96.2H219.264V97.68H213.204V104H211.524ZM222.336 91.26C221.989 91.26 221.736 91.18 221.576 91.02C221.429 90.8467 221.356 90.6267 221.356 90.36V90.1C221.356 89.8333 221.429 89.62 221.576 89.46C221.736 89.2867 221.989 89.2 222.336 89.2C222.683 89.2 222.929 89.2867 223.076 89.46C223.236 89.62 223.316 89.8333 223.316 90.1V90.36C223.316 90.6267 223.236 90.8467 223.076 91.02C222.929 91.18 222.683 91.26 222.336 91.26ZM221.536 93.68H223.136V104H221.536V93.68ZM225.536 104V93.68H227.136V95.36H227.216C227.469 94.7733 227.823 94.3067 228.276 93.96C228.743 93.6133 229.363 93.44 230.136 93.44C231.203 93.44 232.043 93.7867 232.656 94.48C233.283 95.16 233.596 96.1267 233.596 97.38V104H231.996V97.66C231.996 95.8067 231.216 94.88 229.656 94.88C229.336 94.88 229.023 94.92 228.716 95C228.423 95.08 228.156 95.2 227.916 95.36C227.676 95.52 227.483 95.7267 227.336 95.98C227.203 96.22 227.136 96.5067 227.136 96.84V104H225.536ZM242.503 102.32H242.423C241.796 103.6 240.79 104.24 239.403 104.24C238.763 104.24 238.183 104.113 237.663 103.86C237.143 103.607 236.696 103.247 236.323 102.78C235.963 102.313 235.683 101.747 235.483 101.08C235.296 100.413 235.203 99.6667 235.203 98.84C235.203 98.0133 235.296 97.2667 235.483 96.6C235.683 95.9333 235.963 95.3667 236.323 94.9C236.696 94.4333 237.143 94.0733 237.663 93.82C238.183 93.5667 238.763 93.44 239.403 93.44C240.123 93.44 240.736 93.6 241.243 93.92C241.763 94.2267 242.156 94.7067 242.423 95.36H242.503V89.2H244.103V104H242.503V102.32ZM239.843 102.8C240.203 102.8 240.543 102.753 240.863 102.66C241.196 102.567 241.483 102.433 241.723 102.26C241.963 102.073 242.15 101.853 242.283 101.6C242.43 101.333 242.503 101.033 242.503 100.7V96.86C242.503 96.58 242.43 96.32 242.283 96.08C242.15 95.8267 241.963 95.6133 241.723 95.44C241.483 95.2667 241.196 95.1333 240.863 95.04C240.543 94.9333 240.203 94.88 239.843 94.88C238.936 94.88 238.223 95.1667 237.703 95.74C237.183 96.3 236.923 97.04 236.923 97.96V99.72C236.923 100.64 237.183 101.387 237.703 101.96C238.223 102.52 238.936 102.8 239.843 102.8ZM257.731 104C257.131 104 256.698 103.84 256.431 103.52C256.178 103.2 256.018 102.8 255.951 102.32H255.851C255.625 102.96 255.251 103.44 254.731 103.76C254.211 104.08 253.591 104.24 252.871 104.24C251.778 104.24 250.925 103.96 250.311 103.4C249.711 102.84 249.411 102.08 249.411 101.12C249.411 100.147 249.765 99.4 250.471 98.88C251.191 98.36 252.305 98.1 253.811 98.1H255.851V97.08C255.851 96.3467 255.651 95.7867 255.251 95.4C254.851 95.0133 254.238 94.82 253.411 94.82C252.785 94.82 252.258 94.96 251.831 95.24C251.418 95.52 251.071 95.8933 250.791 96.36L249.831 95.46C250.111 94.9 250.558 94.4267 251.171 94.04C251.785 93.64 252.558 93.44 253.491 93.44C254.745 93.44 255.718 93.7467 256.411 94.36C257.105 94.9733 257.451 95.8267 257.451 96.92V102.6H258.631V104H257.731ZM253.131 102.88C253.531 102.88 253.898 102.833 254.231 102.74C254.565 102.647 254.851 102.513 255.091 102.34C255.331 102.167 255.518 101.967 255.651 101.74C255.785 101.513 255.851 101.267 255.851 101V99.3H253.731C252.811 99.3 252.138 99.4333 251.711 99.7C251.298 99.9667 251.091 100.353 251.091 100.86V101.28C251.091 101.787 251.271 102.18 251.631 102.46C252.005 102.74 252.505 102.88 253.131 102.88ZM263.801 90.04H268.481C269.348 90.04 270.135 90.1867 270.841 90.48C271.548 90.7733 272.148 91.2133 272.641 91.8C273.148 92.3733 273.535 93.1 273.801 93.98C274.068 94.8467 274.201 95.86 274.201 97.02C274.201 98.18 274.068 99.2 273.801 100.08C273.535 100.947 273.148 101.673 272.641 102.26C272.148 102.833 271.548 103.267 270.841 103.56C270.135 103.853 269.348 104 268.481 104H263.801V90.04ZM268.481 102.52C269.055 102.52 269.581 102.427 270.061 102.24C270.541 102.04 270.955 101.753 271.301 101.38C271.648 101.007 271.915 100.553 272.101 100.02C272.301 99.4733 272.401 98.8533 272.401 98.16V95.88C272.401 95.1867 272.301 94.5733 272.101 94.04C271.915 93.4933 271.648 93.0333 271.301 92.66C270.955 92.2867 270.541 92.0067 270.061 91.82C269.581 91.62 269.055 91.52 268.481 91.52H265.481V102.52H268.481ZM279.939 104.24C279.233 104.24 278.593 104.113 278.019 103.86C277.459 103.607 276.973 103.247 276.559 102.78C276.159 102.3 275.846 101.733 275.619 101.08C275.406 100.413 275.299 99.6667 275.299 98.84C275.299 98.0267 275.406 97.2867 275.619 96.62C275.846 95.9533 276.159 95.3867 276.559 94.92C276.973 94.44 277.459 94.0733 278.019 93.82C278.593 93.5667 279.233 93.44 279.939 93.44C280.633 93.44 281.253 93.5667 281.799 93.82C282.346 94.0733 282.813 94.4267 283.199 94.88C283.586 95.32 283.879 95.8467 284.079 96.46C284.293 97.0733 284.399 97.7467 284.399 98.48V99.24H276.979V99.72C276.979 100.16 277.046 100.573 277.179 100.96C277.326 101.333 277.526 101.66 277.779 101.94C278.046 102.22 278.366 102.44 278.739 102.6C279.126 102.76 279.559 102.84 280.039 102.84C280.693 102.84 281.259 102.687 281.739 102.38C282.233 102.073 282.613 101.633 282.879 101.06L284.019 101.88C283.686 102.587 283.166 103.16 282.459 103.6C281.753 104.027 280.913 104.24 279.939 104.24ZM279.939 94.78C279.499 94.78 279.099 94.86 278.739 95.02C278.379 95.1667 278.066 95.38 277.799 95.66C277.546 95.94 277.346 96.2733 277.199 96.66C277.053 97.0333 276.979 97.4467 276.979 97.9V98.04H282.679V97.82C282.679 96.9 282.426 96.1667 281.919 95.62C281.426 95.06 280.766 94.78 279.939 94.78ZM289.136 104.24C288.176 104.24 287.369 104.06 286.716 103.7C286.076 103.327 285.523 102.833 285.056 102.22L286.196 101.3C286.596 101.807 287.043 102.2 287.536 102.48C288.029 102.747 288.603 102.88 289.256 102.88C289.936 102.88 290.463 102.733 290.836 102.44C291.223 102.147 291.416 101.733 291.416 101.2C291.416 100.8 291.283 100.46 291.016 100.18C290.763 99.8867 290.296 99.6867 289.616 99.58L288.796 99.46C288.316 99.3933 287.876 99.2933 287.476 99.16C287.076 99.0133 286.723 98.8267 286.416 98.6C286.123 98.36 285.889 98.0667 285.716 97.72C285.556 97.3733 285.476 96.96 285.476 96.48C285.476 95.9733 285.569 95.5333 285.756 95.16C285.943 94.7733 286.196 94.4533 286.516 94.2C286.849 93.9467 287.243 93.76 287.696 93.64C288.149 93.5067 288.636 93.44 289.156 93.44C289.996 93.44 290.696 93.5867 291.256 93.88C291.829 94.1733 292.329 94.58 292.756 95.1L291.696 96.06C291.469 95.74 291.136 95.4533 290.696 95.2C290.256 94.9333 289.703 94.8 289.036 94.8C288.369 94.8 287.863 94.9467 287.516 95.24C287.183 95.52 287.016 95.9067 287.016 96.4C287.016 96.9067 287.183 97.2733 287.516 97.5C287.863 97.7267 288.356 97.8933 288.996 98L289.796 98.12C290.943 98.2933 291.756 98.6267 292.236 99.12C292.716 99.6 292.956 100.233 292.956 101.02C292.956 102.02 292.616 102.807 291.936 103.38C291.256 103.953 290.323 104.24 289.136 104.24ZM295.582 91.26C295.235 91.26 294.982 91.18 294.822 91.02C294.675 90.8467 294.602 90.6267 294.602 90.36V90.1C294.602 89.8333 294.675 89.62 294.822 89.46C294.982 89.2867 295.235 89.2 295.582 89.2C295.929 89.2 296.175 89.2867 296.322 89.46C296.482 89.62 296.562 89.8333 296.562 90.1V90.36C296.562 90.6267 296.482 90.8467 296.322 91.02C296.175 91.18 295.929 91.26 295.582 91.26ZM294.782 93.68H296.382V104H294.782V93.68ZM307.482 105.14C307.482 106.207 307.062 106.987 306.222 107.48C305.395 107.987 304.149 108.24 302.482 108.24C300.869 108.24 299.709 108.02 299.002 107.58C298.295 107.14 297.942 106.513 297.942 105.7C297.942 105.14 298.089 104.7 298.382 104.38C298.675 104.073 299.075 103.847 299.582 103.7V103.48C298.969 103.187 298.662 102.707 298.662 102.04C298.662 101.52 298.829 101.127 299.162 100.86C299.495 100.58 299.922 100.373 300.442 100.24V100.16C299.829 99.8667 299.349 99.4467 299.002 98.9C298.669 98.3533 298.502 97.72 298.502 97C298.502 96.48 298.595 96 298.782 95.56C298.969 95.12 299.229 94.7467 299.562 94.44C299.909 94.12 300.315 93.8733 300.782 93.7C301.262 93.5267 301.795 93.44 302.382 93.44C303.115 93.44 303.769 93.5733 304.342 93.84V93.66C304.342 93.26 304.435 92.9333 304.622 92.68C304.809 92.4133 305.115 92.28 305.542 92.28H307.082V93.68H305.122V94.34C305.495 94.66 305.782 95.0467 305.982 95.5C306.195 95.94 306.302 96.44 306.302 97C306.302 97.52 306.209 98 306.022 98.44C305.835 98.88 305.569 99.26 305.222 99.58C304.889 99.8867 304.482 100.127 304.002 100.3C303.522 100.473 302.989 100.56 302.402 100.56C302.069 100.56 301.735 100.527 301.402 100.46C301.055 100.553 300.742 100.693 300.462 100.88C300.182 101.053 300.042 101.3 300.042 101.62C300.042 101.927 300.189 102.133 300.482 102.24C300.775 102.347 301.155 102.4 301.622 102.4H303.822C305.102 102.4 306.029 102.647 306.602 103.14C307.189 103.62 307.482 104.287 307.482 105.14ZM305.982 105.26C305.982 104.847 305.822 104.513 305.502 104.26C305.195 104.02 304.642 103.9 303.842 103.9H300.402C299.762 104.193 299.442 104.66 299.442 105.3C299.442 105.753 299.609 106.14 299.942 106.46C300.289 106.78 300.869 106.94 301.682 106.94H303.162C304.055 106.94 304.749 106.8 305.242 106.52C305.735 106.24 305.982 105.82 305.982 105.26ZM302.402 99.28C303.082 99.28 303.622 99.12 304.022 98.8C304.422 98.4667 304.622 97.96 304.622 97.28V96.72C304.622 96.04 304.422 95.54 304.022 95.22C303.622 94.8867 303.082 94.72 302.402 94.72C301.722 94.72 301.182 94.8867 300.782 95.22C300.382 95.54 300.182 96.04 300.182 96.72V97.28C300.182 97.96 300.382 98.4667 300.782 98.8C301.182 99.12 301.722 99.28 302.402 99.28ZM308.348 104V93.68H309.948V95.36H310.028C310.282 94.7733 310.635 94.3067 311.088 93.96C311.555 93.6133 312.175 93.44 312.948 93.44C314.015 93.44 314.855 93.7867 315.468 94.48C316.095 95.16 316.408 96.1267 316.408 97.38V104H314.808V97.66C314.808 95.8067 314.028 94.88 312.468 94.88C312.148 94.88 311.835 94.92 311.528 95C311.235 95.08 310.968 95.2 310.728 95.36C310.488 95.52 310.295 95.7267 310.148 95.98C310.015 96.22 309.948 96.5067 309.948 96.84V104H308.348ZM322.596 104.24C321.889 104.24 321.249 104.113 320.676 103.86C320.116 103.607 319.629 103.247 319.216 102.78C318.816 102.3 318.502 101.733 318.276 101.08C318.062 100.413 317.956 99.6667 317.956 98.84C317.956 98.0267 318.062 97.2867 318.276 96.62C318.502 95.9533 318.816 95.3867 319.216 94.92C319.629 94.44 320.116 94.0733 320.676 93.82C321.249 93.5667 321.889 93.44 322.596 93.44C323.289 93.44 323.909 93.5667 324.456 93.82C325.002 94.0733 325.469 94.4267 325.856 94.88C326.242 95.32 326.536 95.8467 326.736 96.46C326.949 97.0733 327.056 97.7467 327.056 98.48V99.24H319.636V99.72C319.636 100.16 319.702 100.573 319.836 100.96C319.982 101.333 320.182 101.66 320.436 101.94C320.702 102.22 321.022 102.44 321.396 102.6C321.782 102.76 322.216 102.84 322.696 102.84C323.349 102.84 323.916 102.687 324.396 102.38C324.889 102.073 325.269 101.633 325.536 101.06L326.676 101.88C326.342 102.587 325.822 103.16 325.116 103.6C324.409 104.027 323.569 104.24 322.596 104.24ZM322.596 94.78C322.156 94.78 321.756 94.86 321.396 95.02C321.036 95.1667 320.722 95.38 320.456 95.66C320.202 95.94 320.002 96.2733 319.856 96.66C319.709 97.0333 319.636 97.4467 319.636 97.9V98.04H325.336V97.82C325.336 96.9 325.082 96.1667 324.576 95.62C324.082 95.06 323.422 94.78 322.596 94.78ZM328.692 104V93.68H330.292V95.58H330.392C330.579 95.0867 330.912 94.6467 331.392 94.26C331.872 93.8733 332.532 93.68 333.372 93.68H333.992V95.28H333.052C332.186 95.28 331.506 95.4467 331.012 95.78C330.532 96.1 330.292 96.5067 330.292 97V104H328.692Z" fill="white" fill-opacity="0.5"/>
<mask id="mask1_388_83901" style="mask-type:alpha" maskUnits="userSpaceOnUse" x="356" y="84" width="24" height="24">
<rect x="356" y="84" width="24" height="24" fill="#D9D9D9"/>
</mask>
<g mask="url(#mask1_388_83901)">
<path d="M367.25 104.5V96.75H359.5V95.25H367.25V87.5H368.75V95.25H376.5V96.75H368.75V104.5H367.25Z" fill="white" fill-opacity="0.2"/>
</g>
<rect x="384.5" y="16.5" width="159" height="159" stroke="white" stroke-opacity="0.2"/>
<path d="M397.989 104V90.04H406.309V91.52H399.669V96.2H405.729V97.68H399.669V104H397.989ZM408.801 91.26C408.454 91.26 408.201 91.18 408.041 91.02C407.894 90.8467 407.821 90.6267 407.821 90.36V90.1C407.821 89.8333 407.894 89.62 408.041 89.46C408.201 89.2867 408.454 89.2 408.801 89.2C409.147 89.2 409.394 89.2867 409.541 89.46C409.701 89.62 409.781 89.8333 409.781 90.1V90.36C409.781 90.6267 409.701 90.8467 409.541 91.02C409.394 91.18 409.147 91.26 408.801 91.26ZM408.001 93.68H409.601V104H408.001V93.68ZM412.001 104V93.68H413.601V95.36H413.681C413.934 94.7733 414.287 94.3067 414.741 93.96C415.207 93.6133 415.827 93.44 416.601 93.44C417.667 93.44 418.507 93.7867 419.121 94.48C419.747 95.16 420.061 96.1267 420.061 97.38V104H418.461V97.66C418.461 95.8067 417.681 94.88 416.121 94.88C415.801 94.88 415.487 94.92 415.181 95C414.887 95.08 414.621 95.2 414.381 95.36C414.141 95.52 413.947 95.7267 413.801 95.98C413.667 96.22 413.601 96.5067 413.601 96.84V104H412.001ZM428.968 102.32H428.888C428.261 103.6 427.255 104.24 425.868 104.24C425.228 104.24 424.648 104.113 424.128 103.86C423.608 103.607 423.161 103.247 422.788 102.78C422.428 102.313 422.148 101.747 421.948 101.08C421.761 100.413 421.668 99.6667 421.668 98.84C421.668 98.0133 421.761 97.2667 421.948 96.6C422.148 95.9333 422.428 95.3667 422.788 94.9C423.161 94.4333 423.608 94.0733 424.128 93.82C424.648 93.5667 425.228 93.44 425.868 93.44C426.588 93.44 427.201 93.6 427.708 93.92C428.228 94.2267 428.621 94.7067 428.888 95.36H428.968V89.2H430.568V104H428.968V102.32ZM426.308 102.8C426.668 102.8 427.008 102.753 427.328 102.66C427.661 102.567 427.948 102.433 428.188 102.26C428.428 102.073 428.615 101.853 428.748 101.6C428.895 101.333 428.968 101.033 428.968 100.7V96.86C428.968 96.58 428.895 96.32 428.748 96.08C428.615 95.8267 428.428 95.6133 428.188 95.44C427.948 95.2667 427.661 95.1333 427.328 95.04C427.008 94.9333 426.668 94.88 426.308 94.88C425.401 94.88 424.688 95.1667 424.168 95.74C423.648 96.3 423.388 97.04 423.388 97.96V99.72C423.388 100.64 423.648 101.387 424.168 101.96C424.688 102.52 425.401 102.8 426.308 102.8ZM444.196 104C443.596 104 443.163 103.84 442.896 103.52C442.643 103.2 442.483 102.8 442.416 102.32H442.316C442.089 102.96 441.716 103.44 441.196 103.76C440.676 104.08 440.056 104.24 439.336 104.24C438.243 104.24 437.389 103.96 436.776 103.4C436.176 102.84 435.876 102.08 435.876 101.12C435.876 100.147 436.229 99.4 436.936 98.88C437.656 98.36 438.769 98.1 440.276 98.1H442.316V97.08C442.316 96.3467 442.116 95.7867 441.716 95.4C441.316 95.0133 440.703 94.82 439.876 94.82C439.249 94.82 438.723 94.96 438.296 95.24C437.883 95.52 437.536 95.8933 437.256 96.36L436.296 95.46C436.576 94.9 437.023 94.4267 437.636 94.04C438.249 93.64 439.023 93.44 439.956 93.44C441.209 93.44 442.183 93.7467 442.876 94.36C443.569 94.9733 443.916 95.8267 443.916 96.92V102.6H445.096V104H444.196ZM439.596 102.88C439.996 102.88 440.363 102.833 440.696 102.74C441.029 102.647 441.316 102.513 441.556 102.34C441.796 102.167 441.983 101.967 442.116 101.74C442.249 101.513 442.316 101.267 442.316 101V99.3H440.196C439.276 99.3 438.603 99.4333 438.176 99.7C437.763 99.9667 437.556 100.353 437.556 100.86V101.28C437.556 101.787 437.736 102.18 438.096 102.46C438.469 102.74 438.969 102.88 439.596 102.88ZM450.266 90.04H454.946C455.813 90.04 456.6 90.1867 457.306 90.48C458.013 90.7733 458.613 91.2133 459.106 91.8C459.613 92.3733 460 93.1 460.266 93.98C460.533 94.8467 460.666 95.86 460.666 97.02C460.666 98.18 460.533 99.2 460.266 100.08C460 100.947 459.613 101.673 459.106 102.26C458.613 102.833 458.013 103.267 457.306 103.56C456.6 103.853 455.813 104 454.946 104H450.266V90.04ZM454.946 102.52C455.52 102.52 456.046 102.427 456.526 102.24C457.006 102.04 457.42 101.753 457.766 101.38C458.113 101.007 458.38 100.553 458.566 100.02C458.766 99.4733 458.866 98.8533 458.866 98.16V95.88C458.866 95.1867 458.766 94.5733 458.566 94.04C458.38 93.4933 458.113 93.0333 457.766 92.66C457.42 92.2867 457.006 92.0067 456.526 91.82C456.046 91.62 455.52 91.52 454.946 91.52H451.946V102.52H454.946ZM466.404 104.24C465.698 104.24 465.058 104.113 464.484 103.86C463.924 103.607 463.438 103.247 463.024 102.78C462.624 102.3 462.311 101.733 462.084 101.08C461.871 100.413 461.764 99.6667 461.764 98.84C461.764 98.0267 461.871 97.2867 462.084 96.62C462.311 95.9533 462.624 95.3867 463.024 94.92C463.438 94.44 463.924 94.0733 464.484 93.82C465.058 93.5667 465.698 93.44 466.404 93.44C467.098 93.44 467.718 93.5667 468.264 93.82C468.811 94.0733 469.278 94.4267 469.664 94.88C470.051 95.32 470.344 95.8467 470.544 96.46C470.758 97.0733 470.864 97.7467 470.864 98.48V99.24H463.444V99.72C463.444 100.16 463.511 100.573 463.644 100.96C463.791 101.333 463.991 101.66 464.244 101.94C464.511 102.22 464.831 102.44 465.204 102.6C465.591 102.76 466.024 102.84 466.504 102.84C467.158 102.84 467.724 102.687 468.204 102.38C468.698 102.073 469.078 101.633 469.344 101.06L470.484 101.88C470.151 102.587 469.631 103.16 468.924 103.6C468.218 104.027 467.378 104.24 466.404 104.24ZM466.404 94.78C465.964 94.78 465.564 94.86 465.204 95.02C464.844 95.1667 464.531 95.38 464.264 95.66C464.011 95.94 463.811 96.2733 463.664 96.66C463.518 97.0333 463.444 97.4467 463.444 97.9V98.04H469.144V97.82C469.144 96.9 468.891 96.1667 468.384 95.62C467.891 95.06 467.231 94.78 466.404 94.78ZM474.625 104L471.005 93.68H472.605L474.405 98.8L475.525 102.32H475.625L476.745 98.8L478.585 93.68H480.125L476.485 104H474.625ZM484.912 104.24C484.205 104.24 483.565 104.113 482.992 103.86C482.432 103.607 481.945 103.247 481.532 102.78C481.132 102.3 480.819 101.733 480.592 101.08C480.379 100.413 480.272 99.6667 480.272 98.84C480.272 98.0267 480.379 97.2867 480.592 96.62C480.819 95.9533 481.132 95.3867 481.532 94.92C481.945 94.44 482.432 94.0733 482.992 93.82C483.565 93.5667 484.205 93.44 484.912 93.44C485.605 93.44 486.225 93.5667 486.772 93.82C487.319 94.0733 487.785 94.4267 488.172 94.88C488.559 95.32 488.852 95.8467 489.052 96.46C489.265 97.0733 489.372 97.7467 489.372 98.48V99.24H481.952V99.72C481.952 100.16 482.019 100.573 482.152 100.96C482.299 101.333 482.499 101.66 482.752 101.94C483.019 102.22 483.339 102.44 483.712 102.6C484.099 102.76 484.532 102.84 485.012 102.84C485.665 102.84 486.232 102.687 486.712 102.38C487.205 102.073 487.585 101.633 487.852 101.06L488.992 101.88C488.659 102.587 488.139 103.16 487.432 103.6C486.725 104.027 485.885 104.24 484.912 104.24ZM484.912 94.78C484.472 94.78 484.072 94.86 483.712 95.02C483.352 95.1667 483.039 95.38 482.772 95.66C482.519 95.94 482.319 96.2733 482.172 96.66C482.025 97.0333 481.952 97.4467 481.952 97.9V98.04H487.652V97.82C487.652 96.9 487.399 96.1667 486.892 95.62C486.399 95.06 485.739 94.78 484.912 94.78ZM492.709 104C492.149 104 491.722 103.847 491.429 103.54C491.149 103.22 491.009 102.82 491.009 102.34V89.2H492.609V102.6H494.129V104H492.709ZM499.358 104.24C498.664 104.24 498.031 104.113 497.458 103.86C496.884 103.607 496.391 103.247 495.978 102.78C495.578 102.3 495.264 101.733 495.038 101.08C494.811 100.413 494.698 99.6667 494.698 98.84C494.698 98.0267 494.811 97.2867 495.038 96.62C495.264 95.9533 495.578 95.3867 495.978 94.92C496.391 94.44 496.884 94.0733 497.458 93.82C498.031 93.5667 498.664 93.44 499.358 93.44C500.051 93.44 500.678 93.5667 501.238 93.82C501.811 94.0733 502.304 94.44 502.718 94.92C503.131 95.3867 503.451 95.9533 503.678 96.62C503.904 97.2867 504.018 98.0267 504.018 98.84C504.018 99.6667 503.904 100.413 503.678 101.08C503.451 101.733 503.131 102.3 502.718 102.78C502.304 103.247 501.811 103.607 501.238 103.86C500.678 104.113 500.051 104.24 499.358 104.24ZM499.358 102.82C500.224 102.82 500.931 102.553 501.478 102.02C502.024 101.487 502.298 100.673 502.298 99.58V98.1C502.298 97.0067 502.024 96.1933 501.478 95.66C500.931 95.1267 500.224 94.86 499.358 94.86C498.491 94.86 497.784 95.1267 497.238 95.66C496.691 96.1933 496.418 97.0067 496.418 98.1V99.58C496.418 100.673 496.691 101.487 497.238 102.02C497.784 102.553 498.491 102.82 499.358 102.82ZM505.649 93.68H507.249V95.36H507.329C507.596 94.7067 507.983 94.2267 508.489 93.92C509.009 93.6 509.629 93.44 510.349 93.44C510.989 93.44 511.569 93.5667 512.089 93.82C512.609 94.0733 513.049 94.4333 513.409 94.9C513.783 95.3667 514.063 95.9333 514.249 96.6C514.449 97.2667 514.549 98.0133 514.549 98.84C514.549 99.6667 514.449 100.413 514.249 101.08C514.063 101.747 513.783 102.313 513.409 102.78C513.049 103.247 512.609 103.607 512.089 103.86C511.569 104.113 510.989 104.24 510.349 104.24C508.949 104.24 507.943 103.6 507.329 102.32H507.249V108H505.649V93.68ZM509.909 102.8C510.816 102.8 511.529 102.52 512.049 101.96C512.569 101.387 512.829 100.64 512.829 99.72V97.96C512.829 97.04 512.569 96.3 512.049 95.74C511.529 95.1667 510.816 94.88 509.909 94.88C509.549 94.88 509.203 94.9333 508.869 95.04C508.549 95.1333 508.269 95.2667 508.029 95.44C507.789 95.6133 507.596 95.8267 507.449 96.08C507.316 96.32 507.249 96.58 507.249 96.86V100.7C507.249 101.033 507.316 101.333 507.449 101.6C507.596 101.853 507.789 102.073 508.029 102.26C508.269 102.433 508.549 102.567 508.869 102.66C509.203 102.753 509.549 102.8 509.909 102.8ZM520.131 104.24C519.424 104.24 518.784 104.113 518.211 103.86C517.651 103.607 517.164 103.247 516.751 102.78C516.351 102.3 516.037 101.733 515.811 101.08C515.597 100.413 515.491 99.6667 515.491 98.84C515.491 98.0267 515.597 97.2867 515.811 96.62C516.037 95.9533 516.351 95.3867 516.751 94.92C517.164 94.44 517.651 94.0733 518.211 93.82C518.784 93.5667 519.424 93.44 520.131 93.44C520.824 93.44 521.444 93.5667 521.991 93.82C522.537 94.0733 523.004 94.4267 523.391 94.88C523.777 95.32 524.071 95.8467 524.271 96.46C524.484 97.0733 524.591 97.7467 524.591 98.48V99.24H517.171V99.72C517.171 100.16 517.237 100.573 517.371 100.96C517.517 101.333 517.717 101.66 517.971 101.94C518.237 102.22 518.557 102.44 518.931 102.6C519.317 102.76 519.751 102.84 520.231 102.84C520.884 102.84 521.451 102.687 521.931 102.38C522.424 102.073 522.804 101.633 523.071 101.06L524.211 101.88C523.877 102.587 523.357 103.16 522.651 103.6C521.944 104.027 521.104 104.24 520.131 104.24ZM520.131 94.78C519.691 94.78 519.291 94.86 518.931 95.02C518.571 95.1667 518.257 95.38 517.991 95.66C517.737 95.94 517.537 96.2733 517.391 96.66C517.244 97.0333 517.171 97.4467 517.171 97.9V98.04H522.871V97.82C522.871 96.9 522.617 96.1667 522.111 95.62C521.617 95.06 520.957 94.78 520.131 94.78ZM526.227 104V93.68H527.827V95.58H527.927C528.114 95.0867 528.447 94.6467 528.927 94.26C529.407 93.8733 530.067 93.68 530.907 93.68H531.527V95.28H530.587C529.721 95.28 529.041 95.4467 528.547 95.78C528.067 96.1 527.827 96.5067 527.827 97V104H526.227Z" fill="white" fill-opacity="0.5"/>
<mask id="mask2_388_83901" style="mask-type:alpha" maskUnits="userSpaceOnUse" x="548" y="84" width="24" height="24">
<rect x="548" y="84" width="24" height="24" fill="#D9D9D9"/>
</mask>
<g mask="url(#mask2_388_83901)">
<path d="M559.25 104.5V96.75H551.5V95.25H559.25V87.5H560.75V95.25H568.5V96.75H560.75V104.5H559.25Z" fill="white" fill-opacity="0.2"/>
</g>
<rect x="576.5" y="16.5" width="159" height="159" stroke="white" stroke-opacity="0.2"/>
<path d="M596.217 104V90.04H604.537V91.52H597.897V96.2H603.957V97.68H597.897V104H596.217ZM607.029 91.26C606.683 91.26 606.429 91.18 606.269 91.02C606.123 90.8467 606.049 90.6267 606.049 90.36V90.1C606.049 89.8333 606.123 89.62 606.269 89.46C606.429 89.2867 606.683 89.2 607.029 89.2C607.376 89.2 607.623 89.2867 607.769 89.46C607.929 89.62 608.009 89.8333 608.009 90.1V90.36C608.009 90.6267 607.929 90.8467 607.769 91.02C607.623 91.18 607.376 91.26 607.029 91.26ZM606.229 93.68H607.829V104H606.229V93.68ZM610.229 104V93.68H611.829V95.36H611.909C612.163 94.7733 612.516 94.3067 612.969 93.96C613.436 93.6133 614.056 93.44 614.829 93.44C615.896 93.44 616.736 93.7867 617.349 94.48C617.976 95.16 618.289 96.1267 618.289 97.38V104H616.689V97.66C616.689 95.8067 615.909 94.88 614.349 94.88C614.029 94.88 613.716 94.92 613.409 95C613.116 95.08 612.849 95.2 612.609 95.36C612.369 95.52 612.176 95.7267 612.029 95.98C611.896 96.22 611.829 96.5067 611.829 96.84V104H610.229ZM627.196 102.32H627.116C626.49 103.6 625.483 104.24 624.096 104.24C623.456 104.24 622.876 104.113 622.356 103.86C621.836 103.607 621.39 103.247 621.016 102.78C620.656 102.313 620.376 101.747 620.176 101.08C619.99 100.413 619.896 99.6667 619.896 98.84C619.896 98.0133 619.99 97.2667 620.176 96.6C620.376 95.9333 620.656 95.3667 621.016 94.9C621.39 94.4333 621.836 94.0733 622.356 93.82C622.876 93.5667 623.456 93.44 624.096 93.44C624.816 93.44 625.43 93.6 625.936 93.92C626.456 94.2267 626.85 94.7067 627.116 95.36H627.196V89.2H628.796V104H627.196V102.32ZM624.536 102.8C624.896 102.8 625.236 102.753 625.556 102.66C625.89 102.567 626.176 102.433 626.416 102.26C626.656 102.073 626.843 101.853 626.976 101.6C627.123 101.333 627.196 101.033 627.196 100.7V96.86C627.196 96.58 627.123 96.32 626.976 96.08C626.843 95.8267 626.656 95.6133 626.416 95.44C626.176 95.2667 625.89 95.1333 625.556 95.04C625.236 94.9333 624.896 94.88 624.536 94.88C623.63 94.88 622.916 95.1667 622.396 95.74C621.876 96.3 621.616 97.04 621.616 97.96V99.72C621.616 100.64 621.876 101.387 622.396 101.96C622.916 102.52 623.63 102.8 624.536 102.8ZM642.425 104C641.825 104 641.391 103.84 641.125 103.52C640.871 103.2 640.711 102.8 640.645 102.32H640.545C640.318 102.96 639.945 103.44 639.425 103.76C638.905 104.08 638.285 104.24 637.565 104.24C636.471 104.24 635.618 103.96 635.005 103.4C634.405 102.84 634.105 102.08 634.105 101.12C634.105 100.147 634.458 99.4 635.165 98.88C635.885 98.36 636.998 98.1 638.505 98.1H640.545V97.08C640.545 96.3467 640.345 95.7867 639.945 95.4C639.545 95.0133 638.931 94.82 638.105 94.82C637.478 94.82 636.951 94.96 636.525 95.24C636.111 95.52 635.765 95.8933 635.485 96.36L634.525 95.46C634.805 94.9 635.251 94.4267 635.865 94.04C636.478 93.64 637.251 93.44 638.185 93.44C639.438 93.44 640.411 93.7467 641.105 94.36C641.798 94.9733 642.145 95.8267 642.145 96.92V102.6H643.325V104H642.425ZM637.825 102.88C638.225 102.88 638.591 102.833 638.925 102.74C639.258 102.647 639.545 102.513 639.785 102.34C640.025 102.167 640.211 101.967 640.345 101.74C640.478 101.513 640.545 101.267 640.545 101V99.3H638.425C637.505 99.3 636.831 99.4333 636.405 99.7C635.991 99.9667 635.785 100.353 635.785 100.86V101.28C635.785 101.787 635.965 102.18 636.325 102.46C636.698 102.74 637.198 102.88 637.825 102.88ZM644.608 104V93.68H646.208V95.36H646.288C646.542 94.7733 646.895 94.3067 647.348 93.96C647.815 93.6133 648.435 93.44 649.208 93.44C650.275 93.44 651.115 93.7867 651.728 94.48C652.355 95.16 652.668 96.1267 652.668 97.38V104H651.068V97.66C651.068 95.8067 650.288 94.88 648.728 94.88C648.408 94.88 648.095 94.92 647.788 95C647.495 95.08 647.228 95.2 646.988 95.36C646.748 95.52 646.555 95.7267 646.408 95.98C646.275 96.22 646.208 96.5067 646.208 96.84V104H644.608ZM667.602 104L666.202 99.88H660.562L659.162 104H657.462L662.342 90.04H664.482L669.362 104H667.602ZM663.422 91.6H663.322L660.962 98.4H665.782L663.422 91.6ZM670.514 104V93.68H672.114V95.36H672.194C672.448 94.7733 672.801 94.3067 673.254 93.96C673.721 93.6133 674.341 93.44 675.114 93.44C676.181 93.44 677.021 93.7867 677.634 94.48C678.261 95.16 678.574 96.1267 678.574 97.38V104H676.974V97.66C676.974 95.8067 676.194 94.88 674.634 94.88C674.314 94.88 674.001 94.92 673.694 95C673.401 95.08 673.134 95.2 672.894 95.36C672.654 95.52 672.461 95.7267 672.314 95.98C672.181 96.22 672.114 96.5067 672.114 96.84V104H670.514ZM688.382 104C687.782 104 687.348 103.84 687.082 103.52C686.828 103.2 686.668 102.8 686.602 102.32H686.502C686.275 102.96 685.902 103.44 685.382 103.76C684.862 104.08 684.242 104.24 683.522 104.24C682.428 104.24 681.575 103.96 680.962 103.4C680.362 102.84 680.062 102.08 680.062 101.12C680.062 100.147 680.415 99.4 681.122 98.88C681.842 98.36 682.955 98.1 684.462 98.1H686.502V97.08C686.502 96.3467 686.302 95.7867 685.902 95.4C685.502 95.0133 684.888 94.82 684.062 94.82C683.435 94.82 682.908 94.96 682.482 95.24C682.068 95.52 681.722 95.8933 681.442 96.36L680.482 95.46C680.762 94.9 681.208 94.4267 681.822 94.04C682.435 93.64 683.208 93.44 684.142 93.44C685.395 93.44 686.368 93.7467 687.062 94.36C687.755 94.9733 688.102 95.8267 688.102 96.92V102.6H689.282V104H688.382ZM683.782 102.88C684.182 102.88 684.548 102.833 684.882 102.74C685.215 102.647 685.502 102.513 685.742 102.34C685.982 102.167 686.168 101.967 686.302 101.74C686.435 101.513 686.502 101.267 686.502 101V99.3H684.382C683.462 99.3 682.788 99.4333 682.362 99.7C681.948 99.9667 681.742 100.353 681.742 100.86V101.28C681.742 101.787 681.922 102.18 682.282 102.46C682.655 102.74 683.155 102.88 683.782 102.88ZM692.265 104C691.705 104 691.279 103.847 690.985 103.54C690.705 103.22 690.565 102.82 690.565 102.34V89.2H692.165V102.6H693.685V104H692.265ZM701.179 93.68H702.759L698.139 106.4C698.019 106.707 697.899 106.96 697.779 107.16C697.659 107.373 697.512 107.54 697.339 107.66C697.166 107.78 696.946 107.867 696.679 107.92C696.426 107.973 696.112 108 695.739 108H694.919V106.6H696.539L697.319 104.4L693.459 93.68H695.059L697.539 100.7L698.019 102.38H698.119L698.679 100.7L701.179 93.68ZM706.821 104.24C705.861 104.24 705.055 104.06 704.401 103.7C703.761 103.327 703.208 102.833 702.741 102.22L703.881 101.3C704.281 101.807 704.728 102.2 705.221 102.48C705.715 102.747 706.288 102.88 706.941 102.88C707.621 102.88 708.148 102.733 708.521 102.44C708.908 102.147 709.101 101.733 709.101 101.2C709.101 100.8 708.968 100.46 708.701 100.18C708.448 99.8867 707.981 99.6867 707.301 99.58L706.481 99.46C706.001 99.3933 705.561 99.2933 705.161 99.16C704.761 99.0133 704.408 98.8267 704.101 98.6C703.808 98.36 703.575 98.0667 703.401 97.72C703.241 97.3733 703.161 96.96 703.161 96.48C703.161 95.9733 703.255 95.5333 703.441 95.16C703.628 94.7733 703.881 94.4533 704.201 94.2C704.535 93.9467 704.928 93.76 705.381 93.64C705.835 93.5067 706.321 93.44 706.841 93.44C707.681 93.44 708.381 93.5867 708.941 93.88C709.515 94.1733 710.015 94.58 710.441 95.1L709.381 96.06C709.155 95.74 708.821 95.4533 708.381 95.2C707.941 94.9333 707.388 94.8 706.721 94.8C706.055 94.8 705.548 94.9467 705.201 95.24C704.868 95.52 704.701 95.9067 704.701 96.4C704.701 96.9067 704.868 97.2733 705.201 97.5C705.548 97.7267 706.041 97.8933 706.681 98L707.481 98.12C708.628 98.2933 709.441 98.6267 709.921 99.12C710.401 99.6 710.641 100.233 710.641 101.02C710.641 102.02 710.301 102.807 709.621 103.38C708.941 103.953 708.008 104.24 706.821 104.24ZM714.611 104C714.051 104 713.624 103.847 713.331 103.54C713.051 103.22 712.911 102.807 712.911 102.3V95.08H711.211V93.68H712.171C712.518 93.68 712.751 93.6133 712.871 93.48C713.004 93.3333 713.071 93.0867 713.071 92.74V90.82H714.511V93.68H716.771V95.08H714.511V102.6H716.611V104H714.611Z" fill="white" fill-opacity="0.5"/>
<mask id="mask3_388_83901" style="mask-type:alpha" maskUnits="userSpaceOnUse" x="740" y="84" width="24" height="24">
<rect x="740" y="84" width="24" height="24" fill="#D9D9D9"/>
</mask>
<g mask="url(#mask3_388_83901)">
<path d="M751.25 104.5V96.75H743.5V95.25H751.25V87.5H752.75V95.25H760.5V96.75H752.75V104.5H751.25Z" fill="white" fill-opacity="0.2"/>
</g>
<rect x="768.5" y="16.5" width="159" height="159" stroke="white" stroke-opacity="0.2"/>
<path d="M788.217 104V90.04H796.537V91.52H789.897V96.2H795.957V97.68H789.897V104H788.217ZM799.029 91.26C798.683 91.26 798.429 91.18 798.269 91.02C798.123 90.8467 798.049 90.6267 798.049 90.36V90.1C798.049 89.8333 798.123 89.62 798.269 89.46C798.429 89.2867 798.683 89.2 799.029 89.2C799.376 89.2 799.623 89.2867 799.769 89.46C799.929 89.62 800.009 89.8333 800.009 90.1V90.36C800.009 90.6267 799.929 90.8467 799.769 91.02C799.623 91.18 799.376 91.26 799.029 91.26ZM798.229 93.68H799.829V104H798.229V93.68ZM802.229 104V93.68H803.829V95.36H803.909C804.163 94.7733 804.516 94.3067 804.969 93.96C805.436 93.6133 806.056 93.44 806.829 93.44C807.896 93.44 808.736 93.7867 809.349 94.48C809.976 95.16 810.289 96.1267 810.289 97.38V104H808.689V97.66C808.689 95.8067 807.909 94.88 806.349 94.88C806.029 94.88 805.716 94.92 805.409 95C805.116 95.08 804.849 95.2 804.609 95.36C804.369 95.52 804.176 95.7267 804.029 95.98C803.896 96.22 803.829 96.5067 803.829 96.84V104H802.229ZM819.196 102.32H819.116C818.49 103.6 817.483 104.24 816.096 104.24C815.456 104.24 814.876 104.113 814.356 103.86C813.836 103.607 813.39 103.247 813.016 102.78C812.656 102.313 812.376 101.747 812.176 101.08C811.99 100.413 811.896 99.6667 811.896 98.84C811.896 98.0133 811.99 97.2667 812.176 96.6C812.376 95.9333 812.656 95.3667 813.016 94.9C813.39 94.4333 813.836 94.0733 814.356 93.82C814.876 93.5667 815.456 93.44 816.096 93.44C816.816 93.44 817.43 93.6 817.936 93.92C818.456 94.2267 818.85 94.7067 819.116 95.36H819.196V89.2H820.796V104H819.196V102.32ZM816.536 102.8C816.896 102.8 817.236 102.753 817.556 102.66C817.89 102.567 818.176 102.433 818.416 102.26C818.656 102.073 818.843 101.853 818.976 101.6C819.123 101.333 819.196 101.033 819.196 100.7V96.86C819.196 96.58 819.123 96.32 818.976 96.08C818.843 95.8267 818.656 95.6133 818.416 95.44C818.176 95.2667 817.89 95.1333 817.556 95.04C817.236 94.9333 816.896 94.88 816.536 94.88C815.63 94.88 814.916 95.1667 814.396 95.74C813.876 96.3 813.616 97.04 813.616 97.96V99.72C813.616 100.64 813.876 101.387 814.396 101.96C814.916 102.52 815.63 102.8 816.536 102.8ZM834.425 104C833.825 104 833.391 103.84 833.125 103.52C832.871 103.2 832.711 102.8 832.645 102.32H832.545C832.318 102.96 831.945 103.44 831.425 103.76C830.905 104.08 830.285 104.24 829.565 104.24C828.471 104.24 827.618 103.96 827.005 103.4C826.405 102.84 826.105 102.08 826.105 101.12C826.105 100.147 826.458 99.4 827.165 98.88C827.885 98.36 828.998 98.1 830.505 98.1H832.545V97.08C832.545 96.3467 832.345 95.7867 831.945 95.4C831.545 95.0133 830.931 94.82 830.105 94.82C829.478 94.82 828.951 94.96 828.525 95.24C828.111 95.52 827.765 95.8933 827.485 96.36L826.525 95.46C826.805 94.9 827.251 94.4267 827.865 94.04C828.478 93.64 829.251 93.44 830.185 93.44C831.438 93.44 832.411 93.7467 833.105 94.36C833.798 94.9733 834.145 95.8267 834.145 96.92V102.6H835.325V104H834.425ZM829.825 102.88C830.225 102.88 830.591 102.833 830.925 102.74C831.258 102.647 831.545 102.513 831.785 102.34C832.025 102.167 832.211 101.967 832.345 101.74C832.478 101.513 832.545 101.267 832.545 101V99.3H830.425C829.505 99.3 828.831 99.4333 828.405 99.7C827.991 99.9667 827.785 100.353 827.785 100.86V101.28C827.785 101.787 827.965 102.18 828.325 102.46C828.698 102.74 829.198 102.88 829.825 102.88ZM836.608 104V93.68H838.208V95.36H838.288C838.542 94.7733 838.895 94.3067 839.348 93.96C839.815 93.6133 840.435 93.44 841.208 93.44C842.275 93.44 843.115 93.7867 843.728 94.48C844.355 95.16 844.668 96.1267 844.668 97.38V104H843.068V97.66C843.068 95.8067 842.288 94.88 840.728 94.88C840.408 94.88 840.095 94.92 839.788 95C839.495 95.08 839.228 95.2 838.988 95.36C838.748 95.52 838.555 95.7267 838.408 95.98C838.275 96.22 838.208 96.5067 838.208 96.84V104H836.608ZM859.602 104L858.202 99.88H852.562L851.162 104H849.462L854.342 90.04H856.482L861.362 104H859.602ZM855.422 91.6H855.322L852.962 98.4H857.782L855.422 91.6ZM862.514 104V93.68H864.114V95.36H864.194C864.448 94.7733 864.801 94.3067 865.254 93.96C865.721 93.6133 866.341 93.44 867.114 93.44C868.181 93.44 869.021 93.7867 869.634 94.48C870.261 95.16 870.574 96.1267 870.574 97.38V104H868.974V97.66C868.974 95.8067 868.194 94.88 866.634 94.88C866.314 94.88 866.001 94.92 865.694 95C865.401 95.08 865.134 95.2 864.894 95.36C864.654 95.52 864.461 95.7267 864.314 95.98C864.181 96.22 864.114 96.5067 864.114 96.84V104H862.514ZM880.382 104C879.782 104 879.348 103.84 879.082 103.52C878.828 103.2 878.668 102.8 878.602 102.32H878.502C878.275 102.96 877.902 103.44 877.382 103.76C876.862 104.08 876.242 104.24 875.522 104.24C874.428 104.24 873.575 103.96 872.962 103.4C872.362 102.84 872.062 102.08 872.062 101.12C872.062 100.147 872.415 99.4 873.122 98.88C873.842 98.36 874.955 98.1 876.462 98.1H878.502V97.08C878.502 96.3467 878.302 95.7867 877.902 95.4C877.502 95.0133 876.888 94.82 876.062 94.82C875.435 94.82 874.908 94.96 874.482 95.24C874.068 95.52 873.722 95.8933 873.442 96.36L872.482 95.46C872.762 94.9 873.208 94.4267 873.822 94.04C874.435 93.64 875.208 93.44 876.142 93.44C877.395 93.44 878.368 93.7467 879.062 94.36C879.755 94.9733 880.102 95.8267 880.102 96.92V102.6H881.282V104H880.382ZM875.782 102.88C876.182 102.88 876.548 102.833 876.882 102.74C877.215 102.647 877.502 102.513 877.742 102.34C877.982 102.167 878.168 101.967 878.302 101.74C878.435 101.513 878.502 101.267 878.502 101V99.3H876.382C875.462 99.3 874.788 99.4333 874.362 99.7C873.948 99.9667 873.742 100.353 873.742 100.86V101.28C873.742 101.787 873.922 102.18 874.282 102.46C874.655 102.74 875.155 102.88 875.782 102.88ZM884.265 104C883.705 104 883.279 103.847 882.985 103.54C882.705 103.22 882.565 102.82 882.565 102.34V89.2H884.165V102.6H885.685V104H884.265ZM893.179 93.68H894.759L890.139 106.4C890.019 106.707 889.899 106.96 889.779 107.16C889.659 107.373 889.512 107.54 889.339 107.66C889.166 107.78 888.946 107.867 888.679 107.92C888.426 107.973 888.112 108 887.739 108H886.919V106.6H888.539L889.319 104.4L885.459 93.68H887.059L889.539 100.7L890.019 102.38H890.119L890.679 100.7L893.179 93.68ZM898.821 104.24C897.861 104.24 897.055 104.06 896.401 103.7C895.761 103.327 895.208 102.833 894.741 102.22L895.881 101.3C896.281 101.807 896.728 102.2 897.221 102.48C897.715 102.747 898.288 102.88 898.941 102.88C899.621 102.88 900.148 102.733 900.521 102.44C900.908 102.147 901.101 101.733 901.101 101.2C901.101 100.8 900.968 100.46 900.701 100.18C900.448 99.8867 899.981 99.6867 899.301 99.58L898.481 99.46C898.001 99.3933 897.561 99.2933 897.161 99.16C896.761 99.0133 896.408 98.8267 896.101 98.6C895.808 98.36 895.575 98.0667 895.401 97.72C895.241 97.3733 895.161 96.96 895.161 96.48C895.161 95.9733 895.255 95.5333 895.441 95.16C895.628 94.7733 895.881 94.4533 896.201 94.2C896.535 93.9467 896.928 93.76 897.381 93.64C897.835 93.5067 898.321 93.44 898.841 93.44C899.681 93.44 900.381 93.5867 900.941 93.88C901.515 94.1733 902.015 94.58 902.441 95.1L901.381 96.06C901.155 95.74 900.821 95.4533 900.381 95.2C899.941 94.9333 899.388 94.8 898.721 94.8C898.055 94.8 897.548 94.9467 897.201 95.24C896.868 95.52 896.701 95.9067 896.701 96.4C896.701 96.9067 896.868 97.2733 897.201 97.5C897.548 97.7267 898.041 97.8933 898.681 98L899.481 98.12C900.628 98.2933 901.441 98.6267 901.921 99.12C902.401 99.6 902.641 100.233 902.641 101.02C902.641 102.02 902.301 102.807 901.621 103.38C900.941 103.953 900.008 104.24 898.821 104.24ZM906.611 104C906.051 104 905.624 103.847 905.331 103.54C905.051 103.22 904.911 102.807 904.911 102.3V95.08H903.211V93.68H904.171C904.518 93.68 904.751 93.6133 904.871 93.48C905.004 93.3333 905.071 93.0867 905.071 92.74V90.82H906.511V93.68H908.771V95.08H906.511V102.6H908.611V104H906.611Z" fill="white" fill-opacity="0.5"/>
<mask id="mask4_388_83901" style="mask-type:alpha" maskUnits="userSpaceOnUse" x="932" y="84" width="24" height="24">
<rect x="932" y="84" width="24" height="24" fill="#D9D9D9"/>
</mask>
<g mask="url(#mask4_388_83901)">
<path d="M943.25 104.5V96.75H935.5V95.25H943.25V87.5H944.75V95.25H952.5V96.75H944.75V104.5H943.25Z" fill="white" fill-opacity="0.2"/>
</g>
<rect x="960.5" y="16.5" width="159" height="159" stroke="white" stroke-opacity="0.2"/>
<path d="M1010.31 104V90.04H1018.63V91.52H1011.99V96.2H1018.05V97.68H1011.99V104H1010.31ZM1021.12 91.26C1020.78 91.26 1020.53 91.18 1020.37 91.02C1020.22 90.8467 1020.15 90.6267 1020.15 90.36V90.1C1020.15 89.8333 1020.22 89.62 1020.37 89.46C1020.53 89.2867 1020.78 89.2 1021.12 89.2C1021.47 89.2 1021.72 89.2867 1021.87 89.46C1022.03 89.62 1022.11 89.8333 1022.11 90.1V90.36C1022.11 90.6267 1022.03 90.8467 1021.87 91.02C1021.72 91.18 1021.47 91.26 1021.12 91.26ZM1020.33 93.68H1021.93V104H1020.33V93.68ZM1024.33 104V93.68H1025.93V95.36H1026.01C1026.26 94.7733 1026.61 94.3067 1027.07 93.96C1027.53 93.6133 1028.15 93.44 1028.93 93.44C1029.99 93.44 1030.83 93.7867 1031.45 94.48C1032.07 95.16 1032.39 96.1267 1032.39 97.38V104H1030.79V97.66C1030.79 95.8067 1030.01 94.88 1028.45 94.88C1028.13 94.88 1027.81 94.92 1027.51 95C1027.21 95.08 1026.95 95.2 1026.71 95.36C1026.47 95.52 1026.27 95.7267 1026.13 95.98C1025.99 96.22 1025.93 96.5067 1025.93 96.84V104H1024.33ZM1041.29 102.32H1041.21C1040.59 103.6 1039.58 104.24 1038.19 104.24C1037.55 104.24 1036.97 104.113 1036.45 103.86C1035.93 103.607 1035.49 103.247 1035.11 102.78C1034.75 102.313 1034.47 101.747 1034.27 101.08C1034.09 100.413 1033.99 99.6667 1033.99 98.84C1033.99 98.0133 1034.09 97.2667 1034.27 96.6C1034.47 95.9333 1034.75 95.3667 1035.11 94.9C1035.49 94.4333 1035.93 94.0733 1036.45 93.82C1036.97 93.5667 1037.55 93.44 1038.19 93.44C1038.91 93.44 1039.53 93.6 1040.03 93.92C1040.55 94.2267 1040.95 94.7067 1041.21 95.36H1041.29V89.2H1042.89V104H1041.29V102.32ZM1038.63 102.8C1038.99 102.8 1039.33 102.753 1039.65 102.66C1039.99 102.567 1040.27 102.433 1040.51 102.26C1040.75 102.073 1040.94 101.853 1041.07 101.6C1041.22 101.333 1041.29 101.033 1041.29 100.7V96.86C1041.29 96.58 1041.22 96.32 1041.07 96.08C1040.94 95.8267 1040.75 95.6133 1040.51 95.44C1040.27 95.2667 1039.99 95.1333 1039.65 95.04C1039.33 94.9333 1038.99 94.88 1038.63 94.88C1037.73 94.88 1037.01 95.1667 1036.49 95.74C1035.97 96.3 1035.71 97.04 1035.71 97.96V99.72C1035.71 100.64 1035.97 101.387 1036.49 101.96C1037.01 102.52 1037.73 102.8 1038.63 102.8ZM1056.52 104C1055.92 104 1055.49 103.84 1055.22 103.52C1054.97 103.2 1054.81 102.8 1054.74 102.32H1054.64C1054.41 102.96 1054.04 103.44 1053.52 103.76C1053 104.08 1052.38 104.24 1051.66 104.24C1050.57 104.24 1049.71 103.96 1049.1 103.4C1048.5 102.84 1048.2 102.08 1048.2 101.12C1048.2 100.147 1048.55 99.4 1049.26 98.88C1049.98 98.36 1051.09 98.1 1052.6 98.1H1054.64V97.08C1054.64 96.3467 1054.44 95.7867 1054.04 95.4C1053.64 95.0133 1053.03 94.82 1052.2 94.82C1051.57 94.82 1051.05 94.96 1050.62 95.24C1050.21 95.52 1049.86 95.8933 1049.58 96.36L1048.62 95.46C1048.9 94.9 1049.35 94.4267 1049.96 94.04C1050.57 93.64 1051.35 93.44 1052.28 93.44C1053.53 93.44 1054.51 93.7467 1055.2 94.36C1055.89 94.9733 1056.24 95.8267 1056.24 96.92V102.6H1057.42V104H1056.52ZM1051.92 102.88C1052.32 102.88 1052.69 102.833 1053.02 102.74C1053.35 102.647 1053.64 102.513 1053.88 102.34C1054.12 102.167 1054.31 101.967 1054.44 101.74C1054.57 101.513 1054.64 101.267 1054.64 101V99.3H1052.52C1051.6 99.3 1050.93 99.4333 1050.5 99.7C1050.09 99.9667 1049.88 100.353 1049.88 100.86V101.28C1049.88 101.787 1050.06 102.18 1050.42 102.46C1050.79 102.74 1051.29 102.88 1051.92 102.88ZM1059.92 104.24C1059.49 104.24 1059.18 104.133 1058.98 103.92C1058.79 103.707 1058.7 103.427 1058.7 103.08V102.82C1058.7 102.473 1058.79 102.193 1058.98 101.98C1059.18 101.767 1059.49 101.66 1059.92 101.66C1060.35 101.66 1060.65 101.767 1060.84 101.98C1061.04 102.193 1061.14 102.473 1061.14 102.82V103.08C1061.14 103.427 1061.04 103.707 1060.84 103.92C1060.65 104.133 1060.35 104.24 1059.92 104.24ZM1064.37 104.24C1063.94 104.24 1063.63 104.133 1063.43 103.92C1063.24 103.707 1063.15 103.427 1063.15 103.08V102.82C1063.15 102.473 1063.24 102.193 1063.43 101.98C1063.63 101.767 1063.94 101.66 1064.37 101.66C1064.8 101.66 1065.1 101.767 1065.29 101.98C1065.49 102.193 1065.59 102.473 1065.59 102.82V103.08C1065.59 103.427 1065.49 103.707 1065.29 103.92C1065.1 104.133 1064.8 104.24 1064.37 104.24ZM1068.82 104.24C1068.39 104.24 1068.08 104.133 1067.88 103.92C1067.69 103.707 1067.6 103.427 1067.6 103.08V102.82C1067.6 102.473 1067.69 102.193 1067.88 101.98C1068.08 101.767 1068.39 101.66 1068.82 101.66C1069.24 101.66 1069.55 101.767 1069.74 101.98C1069.94 102.193 1070.04 102.473 1070.04 102.82V103.08C1070.04 103.427 1069.94 103.707 1069.74 103.92C1069.55 104.133 1069.24 104.24 1068.82 104.24Z" fill="white" fill-opacity="0.5"/>
</svg>
