<svg width="98" height="32" viewBox="0 0 98 32" fill="none" xmlns="http://www.w3.org/2000/svg">
<g id="google_logo" clip-path="url(#clip0_388_83854)">
<g id="Clip path group">
<mask id="mask0_388_83854" style="mask-type:luminance" maskUnits="userSpaceOnUse" x="0" y="0" width="98" height="32">
<g id="a">
<path id="Vector" d="M0.00390625 0.078125H97.5649V31.922H0.00390625V0.078125Z" fill="white"/>
</g>
</mask>
<g mask="url(#mask0_388_83854)">
<g id="Group">
<path id="Vector_2" fill-rule="evenodd" clip-rule="evenodd" d="M12.0193 0.078125H12.8868C15.8989 0.143686 18.8617 1.355 20.9897 3.49939C20.2039 4.30154 19.402 5.0709 18.6326 5.87286C17.4377 4.79266 15.9971 3.95773 14.4256 3.6631C12.1013 3.17198 9.5967 3.61393 7.6488 4.93998C5.5208 6.3312 4.08021 8.68847 3.76919 11.2092C3.42558 13.6974 4.12938 16.3166 5.74987 18.2481C7.30499 20.1306 9.67865 21.3091 12.1339 21.3911C14.4256 21.522 16.8156 20.818 18.4853 19.2139C19.7947 18.0844 20.4004 16.3657 20.5969 14.6961C17.8796 14.6961 15.1624 14.7123 12.4449 14.6961V11.324H23.887C24.4763 14.9415 23.6252 19.0174 20.8751 21.6038C19.0418 23.4371 16.5046 24.5175 13.9183 24.7304C11.4137 24.9759 8.82733 24.5011 6.60119 23.2898C3.93289 21.8658 1.80489 19.4594 0.757285 16.6276C-0.224764 14.0249 -0.241155 11.0783 0.675528 8.4592C1.51026 6.06934 3.11455 3.95773 5.17699 2.48456C7.15768 1.02759 9.56392 0.225442 12.0193 0.078125Z" fill="white" fill-opacity="0.5"/>
<path id="Vector_3" fill-rule="evenodd" clip-rule="evenodd" d="M77.6602 0.933594H81.1632V24.309C80.0008 24.309 78.8223 24.3252 77.6602 24.2926C77.6764 16.5172 77.6602 8.7254 77.6602 0.933594Z" fill="white" fill-opacity="0.5"/>
<path id="Vector_4" fill-rule="evenodd" clip-rule="evenodd" d="M31.6773 9.032C33.838 8.62263 36.1789 9.08097 37.9631 10.3742C39.5836 11.52 40.7132 13.3208 41.057 15.2851C41.4989 17.5604 40.9422 20.0484 39.4691 21.8492C37.8814 23.8624 35.2786 24.9428 32.7413 24.7791C30.4168 24.6482 28.1578 23.486 26.7828 21.5871C25.2279 19.4919 24.8513 16.6109 25.7024 14.1555C26.5537 11.52 28.96 9.50673 31.6773 9.032ZM32.1684 12.142C31.2845 12.3713 30.4659 12.8786 29.8767 13.599C28.2888 15.4978 28.3871 18.5916 30.1385 20.3594C31.1372 21.3744 32.6431 21.8492 34.0345 21.5707C35.3276 21.3417 36.4572 20.4741 37.0792 19.3282C38.1596 17.3803 37.8486 14.6958 36.1953 13.1735C35.1313 12.1912 33.5762 11.782 32.1684 12.142Z" fill="white" fill-opacity="0.5"/>
<path id="Vector_5" fill-rule="evenodd" clip-rule="evenodd" d="M49.0315 9.03315C51.5033 8.55842 54.2042 9.24584 56.0539 10.9811C59.066 13.6819 59.3932 18.7401 56.8233 21.8503C55.2682 23.8146 52.7474 24.895 50.2592 24.7803C47.8857 24.7149 45.5448 23.5364 44.137 21.5883C42.5493 19.4439 42.2055 16.4975 43.1058 13.993C44.0061 11.4394 46.3634 9.49149 49.0315 9.03315ZM49.5226 12.1432C48.6387 12.3725 47.8202 12.8798 47.2309 13.5838C45.6596 15.4499 45.7249 18.4946 47.411 20.2788C48.4094 21.3428 49.9646 21.8667 51.4051 21.5719C52.6818 21.3264 53.8278 20.4753 54.4498 19.3293C55.5138 17.3651 55.2028 14.6806 53.5331 13.1582C52.4691 12.176 50.914 11.7832 49.5226 12.1432Z" fill="white" fill-opacity="0.5"/>
<path id="Vector_6" fill-rule="evenodd" clip-rule="evenodd" d="M63.7469 9.983C65.6295 8.80447 68.1339 8.47705 70.1637 9.49207C70.8022 9.77032 71.3259 10.2451 71.8334 10.7198L71.8498 9.36115L75.1563 9.37734V23.8152C75.1399 25.9922 74.5834 28.3003 73.0119 29.8882C71.2931 31.6396 68.6578 32.1799 66.2841 31.8197C63.7469 31.4433 61.537 29.5935 60.5549 27.2527C61.537 26.7779 62.5684 26.4015 63.5832 25.9596C64.1561 27.3018 65.3184 28.4476 66.7752 28.7096C68.232 28.9715 69.9181 28.6113 70.8675 27.4C71.8823 26.1559 71.8823 24.4536 71.8334 22.9313C71.0804 23.6679 70.2127 24.3225 69.1651 24.5682C66.8898 25.2066 64.3854 24.4209 62.6338 22.8821C60.866 21.3434 59.8183 18.9699 59.9165 16.6127C59.9657 13.9444 61.4716 11.3744 63.7469 9.983ZM67.1354 12.0784C66.1368 12.2421 65.2037 12.7986 64.5653 13.568C63.0267 15.4013 63.0267 18.3315 64.5817 20.1321C65.4658 21.1961 66.8898 21.7853 68.2648 21.638C69.5581 21.5071 70.753 20.6886 71.3914 19.5592C72.4718 17.6439 72.2917 15.0411 70.8347 13.3715C69.9344 12.3403 68.4941 11.8328 67.1354 12.0784Z" fill="white" fill-opacity="0.5"/>
<path id="Vector_7" fill-rule="evenodd" clip-rule="evenodd" d="M85.3725 10.8164C87.3368 8.98302 90.3651 8.36097 92.8861 9.32683C95.2759 10.2271 96.7983 12.5024 97.5677 14.8433C94.0155 16.3165 90.4797 17.7733 86.9277 19.2466C87.4188 20.1797 88.1718 21.0308 89.1866 21.3746C90.6108 21.882 92.313 21.7021 93.5081 20.7526C93.9829 20.3924 94.3593 19.9177 94.7195 19.4593L97.4203 21.2599C96.1435 23.1752 93.9991 24.5175 91.6912 24.7303C89.1374 25.0414 86.4201 24.0591 84.7669 22.062C82.0496 18.9192 82.3115 13.6482 85.3725 10.8164ZM87.1241 13.8447C86.5675 14.6468 86.3384 15.6289 86.3548 16.5947C88.7282 15.6127 91.1017 14.6304 93.4754 13.632C93.0824 12.7153 92.1331 12.1586 91.1673 12.0113C89.6121 11.7331 87.9917 12.5678 87.1241 13.8447Z" fill="white" fill-opacity="0.5"/>
</g>
</g>
</g>
</g>
<defs>
<clipPath id="clip0_388_83854">
<rect width="97.561" height="32" fill="white"/>
</clipPath>
</defs>
</svg>
