<svg width="46" height="52" viewBox="0 0 46 52" fill="none" xmlns="http://www.w3.org/2000/svg">
<g id="Layer_1" clip-path="url(#clip0_388_85191)">
<path id="Vector" d="M29.7059 6.98292C29.1005 5.12758 27.9141 2.98418 26.0099 2.22984C25.3972 1.98571 24.7307 1.91004 24.074 1.90027C22.8168 0.213379 21.1152 0.162113 19.2257 0.713832C14.8559 1.98816 12.2682 7.2539 11.0232 11.2795C10.9499 11.5139 10.6472 12.7809 10.5715 12.8468L5.21059 14.5288C4.71991 14.7314 4.53681 14.8657 4.4001 15.393L0.347656 46.1428L29.7792 51.6014L31.9836 6.43853C31.2903 6.34576 30.3382 6.83156 29.7059 6.98536V6.98292ZM23.2513 4.02903C23.7518 5.54503 23.9471 7.16113 23.8714 8.76014L18.7204 10.3323C19.2916 8.12542 20.3951 5.72569 22.3578 4.43916C22.4848 4.35615 23.1537 3.94603 23.2489 4.02903H23.2513ZM13.6231 9.34848C14.768 6.60453 16.8162 3.05742 19.9215 2.29575C20.5757 2.13463 21.4643 1.99792 22.0478 2.40072C22.0942 2.45687 21.9916 2.48617 21.9575 2.50814C21.684 2.68147 21.3887 2.81818 21.1201 3.00127C18.5568 4.75163 17.3069 8.01556 16.7039 10.9499L12.6149 12.2047C12.9225 11.2453 13.2374 10.281 13.6255 9.34848H13.6231ZM22.3407 24.5183C22.0624 24.3596 21.7573 24.2302 21.4546 24.1253C19.9849 23.6077 17.7097 23.2562 16.3207 24.1155C15.5834 24.572 15.183 25.4826 15.3417 26.3443C15.5614 27.5283 18.32 29.1713 19.2843 29.9891C21.9062 32.218 22.7875 34.8106 22.0038 38.2234C20.7393 43.7308 15.2245 45.0857 10.4446 43.0155C9.2899 42.5151 8.08149 41.7266 7.29297 40.7525L8.621 36.3412C9.93927 37.2982 11.6384 38.509 13.3253 38.6067C14.9853 38.7043 15.9203 37.3494 15.454 35.7895C14.9829 34.2149 12.7174 33.0114 11.5993 31.8103C9.82941 29.9086 9.54623 27.5015 10.1394 25.031C11.0403 21.2886 14.0479 18.8083 17.7707 18.132C19.8946 17.7463 22.3334 17.7854 24.3279 18.6618L22.3359 24.5183H22.3407ZM25.6169 8.2133C25.6242 6.68021 25.485 5.14711 25.0261 3.68237C26.8106 3.95091 27.5967 5.97713 28.1289 7.47361L25.6169 8.2133Z" fill="white" fill-opacity="0.5"/>
<path id="Vector_2" d="M40.0232 10.28C39.9573 10.0798 39.8279 9.98461 39.6253 9.93823L35.4166 9.61355C34.5133 8.77864 33.6906 7.79971 32.7825 6.97701C32.658 6.86472 32.2723 6.50585 32.1575 6.46924C32.1014 6.45215 32.0428 6.43994 31.9818 6.43262L29.7773 51.5954L45.6625 48.207L40.0232 10.2776V10.28Z" fill="white" fill-opacity="0.2"/>
</g>
<defs>
<clipPath id="clip0_388_85191">
<rect width="45.3191" height="51.2" fill="white" transform="translate(0.339844 0.400391)"/>
</clipPath>
</defs>
</svg>
