<svg width="50" height="52" viewBox="0 0 50 52" fill="none" xmlns="http://www.w3.org/2000/svg">
<g id="Layer_1" clip-path="url(#clip0_388_85210)">
<path id="Vector" d="M20.9947 27.3361L29.0182 22.7084L29.0275 12.0873C29.0459 11.8751 29.1751 11.6905 29.3366 11.5567L39.2102 5.88627C39.3763 5.84013 39.5194 5.84013 39.6855 5.88627C42.8183 7.71797 46.0341 9.43433 49.1439 11.3076C49.4807 11.5106 49.8221 11.6628 49.8637 12.1104V23.2298C49.8544 23.4835 49.7114 23.6958 49.513 23.848L40.2484 29.1724V39.7151C40.2253 39.9458 40.1376 40.1672 39.9669 40.3241L20.6856 51.4389C20.3765 51.5958 20.2242 51.665 19.8782 51.5312L0.536879 40.4072C0.352325 40.301 0.232364 40.1349 0.172384 39.9319C0.0939485 28.8679 0.158543 17.79 0.130859 6.71676C0.149315 6.50914 0.236978 6.32459 0.375394 6.17233C3.66508 4.22989 6.99628 2.32898 10.3183 0.441915C10.4936 0.386549 10.6412 0.386549 10.8166 0.441915L20.5979 6.04775C20.7594 6.14003 20.9947 6.45839 20.9947 6.64294V27.3361ZM10.5582 2.1352L2.55314 6.74445L10.572 11.3537L18.5771 6.74445L10.5582 2.1352ZM31.4221 12.175C31.4036 12.2026 31.9204 12.4841 31.9665 12.5118C34.4534 13.9559 36.9541 15.3724 39.4502 16.8027L47.4506 12.1888L39.4456 7.57494L31.4267 12.175H31.4221ZM19.3937 49.418V40.1949L10.0599 34.8798C9.93531 34.7736 9.85226 34.6306 9.7969 34.4784L9.77383 12.7748L1.7411 8.12861V39.2629L19.3937 49.4134V49.418ZM19.3937 28.2773V8.12861L11.3564 12.7701V32.8773L19.3937 28.2727V28.2773ZM38.6474 18.1776L30.61 13.573V22.7315L38.6474 27.3361V18.1776ZM40.253 27.3361L48.2673 22.7176V13.573L40.253 18.1776V27.3361ZM12.1915 34.28L20.1273 38.7692L20.2104 38.7785L37.8307 28.7203L29.8118 24.1064L12.2607 34.2061L12.1915 34.28ZM38.6474 39.2675V30.109L20.9947 40.1949V49.418L38.6474 39.2675Z" fill="white" fill-opacity="0.5"/>
</g>
<defs>
<clipPath id="clip0_388_85210">
<rect width="49.7374" height="51.2" fill="white" transform="translate(0.130859 0.400391)"/>
</clipPath>
</defs>
</svg>
