<svg width="58" height="42" viewBox="0 0 58 42" fill="none" xmlns="http://www.w3.org/2000/svg">
<g id="Layer_1" clip-path="url(#clip0_388_85199)">
<path id="Vector" d="M40.2432 29.9067L41.0182 28.6103C43.2713 25.3144 46.6007 22.7838 49.0308 19.6744C50.6572 17.5888 51.59 15.5461 48.5285 14.2785C45.974 13.2213 42.6542 13.2021 39.9275 13.0873C29.3843 12.6425 13.383 14.1015 4.90634 6.68202C2.85893 4.88814 1.62475 2.49153 0.199219 0.219297C0.323594 0.128407 0.486238 0.386724 0.572344 0.47283C1.80653 1.65439 2.99287 2.81682 4.42319 3.77834C12.4884 9.203 25.8587 8.67202 35.2873 8.81553C40.9894 8.90163 48.5046 8.51416 53.9484 9.73877C55.8762 10.1693 58.5024 10.9443 57.627 13.4652C56.9908 15.2878 53.7857 18.2106 52.2932 19.5548C49.2987 22.2528 46.1127 24.7547 43.0656 27.4C42.1184 28.2228 41.2286 29.1317 40.2432 29.9114V29.9067Z" fill="white" fill-opacity="0.5"/>
<path id="Vector_2" d="M14.6047 33.3263C18.9626 32.7092 21.2922 37.9664 17.8384 40.6979C14.9969 42.9462 10.773 40.4491 11.28 36.7753C11.5001 35.1823 12.9974 33.5511 14.6047 33.3215V33.3263Z" fill="white" fill-opacity="0.5"/>
<path id="Vector_3" d="M33.4317 33.3266C38.2058 32.6712 40.0906 38.8661 36.101 41.0187C32.4224 43.0039 28.4854 38.8852 30.595 35.264C31.1404 34.3216 32.3506 33.4797 33.4317 33.3314V33.3266Z" fill="white" fill-opacity="0.5"/>
</g>
<defs>
<clipPath id="clip0_388_85199">
<rect width="57.6" height="41.3547" fill="white" transform="translate(0.199219 0.200195)"/>
</clipPath>
</defs>
</svg>
