<svg width="58" height="35" viewBox="0 0 58 35" fill="none" xmlns="http://www.w3.org/2000/svg">
<g id="Layer_1" clip-path="url(#clip0_388_85205)">
<path id="Vector" d="M52.4872 0.474609C55.4768 0.594026 57.7539 2.85059 57.7992 5.86071V23.7279C57.8033 26.5363 55.555 28.9411 52.7467 29.0934H35.6042L37.8649 34.7184L27.7556 29.0975H5.18589C2.56696 28.9246 0.40511 26.7957 0.199219 24.1809V5.41187C0.438052 2.5994 2.67814 0.58579 5.4659 0.474609H52.4831H52.4872ZM15.5051 15.5499C16.3905 18.6054 17.6052 21.7061 19.5694 24.2344C20.36 25.2515 21.8507 27.121 23.3002 26.0792C24.2555 25.3915 24.0331 24.1273 24.0125 23.1267C23.9549 20.3884 24.3296 17.44 24.762 14.7346C25.1202 12.4739 25.5814 10.0074 26.405 7.87432C26.685 7.14959 27.2656 6.2972 27.2327 5.52717C27.1544 3.71945 24.6302 2.92059 23.5925 4.45242C23.0243 5.28834 22.5219 6.68839 22.2089 7.6602C21.1836 10.8309 20.7348 14.2075 20.3683 17.51L20.0306 16.6453C19.4541 15.0311 18.9847 13.3798 18.6017 11.708C18.4041 10.835 18.2764 9.78087 18.0047 8.94907C17.4076 7.10841 15.5175 7.18665 14.6198 8.71436L9.36136 18.7248C9.33253 18.733 9.33665 18.7001 9.32841 18.6795C9.31194 18.6301 9.29959 18.5724 9.28724 18.5189C8.27425 14.4299 7.58658 10.2627 6.94832 6.09543C6.58595 3.78945 2.99522 4.32477 3.03639 6.56074C3.55112 10.0156 4.13585 13.4622 4.84411 16.88C5.29707 19.0542 5.79533 21.286 6.47477 23.3944C6.95655 24.8933 7.75953 27.4998 9.74431 25.7498C11.0455 24.605 11.9926 22.4967 12.7627 20.9607L15.5051 15.5458V15.5499ZM34.0682 6.17367C29.411 6.20661 26.928 11.7245 26.7797 15.7394C26.6644 18.9224 27.7309 22.5008 31.0828 23.522C36.7901 25.2597 40.0885 18.9801 40.2614 14.2116C40.4056 10.2421 38.602 6.14072 34.0682 6.17367ZM48.7441 6.17367C45.4952 6.19425 43.4157 8.80495 42.3162 11.5845C40.6856 15.7105 41.0068 22.542 46.294 23.662C51.919 24.8562 54.8673 18.4653 54.9373 13.8287C54.9991 9.97441 53.0678 6.14484 48.7441 6.17367Z" fill="white" fill-opacity="0.5"/>
<path id="Vector_2" d="M48.6804 10.1363C49.9322 10.0087 50.4758 11.2111 50.7682 12.224C51.427 14.5177 50.6323 18.1455 48.4663 19.4426C46.8109 20.4391 45.9585 18.9814 45.5797 17.5649C45.2009 16.1483 45.3491 14.703 45.8268 13.4017C46.2303 12.2941 47.3833 10.2681 48.6804 10.1363Z" fill="white" fill-opacity="0.5"/>
<path id="Vector_3" d="M34.003 10.1359C35.2631 10.0083 35.8149 11.2683 36.0949 12.2854C36.7167 14.542 35.9672 17.9309 33.9618 19.3187C32.1541 20.5705 31.2235 18.9728 30.8446 17.375C30.5358 16.0697 30.7005 14.542 31.1782 13.2943C31.5941 12.2072 32.7224 10.2636 34.003 10.1318V10.1359Z" fill="white" fill-opacity="0.5"/>
</g>
<defs>
<clipPath id="clip0_388_85205">
<rect width="57.6" height="34.2479" fill="white" transform="translate(0.199219 0.476562)"/>
</clipPath>
</defs>
</svg>
