<svg width="24" height="24" viewBox="0 0 24 24" fill="none" xmlns="http://www.w3.org/2000/svg">
<g id="instagram_icon">
<path id="Vector" d="M15.8186 3H8.16857C5.31429 3 3 5.31429 3 8.16857V15.8186C3 18.6857 5.31429 21 8.16857 21H15.8186C18.6729 21 21 18.6857 21 15.8186V8.16857C21 5.31429 18.6729 3 15.8186 3ZM12 16.5C9.51857 16.5 7.5 14.4814 7.5 12C7.5 9.51857 9.51857 7.5 12 7.5C14.4814 7.5 16.5 9.51857 16.5 12C16.5 14.4814 14.4814 16.5 12 16.5ZM12 8.78571C10.2257 8.78571 8.78571 10.2257 8.78571 12C8.78571 13.7743 10.2257 15.2143 12 15.2143C13.7743 15.2143 15.2143 13.7743 15.2143 12C15.2143 10.2257 13.7614 8.78571 12 8.78571Z" fill="white"/>
</g>
</svg>
