<svg width="40" height="40" viewBox="0 0 40 40" fill="none" xmlns="http://www.w3.org/2000/svg">
<path d="M7 3H24L33 12V38H7V3Z" fill="#5CE55C"/>
<path d="M15.423 26.322V31.943C15.423 32.273 15.3643 32.5737 15.247 32.845C15.137 33.1163 14.9757 33.3473 14.763 33.538C14.5577 33.7287 14.3083 33.8753 14.015 33.978C13.7217 34.0807 13.3953 34.132 13.036 34.132C12.3613 34.132 11.8223 33.9633 11.419 33.626C11.023 33.2887 10.7663 32.823 10.649 32.229L11.815 31.987C11.881 32.3023 12.0057 32.5663 12.189 32.779C12.3723 32.9917 12.6583 33.098 13.047 33.098C13.4063 33.098 13.685 32.9917 13.883 32.779C14.0883 32.559 14.191 32.2253 14.191 31.778V27.356H11.518V26.322H15.423ZM17.0797 34V26.322H19.9507C20.684 26.322 21.2414 26.5273 21.6227 26.938C22.0114 27.3487 22.2057 27.9133 22.2057 28.632C22.2057 29.3507 22.0114 29.9153 21.6227 30.326C21.2414 30.7367 20.684 30.942 19.9507 30.942H18.3117V34H17.0797ZM18.3117 29.919H19.7637C20.5264 29.919 20.9077 29.567 20.9077 28.863V28.39C20.9077 27.6933 20.5264 27.345 19.7637 27.345H18.3117V29.919ZM27.0414 32.944H26.9644C26.8984 33.098 26.8177 33.2483 26.7224 33.395C26.6344 33.5343 26.5207 33.659 26.3814 33.769C26.2494 33.879 26.0881 33.967 25.8974 34.033C25.7067 34.099 25.4867 34.132 25.2374 34.132C24.4381 34.132 23.8367 33.791 23.4334 33.109C23.0301 32.427 22.8284 31.4627 22.8284 30.216C22.8284 28.9107 23.0594 27.9133 23.5214 27.224C23.9834 26.5347 24.6911 26.19 25.6444 26.19C26.0184 26.19 26.3447 26.2413 26.6234 26.344C26.9094 26.4467 27.1514 26.586 27.3494 26.762C27.5474 26.9307 27.7124 27.1323 27.8444 27.367C27.9764 27.5943 28.0827 27.8363 28.1634 28.093L27.0524 28.467C26.9937 28.2983 26.9277 28.1407 26.8544 27.994C26.7811 27.84 26.6894 27.7043 26.5794 27.587C26.4767 27.4697 26.3484 27.378 26.1944 27.312C26.0477 27.246 25.8681 27.213 25.6554 27.213C25.1201 27.213 24.7314 27.422 24.4894 27.84C24.2547 28.2507 24.1374 28.808 24.1374 29.512V30.733C24.1374 31.085 24.1631 31.4077 24.2144 31.701C24.2657 31.9943 24.3501 32.2473 24.4674 32.46C24.5921 32.6653 24.7497 32.8267 24.9404 32.944C25.1384 33.0613 25.3767 33.12 25.6554 33.12C26.1027 33.12 26.4437 32.988 26.6784 32.724C26.9204 32.4527 27.0414 32.108 27.0414 31.69V30.997H25.5564V30.073H28.1634V34H27.0414V32.944Z" fill="white"/>
</svg>
