<svg width="375" height="81" viewBox="0 0 375 81" fill="none" xmlns="http://www.w3.org/2000/svg">
<rect y="0.5" width="80" height="80" fill="white"/>
<rect x="0.25" y="0.75" width="79.5" height="79.5" stroke="white" stroke-opacity="0.2" stroke-width="0.5"/>
<path d="M7.302 21.5V11.728H13.266V12.764H8.478V16.04H12.986V17.076H8.478V20.464H13.266V21.5H7.302ZM16.9481 21.5L14.4141 14.276H15.5341L16.7941 17.86L17.5781 20.324H17.6481L18.4321 17.86L19.7201 14.276H20.7981L18.2501 21.5H16.9481ZM24.8494 21.668C24.3547 21.668 23.9067 21.5793 23.5054 21.402C23.1134 21.2247 22.7727 20.9727 22.4834 20.646C22.2034 20.31 21.984 19.9133 21.8254 19.456C21.676 18.9893 21.6014 18.4667 21.6014 17.888C21.6014 17.3187 21.676 16.8007 21.8254 16.334C21.984 15.8673 22.2034 15.4707 22.4834 15.144C22.7727 14.808 23.1134 14.5513 23.5054 14.374C23.9067 14.1967 24.3547 14.108 24.8494 14.108C25.3347 14.108 25.7687 14.1967 26.1514 14.374C26.534 14.5513 26.8607 14.7987 27.1314 15.116C27.402 15.424 27.6074 15.7927 27.7474 16.222C27.8967 16.6513 27.9714 17.1227 27.9714 17.636V18.168H22.7774V18.504C22.7774 18.812 22.824 19.1013 22.9174 19.372C23.02 19.6333 23.16 19.862 23.3374 20.058C23.524 20.254 23.748 20.408 24.0094 20.52C24.28 20.632 24.5834 20.688 24.9194 20.688C25.3767 20.688 25.7734 20.5807 26.1094 20.366C26.4547 20.1513 26.7207 19.8433 26.9074 19.442L27.7054 20.016C27.472 20.5107 27.108 20.912 26.6134 21.22C26.1187 21.5187 25.5307 21.668 24.8494 21.668ZM24.8494 15.046C24.5414 15.046 24.2614 15.102 24.0094 15.214C23.7574 15.3167 23.538 15.466 23.3514 15.662C23.174 15.858 23.034 16.0913 22.9314 16.362C22.8287 16.6233 22.7774 16.9127 22.7774 17.23V17.328H26.7674V17.174C26.7674 16.53 26.59 16.0167 26.2354 15.634C25.89 15.242 25.428 15.046 24.8494 15.046ZM29.817 21.5V14.276H30.937V15.606H31.007C31.1376 15.2607 31.371 14.9527 31.707 14.682C32.043 14.4113 32.505 14.276 33.093 14.276H33.527V15.396H32.869C32.2623 15.396 31.7863 15.5127 31.441 15.746C31.105 15.97 30.937 16.2547 30.937 16.6V21.5H29.817ZM39.5463 14.276H40.6523L37.4183 23.18C37.3343 23.3947 37.2503 23.572 37.1663 23.712C37.0823 23.8613 36.9796 23.978 36.8583 24.062C36.737 24.146 36.583 24.2067 36.3963 24.244C36.219 24.2813 35.9996 24.3 35.7383 24.3H35.1643V23.32H36.2983L36.8443 21.78L34.1423 14.276H35.2623L36.9983 19.19L37.3343 20.366H37.4043L37.7963 19.19L39.5463 14.276ZM43.6766 21.5C43.2846 21.5 42.986 21.3927 42.7806 21.178C42.5846 20.954 42.4866 20.6647 42.4866 20.31V15.256H41.2966V14.276H41.9686C42.2113 14.276 42.3746 14.2293 42.4586 14.136C42.552 14.0333 42.5986 13.8607 42.5986 13.618V12.274H43.6066V14.276H45.1886V15.256H43.6066V20.52H45.0766V21.5H43.6766ZM46.9888 11.14H48.1088V15.452H48.1648C48.3422 15.0413 48.5895 14.7147 48.9068 14.472C49.2335 14.2293 49.6675 14.108 50.2088 14.108C50.9555 14.108 51.5435 14.3507 51.9728 14.836C52.4115 15.312 52.6308 15.9887 52.6308 16.866V21.5H51.5108V17.062C51.5108 15.7647 50.9648 15.116 49.8728 15.116C49.6488 15.116 49.4295 15.144 49.2148 15.2C49.0095 15.256 48.8228 15.34 48.6548 15.452C48.4868 15.564 48.3515 15.7087 48.2488 15.886C48.1555 16.054 48.1088 16.2547 48.1088 16.488V21.5H46.9888V11.14ZM55.5059 12.582C55.2632 12.582 55.0859 12.526 54.9739 12.414C54.8712 12.2927 54.8199 12.1387 54.8199 11.952V11.77C54.8199 11.5833 54.8712 11.434 54.9739 11.322C55.0859 11.2007 55.2632 11.14 55.5059 11.14C55.7485 11.14 55.9212 11.2007 56.0239 11.322C56.1359 11.434 56.1919 11.5833 56.1919 11.77V11.952C56.1919 12.1387 56.1359 12.2927 56.0239 12.414C55.9212 12.526 55.7485 12.582 55.5059 12.582ZM54.9459 14.276H56.0659V21.5H54.9459V14.276ZM58.4459 21.5V14.276H59.5659V15.452H59.6219C59.7992 15.0413 60.0465 14.7147 60.3639 14.472C60.6905 14.2293 61.1245 14.108 61.6659 14.108C62.4125 14.108 63.0005 14.3507 63.4299 14.836C63.8685 15.312 64.0879 15.9887 64.0879 16.866V21.5H62.9679V17.062C62.9679 15.7647 62.4219 15.116 61.3299 15.116C61.1059 15.116 60.8865 15.144 60.6719 15.2C60.4665 15.256 60.2799 15.34 60.1119 15.452C59.9439 15.564 59.8085 15.7087 59.7059 15.886C59.6125 16.054 59.5659 16.2547 59.5659 16.488V21.5H58.4459ZM72.4929 22.298C72.4929 23.0447 72.1989 23.5907 71.6109 23.936C71.0322 24.2907 70.1596 24.468 68.9929 24.468C67.8636 24.468 67.0516 24.314 66.5569 24.006C66.0622 23.698 65.8149 23.2593 65.8149 22.69C65.8149 22.298 65.9176 21.99 66.1229 21.766C66.3282 21.5513 66.6082 21.3927 66.9629 21.29V21.136C66.5336 20.9307 66.3189 20.5947 66.3189 20.128C66.3189 19.764 66.4356 19.4887 66.6689 19.302C66.9022 19.106 67.2009 18.9613 67.5649 18.868V18.812C67.1356 18.6067 66.7996 18.3127 66.5569 17.93C66.3236 17.5473 66.2069 17.104 66.2069 16.6C66.2069 16.236 66.2722 15.9 66.4029 15.592C66.5336 15.284 66.7156 15.0227 66.9489 14.808C67.1916 14.584 67.4762 14.4113 67.8029 14.29C68.1389 14.1687 68.5122 14.108 68.9229 14.108C69.4362 14.108 69.8936 14.2013 70.2949 14.388V14.262C70.2949 13.982 70.3602 13.7533 70.4909 13.576C70.6216 13.3893 70.8362 13.296 71.1349 13.296H72.2129V14.276H70.8409V14.738C71.1022 14.962 71.3029 15.2327 71.4429 15.55C71.5922 15.858 71.6669 16.208 71.6669 16.6C71.6669 16.964 71.6016 17.3 71.4709 17.608C71.3402 17.916 71.1536 18.182 70.9109 18.406C70.6776 18.6207 70.3929 18.7887 70.0569 18.91C69.7209 19.0313 69.3476 19.092 68.9369 19.092C68.7036 19.092 68.4702 19.0687 68.2369 19.022C67.9942 19.0873 67.7749 19.1853 67.5789 19.316C67.3829 19.4373 67.2849 19.61 67.2849 19.834C67.2849 20.0487 67.3876 20.1933 67.5929 20.268C67.7982 20.3427 68.0642 20.38 68.3909 20.38H69.9309C70.8269 20.38 71.4756 20.5527 71.8769 20.898C72.2876 21.234 72.4929 21.7007 72.4929 22.298ZM71.4429 22.382C71.4429 22.0927 71.3309 21.8593 71.1069 21.682C70.8922 21.514 70.5049 21.43 69.9449 21.43H67.5369C67.0889 21.6353 66.8649 21.962 66.8649 22.41C66.8649 22.7273 66.9816 22.998 67.2149 23.222C67.4576 23.446 67.8636 23.558 68.4329 23.558H69.4689C70.0942 23.558 70.5796 23.46 70.9249 23.264C71.2702 23.068 71.4429 22.774 71.4429 22.382ZM68.9369 18.196C69.4129 18.196 69.7909 18.084 70.0709 17.86C70.3509 17.6267 70.4909 17.272 70.4909 16.796V16.404C70.4909 15.928 70.3509 15.578 70.0709 15.354C69.7909 15.1207 69.4129 15.004 68.9369 15.004C68.4609 15.004 68.0829 15.1207 67.8029 15.354C67.5229 15.578 67.3829 15.928 67.3829 16.404V16.796C67.3829 17.272 67.5229 17.6267 67.8029 17.86C68.0829 18.084 68.4609 18.196 68.9369 18.196ZM12.44 41.5C12.02 41.5 11.7167 41.388 11.53 41.164C11.3527 40.94 11.2407 40.66 11.194 40.324H11.124C10.9653 40.772 10.704 41.108 10.34 41.332C9.976 41.556 9.542 41.668 9.038 41.668C8.27267 41.668 7.67533 41.472 7.246 41.08C6.826 40.688 6.616 40.156 6.616 39.484C6.616 38.8027 6.86333 38.28 7.358 37.916C7.862 37.552 8.64133 37.37 9.696 37.37H11.124V36.656C11.124 36.1427 10.984 35.7507 10.704 35.48C10.424 35.2093 9.99467 35.074 9.416 35.074C8.97733 35.074 8.60867 35.172 8.31 35.368C8.02067 35.564 7.778 35.8253 7.582 36.152L6.91 35.522C7.106 35.13 7.41867 34.7987 7.848 34.528C8.27733 34.248 8.81867 34.108 9.472 34.108C10.3493 34.108 11.0307 34.3227 11.516 34.752C12.0013 35.1813 12.244 35.7787 12.244 36.544V40.52H13.07V41.5H12.44ZM9.22 40.716C9.5 40.716 9.75667 40.6833 9.99 40.618C10.2233 40.5527 10.424 40.4593 10.592 40.338C10.76 40.2167 10.8907 40.0767 10.984 39.918C11.0773 39.7593 11.124 39.5867 11.124 39.4V38.21H9.64C8.996 38.21 8.52467 38.3033 8.226 38.49C7.93667 38.6767 7.792 38.9473 7.792 39.302V39.596C7.792 39.9507 7.918 40.226 8.17 40.422C8.43133 40.618 8.78133 40.716 9.22 40.716ZM16.2645 41.5C15.8725 41.5 15.5738 41.3927 15.3685 41.178C15.1725 40.954 15.0745 40.6647 15.0745 40.31V35.256H13.8845V34.276H14.5565C14.7992 34.276 14.9625 34.2293 15.0465 34.136C15.1398 34.0333 15.1865 33.8607 15.1865 33.618V32.274H16.1945V34.276H17.7765V35.256H16.1945V40.52H17.6645V41.5H16.2645ZM25.6153 41.668C25.13 41.668 24.6866 41.5793 24.2853 41.402C23.884 41.2247 23.5386 40.9727 23.2493 40.646C22.9693 40.31 22.75 39.9133 22.5913 39.456C22.4326 38.9893 22.3533 38.4667 22.3533 37.888C22.3533 37.3187 22.4326 36.8007 22.5913 36.334C22.75 35.8673 22.9693 35.4707 23.2493 35.144C23.5386 34.808 23.884 34.5513 24.2853 34.374C24.6866 34.1967 25.13 34.108 25.6153 34.108C26.1006 34.108 26.5393 34.1967 26.9313 34.374C27.3326 34.5513 27.678 34.808 27.9673 35.144C28.2566 35.4707 28.4806 35.8673 28.6393 36.334C28.798 36.8007 28.8773 37.3187 28.8773 37.888C28.8773 38.4667 28.798 38.9893 28.6393 39.456C28.4806 39.9133 28.2566 40.31 27.9673 40.646C27.678 40.9727 27.3326 41.2247 26.9313 41.402C26.5393 41.5793 26.1006 41.668 25.6153 41.668ZM25.6153 40.674C26.222 40.674 26.7166 40.4873 27.0993 40.114C27.482 39.7407 27.6733 39.1713 27.6733 38.406V37.37C27.6733 36.6047 27.482 36.0353 27.0993 35.662C26.7166 35.2887 26.222 35.102 25.6153 35.102C25.0086 35.102 24.514 35.2887 24.1313 35.662C23.7486 36.0353 23.5573 36.6047 23.5573 37.37V38.406C23.5573 39.1713 23.7486 39.7407 24.1313 40.114C24.514 40.4873 25.0086 40.674 25.6153 40.674ZM30.7193 41.5V34.276H31.8393V35.452H31.8953C32.0726 35.0413 32.32 34.7147 32.6373 34.472C32.964 34.2293 33.398 34.108 33.9393 34.108C34.686 34.108 35.274 34.3507 35.7033 34.836C36.142 35.312 36.3613 35.9887 36.3613 36.866V41.5H35.2413V37.062C35.2413 35.7647 34.6953 35.116 33.6033 35.116C33.3793 35.116 33.16 35.144 32.9453 35.2C32.74 35.256 32.5533 35.34 32.3853 35.452C32.2173 35.564 32.082 35.7087 31.9793 35.886C31.886 36.054 31.8393 36.2547 31.8393 36.488V41.5H30.7193ZM41.3643 41.668C40.8603 41.668 40.4077 41.5793 40.0063 41.402C39.605 41.2247 39.2643 40.9727 38.9843 40.646C38.7137 40.3193 38.5037 39.9227 38.3543 39.456C38.2143 38.9893 38.1443 38.4667 38.1443 37.888C38.1443 37.3093 38.2143 36.7867 38.3543 36.32C38.5037 35.8533 38.7137 35.4567 38.9843 35.13C39.2643 34.8033 39.605 34.5513 40.0063 34.374C40.4077 34.1967 40.8603 34.108 41.3643 34.108C42.083 34.108 42.657 34.2667 43.0863 34.584C43.525 34.892 43.8517 35.298 44.0663 35.802L43.1283 36.278C42.9977 35.9047 42.783 35.6153 42.4843 35.41C42.1857 35.2047 41.8123 35.102 41.3643 35.102C41.0283 35.102 40.7343 35.158 40.4823 35.27C40.2303 35.3727 40.0203 35.522 39.8523 35.718C39.6843 35.9047 39.5583 36.1333 39.4743 36.404C39.3903 36.6653 39.3483 36.9547 39.3483 37.272V38.504C39.3483 39.1387 39.5163 39.6613 39.8523 40.072C40.1977 40.4733 40.7017 40.674 41.3643 40.674C42.2697 40.674 42.923 40.254 43.3243 39.414L44.1363 39.96C43.903 40.4827 43.553 40.898 43.0863 41.206C42.629 41.514 42.055 41.668 41.3643 41.668ZM48.3513 41.668C47.8566 41.668 47.4086 41.5793 47.0073 41.402C46.6153 41.2247 46.2746 40.9727 45.9853 40.646C45.7053 40.31 45.486 39.9133 45.3273 39.456C45.178 38.9893 45.1033 38.4667 45.1033 37.888C45.1033 37.3187 45.178 36.8007 45.3273 36.334C45.486 35.8673 45.7053 35.4707 45.9853 35.144C46.2746 34.808 46.6153 34.5513 47.0073 34.374C47.4086 34.1967 47.8566 34.108 48.3513 34.108C48.8366 34.108 49.2706 34.1967 49.6533 34.374C50.036 34.5513 50.3626 34.7987 50.6333 35.116C50.904 35.424 51.1093 35.7927 51.2493 36.222C51.3986 36.6513 51.4733 37.1227 51.4733 37.636V38.168H46.2793V38.504C46.2793 38.812 46.326 39.1013 46.4193 39.372C46.522 39.6333 46.662 39.862 46.8393 40.058C47.026 40.254 47.25 40.408 47.5113 40.52C47.782 40.632 48.0853 40.688 48.4213 40.688C48.8786 40.688 49.2753 40.5807 49.6113 40.366C49.9566 40.1513 50.2226 39.8433 50.4093 39.442L51.2073 40.016C50.974 40.5107 50.61 40.912 50.1153 41.22C49.6206 41.5187 49.0326 41.668 48.3513 41.668ZM48.3513 35.046C48.0433 35.046 47.7633 35.102 47.5113 35.214C47.2593 35.3167 47.04 35.466 46.8533 35.662C46.676 35.858 46.536 36.0913 46.4333 36.362C46.3306 36.6233 46.2793 36.9127 46.2793 37.23V37.328H50.2693V37.174C50.2693 36.53 50.092 36.0167 49.7373 35.634C49.392 35.242 48.93 35.046 48.3513 35.046Z" fill="#27C5D9"/>
<rect x="80" y="3" width="75" height="75" fill="#27C5D9"/>
<rect x="80.5" y="3.5" width="74" height="74" stroke="white" stroke-opacity="0.2"/>
<rect x="155" y="5.5" width="70" height="70" fill="#27C5D9"/>
<rect x="155.5" y="6" width="69" height="69" stroke="white" stroke-opacity="0.2"/>
<rect x="225" y="8" width="65" height="65" fill="#27C5D9"/>
<rect x="225.5" y="8.5" width="64" height="64" stroke="white" stroke-opacity="0.2"/>
<rect x="290" y="10.5" width="60" height="60" fill="#27C5D9"/>
<rect x="290.5" y="11" width="59" height="59" stroke="white" stroke-opacity="0.2"/>
<rect x="350" y="13" width="55" height="55" fill="#27C5D9"/>
<rect x="350.5" y="13.5" width="54" height="54" stroke="white" stroke-opacity="0.2"/>
</svg>
