<svg width="1080" height="160" viewBox="0 0 1080 160" fill="none" xmlns="http://www.w3.org/2000/svg">
<rect x="1044" y="45" width="70" height="70" fill="#27C5D9"/>
<rect x="1044.5" y="45.5" width="69" height="69" stroke="white" stroke-opacity="0.2"/>
<rect x="968" y="40" width="80" height="80" fill="#27C5D9"/>
<rect x="968.5" y="40.5" width="79" height="79" stroke="white" stroke-opacity="0.2"/>
<rect x="882" y="35" width="90" height="90" fill="#27C5D9"/>
<rect x="882.5" y="35.5" width="89" height="89" stroke="white" stroke-opacity="0.2"/>
<rect x="786" y="30" width="100" height="100" fill="#27C5D9"/>
<rect x="786.5" y="30.5" width="99" height="99" stroke="white" stroke-opacity="0.2"/>
<rect x="680" y="25" width="110" height="110" fill="#27C5D9"/>
<rect x="680.5" y="25.5" width="109" height="109" stroke="white" stroke-opacity="0.2"/>
<rect x="564" y="20" width="120" height="120" fill="#27C5D9"/>
<rect x="564.5" y="20.5" width="119" height="119" stroke="white" stroke-opacity="0.2"/>
<rect x="438" y="15" width="130" height="130" fill="#27C5D9"/>
<rect x="438.5" y="15.5" width="129" height="129" stroke="white" stroke-opacity="0.2"/>
<rect x="302" y="10" width="140" height="140" fill="#27C5D9"/>
<rect x="302.5" y="10.5" width="139" height="139" stroke="white" stroke-opacity="0.2"/>
<rect x="156" y="5" width="150" height="150" fill="#27C5D9"/>
<rect x="156.5" y="5.5" width="149" height="149" stroke="white" stroke-opacity="0.2"/>
<rect width="160" height="160" fill="white"/>
<rect x="0.5" y="0.5" width="159" height="159" stroke="white" stroke-opacity="0.2"/>
<path d="M13.86 30V16.04H22.38V17.52H15.54V22.2H21.98V23.68H15.54V28.52H22.38V30H13.86ZM26.6402 30L23.0202 19.68H24.6202L26.4202 24.8L27.5402 28.32H27.6402L28.7602 24.8L30.6002 19.68H32.1402L28.5002 30H26.6402ZM36.9277 30.24C36.221 30.24 35.581 30.1133 35.0077 29.86C34.4477 29.6067 33.961 29.2467 33.5477 28.78C33.1477 28.3 32.8343 27.7333 32.6077 27.08C32.3943 26.4133 32.2877 25.6667 32.2877 24.84C32.2877 24.0267 32.3943 23.2867 32.6077 22.62C32.8343 21.9533 33.1477 21.3867 33.5477 20.92C33.961 20.44 34.4477 20.0733 35.0077 19.82C35.581 19.5667 36.221 19.44 36.9277 19.44C37.621 19.44 38.241 19.5667 38.7877 19.82C39.3343 20.0733 39.801 20.4267 40.1877 20.88C40.5743 21.32 40.8677 21.8467 41.0677 22.46C41.281 23.0733 41.3877 23.7467 41.3877 24.48V25.24H33.9677V25.72C33.9677 26.16 34.0343 26.5733 34.1677 26.96C34.3143 27.3333 34.5143 27.66 34.7677 27.94C35.0343 28.22 35.3543 28.44 35.7277 28.6C36.1143 28.76 36.5477 28.84 37.0277 28.84C37.681 28.84 38.2477 28.6867 38.7277 28.38C39.221 28.0733 39.601 27.6333 39.8677 27.06L41.0077 27.88C40.6743 28.5867 40.1543 29.16 39.4477 29.6C38.741 30.0267 37.901 30.24 36.9277 30.24ZM36.9277 20.78C36.4877 20.78 36.0877 20.86 35.7277 21.02C35.3677 21.1667 35.0543 21.38 34.7877 21.66C34.5343 21.94 34.3343 22.2733 34.1877 22.66C34.041 23.0333 33.9677 23.4467 33.9677 23.9V24.04H39.6677V23.82C39.6677 22.9 39.4143 22.1667 38.9077 21.62C38.4143 21.06 37.7543 20.78 36.9277 20.78ZM43.0242 30V19.68H44.6242V21.58H44.7242C44.9109 21.0867 45.2442 20.6467 45.7242 20.26C46.2042 19.8733 46.8642 19.68 47.7042 19.68H48.3242V21.28H47.3842C46.5176 21.28 45.8376 21.4467 45.3442 21.78C44.8642 22.1 44.6242 22.5067 44.6242 23V30H43.0242ZM55.9233 19.68H57.5033L52.8833 32.4C52.7633 32.7067 52.6433 32.96 52.5233 33.16C52.4033 33.3733 52.2566 33.54 52.0833 33.66C51.9099 33.78 51.6899 33.8667 51.4233 33.92C51.1699 33.9733 50.8566 34 50.4833 34H49.6633V32.6H51.2833L52.0633 30.4L48.2033 19.68H49.8033L52.2833 26.7L52.7633 28.38H52.8633L53.4233 26.7L55.9233 19.68ZM60.8238 30C60.2638 30 59.8371 29.8467 59.5438 29.54C59.2638 29.22 59.1238 28.8067 59.1238 28.3V21.08H57.4238V19.68H58.3838C58.7304 19.68 58.9638 19.6133 59.0838 19.48C59.2171 19.3333 59.2838 19.0867 59.2838 18.74V16.82H60.7238V19.68H62.9838V21.08H60.7238V28.6H62.8238V30H60.8238ZM64.5555 15.2H66.1555V21.36H66.2355C66.4888 20.7733 66.8421 20.3067 67.2955 19.96C67.7621 19.6133 68.3821 19.44 69.1555 19.44C70.2221 19.44 71.0621 19.7867 71.6755 20.48C72.3021 21.16 72.6155 22.1267 72.6155 23.38V30H71.0155V23.66C71.0155 21.8067 70.2355 20.88 68.6755 20.88C68.3555 20.88 68.0421 20.92 67.7355 21C67.4421 21.08 67.1755 21.2 66.9355 21.36C66.6955 21.52 66.5021 21.7267 66.3555 21.98C66.2221 22.22 66.1555 22.5067 66.1555 22.84V30H64.5555V15.2ZM75.7227 17.26C75.376 17.26 75.1227 17.18 74.9627 17.02C74.816 16.8467 74.7427 16.6267 74.7427 16.36V16.1C74.7427 15.8333 74.816 15.62 74.9627 15.46C75.1227 15.2867 75.376 15.2 75.7227 15.2C76.0693 15.2 76.316 15.2867 76.4627 15.46C76.6227 15.62 76.7027 15.8333 76.7027 16.1V16.36C76.7027 16.6267 76.6227 16.8467 76.4627 17.02C76.316 17.18 76.0693 17.26 75.7227 17.26ZM74.9227 19.68H76.5227V30H74.9227V19.68ZM78.9227 30V19.68H80.5227V21.36H80.6027C80.856 20.7733 81.2093 20.3067 81.6627 19.96C82.1293 19.6133 82.7493 19.44 83.5227 19.44C84.5893 19.44 85.4293 19.7867 86.0427 20.48C86.6693 21.16 86.9827 22.1267 86.9827 23.38V30H85.3827V23.66C85.3827 21.8067 84.6027 20.88 83.0427 20.88C82.7227 20.88 82.4093 20.92 82.1027 21C81.8093 21.08 81.5427 21.2 81.3027 21.36C81.0627 21.52 80.8693 21.7267 80.7227 21.98C80.5893 22.22 80.5227 22.5067 80.5227 22.84V30H78.9227ZM97.9898 31.14C97.9898 32.2067 97.5698 32.9867 96.7298 33.48C95.9032 33.9867 94.6565 34.24 92.9898 34.24C91.3765 34.24 90.2165 34.02 89.5098 33.58C88.8032 33.14 88.4498 32.5133 88.4498 31.7C88.4498 31.14 88.5965 30.7 88.8898 30.38C89.1832 30.0733 89.5832 29.8467 90.0898 29.7V29.48C89.4765 29.1867 89.1698 28.7067 89.1698 28.04C89.1698 27.52 89.3365 27.1267 89.6698 26.86C90.0032 26.58 90.4298 26.3733 90.9498 26.24V26.16C90.3365 25.8667 89.8565 25.4467 89.5098 24.9C89.1765 24.3533 89.0098 23.72 89.0098 23C89.0098 22.48 89.1032 22 89.2898 21.56C89.4765 21.12 89.7365 20.7467 90.0698 20.44C90.4165 20.12 90.8232 19.8733 91.2898 19.7C91.7698 19.5267 92.3032 19.44 92.8898 19.44C93.6232 19.44 94.2765 19.5733 94.8498 19.84V19.66C94.8498 19.26 94.9432 18.9333 95.1298 18.68C95.3165 18.4133 95.6232 18.28 96.0498 18.28H97.5898V19.68H95.6298V20.34C96.0032 20.66 96.2898 21.0467 96.4898 21.5C96.7032 21.94 96.8098 22.44 96.8098 23C96.8098 23.52 96.7165 24 96.5298 24.44C96.3432 24.88 96.0765 25.26 95.7298 25.58C95.3965 25.8867 94.9898 26.1267 94.5098 26.3C94.0298 26.4733 93.4965 26.56 92.9098 26.56C92.5765 26.56 92.2432 26.5267 91.9098 26.46C91.5632 26.5533 91.2498 26.6933 90.9698 26.88C90.6898 27.0533 90.5498 27.3 90.5498 27.62C90.5498 27.9267 90.6965 28.1333 90.9898 28.24C91.2832 28.3467 91.6632 28.4 92.1298 28.4H94.3298C95.6098 28.4 96.5365 28.6467 97.1098 29.14C97.6965 29.62 97.9898 30.2867 97.9898 31.14ZM96.4898 31.26C96.4898 30.8467 96.3298 30.5133 96.0098 30.26C95.7032 30.02 95.1498 29.9 94.3498 29.9H90.9098C90.2698 30.1933 89.9498 30.66 89.9498 31.3C89.9498 31.7533 90.1165 32.14 90.4498 32.46C90.7965 32.78 91.3765 32.94 92.1898 32.94H93.6698C94.5632 32.94 95.2565 32.8 95.7498 32.52C96.2432 32.24 96.4898 31.82 96.4898 31.26ZM92.9098 25.28C93.5898 25.28 94.1298 25.12 94.5298 24.8C94.9298 24.4667 95.1298 23.96 95.1298 23.28V22.72C95.1298 22.04 94.9298 21.54 94.5298 21.22C94.1298 20.8867 93.5898 20.72 92.9098 20.72C92.2298 20.72 91.6898 20.8867 91.2898 21.22C90.8898 21.54 90.6898 22.04 90.6898 22.72V23.28C90.6898 23.96 90.8898 24.4667 91.2898 24.8C91.6898 25.12 92.2298 25.28 92.9098 25.28ZM21.2 50C20.6 50 20.1667 49.84 19.9 49.52C19.6467 49.2 19.4867 48.8 19.42 48.32H19.32C19.0933 48.96 18.72 49.44 18.2 49.76C17.68 50.08 17.06 50.24 16.34 50.24C15.2467 50.24 14.3933 49.96 13.78 49.4C13.18 48.84 12.88 48.08 12.88 47.12C12.88 46.1467 13.2333 45.4 13.94 44.88C14.66 44.36 15.7733 44.1 17.28 44.1H19.32V43.08C19.32 42.3467 19.12 41.7867 18.72 41.4C18.32 41.0133 17.7067 40.82 16.88 40.82C16.2533 40.82 15.7267 40.96 15.3 41.24C14.8867 41.52 14.54 41.8933 14.26 42.36L13.3 41.46C13.58 40.9 14.0267 40.4267 14.64 40.04C15.2533 39.64 16.0267 39.44 16.96 39.44C18.2133 39.44 19.1867 39.7467 19.88 40.36C20.5733 40.9733 20.92 41.8267 20.92 42.92V48.6H22.1V50H21.2ZM16.6 48.88C17 48.88 17.3667 48.8333 17.7 48.74C18.0333 48.6467 18.32 48.5133 18.56 48.34C18.8 48.1667 18.9867 47.9667 19.12 47.74C19.2533 47.5133 19.32 47.2667 19.32 47V45.3H17.2C16.28 45.3 15.6067 45.4333 15.18 45.7C14.7667 45.9667 14.56 46.3533 14.56 46.86V47.28C14.56 47.7867 14.74 48.18 15.1 48.46C15.4733 48.74 15.9733 48.88 16.6 48.88ZM25.6636 50C25.1036 50 24.6769 49.8467 24.3836 49.54C24.1036 49.22 23.9636 48.8067 23.9636 48.3V41.08H22.2636V39.68H23.2236C23.5703 39.68 23.8036 39.6133 23.9236 39.48C24.0569 39.3333 24.1236 39.0867 24.1236 38.74V36.82H25.5636V39.68H27.8236V41.08H25.5636V48.6H27.6636V50H25.6636ZM37.0219 50.24C36.3285 50.24 35.6952 50.1133 35.1219 49.86C34.5485 49.6067 34.0552 49.2467 33.6419 48.78C33.2419 48.3 32.9285 47.7333 32.7019 47.08C32.4752 46.4133 32.3619 45.6667 32.3619 44.84C32.3619 44.0267 32.4752 43.2867 32.7019 42.62C32.9285 41.9533 33.2419 41.3867 33.6419 40.92C34.0552 40.44 34.5485 40.0733 35.1219 39.82C35.6952 39.5667 36.3285 39.44 37.0219 39.44C37.7152 39.44 38.3419 39.5667 38.9019 39.82C39.4752 40.0733 39.9685 40.44 40.3819 40.92C40.7952 41.3867 41.1152 41.9533 41.3419 42.62C41.5685 43.2867 41.6819 44.0267 41.6819 44.84C41.6819 45.6667 41.5685 46.4133 41.3419 47.08C41.1152 47.7333 40.7952 48.3 40.3819 48.78C39.9685 49.2467 39.4752 49.6067 38.9019 49.86C38.3419 50.1133 37.7152 50.24 37.0219 50.24ZM37.0219 48.82C37.8885 48.82 38.5952 48.5533 39.1419 48.02C39.6885 47.4867 39.9619 46.6733 39.9619 45.58V44.1C39.9619 43.0067 39.6885 42.1933 39.1419 41.66C38.5952 41.1267 37.8885 40.86 37.0219 40.86C36.1552 40.86 35.4485 41.1267 34.9019 41.66C34.3552 42.1933 34.0819 43.0067 34.0819 44.1V45.58C34.0819 46.6733 34.3552 47.4867 34.9019 48.02C35.4485 48.5533 36.1552 48.82 37.0219 48.82ZM43.3133 50V39.68H44.9133V41.36H44.9933C45.2466 40.7733 45.5999 40.3067 46.0533 39.96C46.5199 39.6133 47.1399 39.44 47.9133 39.44C48.9799 39.44 49.8199 39.7867 50.4333 40.48C51.0599 41.16 51.3733 42.1267 51.3733 43.38V50H49.7733V43.66C49.7733 41.8067 48.9933 40.88 47.4333 40.88C47.1133 40.88 46.7999 40.92 46.4933 41C46.1999 41.08 45.9333 41.2 45.6933 41.36C45.4533 41.52 45.2599 41.7267 45.1133 41.98C44.9799 42.22 44.9133 42.5067 44.9133 42.84V50H43.3133ZM57.5205 50.24C56.8005 50.24 56.1538 50.1133 55.5805 49.86C55.0071 49.6067 54.5205 49.2467 54.1205 48.78C53.7338 48.3133 53.4338 47.7467 53.2205 47.08C53.0205 46.4133 52.9205 45.6667 52.9205 44.84C52.9205 44.0133 53.0205 43.2667 53.2205 42.6C53.4338 41.9333 53.7338 41.3667 54.1205 40.9C54.5205 40.4333 55.0071 40.0733 55.5805 39.82C56.1538 39.5667 56.8005 39.44 57.5205 39.44C58.5471 39.44 59.3671 39.6667 59.9805 40.12C60.6071 40.56 61.0738 41.14 61.3805 41.86L60.0405 42.54C59.8538 42.0067 59.5471 41.5933 59.1205 41.3C58.6938 41.0067 58.1605 40.86 57.5205 40.86C57.0405 40.86 56.6205 40.94 56.2605 41.1C55.9005 41.2467 55.6005 41.46 55.3605 41.74C55.1205 42.0067 54.9405 42.3333 54.8205 42.72C54.7005 43.0933 54.6405 43.5067 54.6405 43.96V45.72C54.6405 46.6267 54.8805 47.3733 55.3605 47.96C55.8538 48.5333 56.5738 48.82 57.5205 48.82C58.8138 48.82 59.7471 48.22 60.3205 47.02L61.4805 47.8C61.1471 48.5467 60.6471 49.14 59.9805 49.58C59.3271 50.02 58.5071 50.24 57.5205 50.24ZM66.5019 50.24C65.7952 50.24 65.1552 50.1133 64.5819 49.86C64.0219 49.6067 63.5352 49.2467 63.1219 48.78C62.7219 48.3 62.4085 47.7333 62.1819 47.08C61.9685 46.4133 61.8619 45.6667 61.8619 44.84C61.8619 44.0267 61.9685 43.2867 62.1819 42.62C62.4085 41.9533 62.7219 41.3867 63.1219 40.92C63.5352 40.44 64.0219 40.0733 64.5819 39.82C65.1552 39.5667 65.7952 39.44 66.5019 39.44C67.1952 39.44 67.8152 39.5667 68.3619 39.82C68.9085 40.0733 69.3752 40.4267 69.7619 40.88C70.1485 41.32 70.4419 41.8467 70.6419 42.46C70.8552 43.0733 70.9619 43.7467 70.9619 44.48V45.24H63.5419V45.72C63.5419 46.16 63.6085 46.5733 63.7419 46.96C63.8885 47.3333 64.0885 47.66 64.3419 47.94C64.6085 48.22 64.9285 48.44 65.3019 48.6C65.6885 48.76 66.1219 48.84 66.6019 48.84C67.2552 48.84 67.8219 48.6867 68.3019 48.38C68.7952 48.0733 69.1752 47.6333 69.4419 47.06L70.5819 47.88C70.2485 48.5867 69.7285 49.16 69.0219 49.6C68.3152 50.0267 67.4752 50.24 66.5019 50.24ZM66.5019 40.78C66.0619 40.78 65.6619 40.86 65.3019 41.02C64.9419 41.1667 64.6285 41.38 64.3619 41.66C64.1085 41.94 63.9085 42.2733 63.7619 42.66C63.6152 43.0333 63.5419 43.4467 63.5419 43.9V44.04H69.2419V43.82C69.2419 42.9 68.9885 42.1667 68.4819 41.62C67.9885 41.06 67.3285 40.78 66.5019 40.78Z" fill="#27C5D9"/>
</svg>
