<svg width="24" height="24" viewBox="0 0 24 24" fill="none" xmlns="http://www.w3.org/2000/svg">
<g id="linkedin_icon">
<path id="Vector" d="M7.02911 21H3.29732V8.98232H7.02911V21ZM5.16121 7.343C3.9679 7.343 3 6.35458 3 5.16125C3 4.58805 3.2277 4.03833 3.633 3.63302C4.03831 3.2277 4.58802 3 5.16121 3C5.73439 3 6.2841 3.2277 6.68941 3.63302C7.09471 4.03833 7.32241 4.58805 7.32241 5.16125C7.32241 6.35458 6.35411 7.343 5.16121 7.343ZM20.996 21H17.2722V15.1499C17.2722 13.7556 17.2441 11.9677 15.332 11.9677C13.3918 11.9677 13.0945 13.4824 13.0945 15.0494V21H9.3667V8.98232H12.9458V10.6216H12.998C13.4963 9.67743 14.7133 8.68097 16.5289 8.68097C20.3057 8.68097 21 11.1681 21 14.3985V21H20.996Z" fill="white"/>
</g>
</svg>
