<svg width="40" height="40" viewBox="0 0 40 40" fill="none" xmlns="http://www.w3.org/2000/svg">
<path d="M7 3H24L33 12V38H7V3Z" fill="#E55C5C"/>
<path d="M10.924 34V26.322H13.795C14.5283 26.322 15.0857 26.5273 15.467 26.938C15.8557 27.3487 16.05 27.9133 16.05 28.632C16.05 29.3507 15.8557 29.9153 15.467 30.326C15.0857 30.7367 14.5283 30.942 13.795 30.942H12.156V34H10.924ZM12.156 29.919H13.608C14.3707 29.919 14.752 29.567 14.752 28.863V28.39C14.752 27.6933 14.3707 27.345 13.608 27.345H12.156V29.919ZM17.0577 26.322H19.3457C20.3284 26.322 21.0544 26.6483 21.5237 27.301C22.0004 27.9537 22.2387 28.907 22.2387 30.161C22.2387 31.415 22.0004 32.3683 21.5237 33.021C21.0544 33.6737 20.3284 34 19.3457 34H17.0577V26.322ZM19.2687 32.988C19.8334 32.988 20.2514 32.801 20.5227 32.427C20.8014 32.0457 20.9407 31.503 20.9407 30.799V29.523C20.9407 28.819 20.8014 28.28 20.5227 27.906C20.2514 27.5247 19.8334 27.334 19.2687 27.334H18.2787V32.988H19.2687ZM23.2574 34V26.322H28.1964V27.356H24.4894V29.589H27.8554V30.623H24.4894V34H23.2574Z" fill="white"/>
</svg>
