<svg width="40" height="40" viewBox="0 0 40 40" fill="none" xmlns="http://www.w3.org/2000/svg">
<path d="M7 3H24L33 12V38H7V3Z" fill="#E55CAC"/>
<path d="M10.924 34V26.322H13.795C14.5283 26.322 15.0857 26.5273 15.467 26.938C15.8557 27.3487 16.05 27.9133 16.05 28.632C16.05 29.3507 15.8557 29.9153 15.467 30.326C15.0857 30.7367 14.5283 30.942 13.795 30.942H12.156V34H10.924ZM12.156 29.919H13.608C14.3707 29.919 14.752 29.567 14.752 28.863V28.39C14.752 27.6933 14.3707 27.345 13.608 27.345H12.156V29.919ZM18.1247 28.093H18.0257V34H16.9477V26.322H18.5317L20.7867 32.229H20.8857V26.322H21.9637V34H20.3797L18.1247 28.093ZM27.0414 32.944H26.9644C26.8984 33.098 26.8177 33.2483 26.7224 33.395C26.6344 33.5343 26.5207 33.659 26.3814 33.769C26.2494 33.879 26.0881 33.967 25.8974 34.033C25.7067 34.099 25.4867 34.132 25.2374 34.132C24.4381 34.132 23.8367 33.791 23.4334 33.109C23.0301 32.427 22.8284 31.4627 22.8284 30.216C22.8284 28.9107 23.0594 27.9133 23.5214 27.224C23.9834 26.5347 24.6911 26.19 25.6444 26.19C26.0184 26.19 26.3447 26.2413 26.6234 26.344C26.9094 26.4467 27.1514 26.586 27.3494 26.762C27.5474 26.9307 27.7124 27.1323 27.8444 27.367C27.9764 27.5943 28.0827 27.8363 28.1634 28.093L27.0524 28.467C26.9937 28.2983 26.9277 28.1407 26.8544 27.994C26.7811 27.84 26.6894 27.7043 26.5794 27.587C26.4767 27.4697 26.3484 27.378 26.1944 27.312C26.0477 27.246 25.8681 27.213 25.6554 27.213C25.1201 27.213 24.7314 27.422 24.4894 27.84C24.2547 28.2507 24.1374 28.808 24.1374 29.512V30.733C24.1374 31.085 24.1631 31.4077 24.2144 31.701C24.2657 31.9943 24.3501 32.2473 24.4674 32.46C24.5921 32.6653 24.7497 32.8267 24.9404 32.944C25.1384 33.0613 25.3767 33.12 25.6554 33.12C26.1027 33.12 26.4437 32.988 26.6784 32.724C26.9204 32.4527 27.0414 32.108 27.0414 31.69V30.997H25.5564V30.073H28.1634V34H27.0414V32.944Z" fill="white"/>
</svg>
