<svg width="40" height="40" viewBox="0 0 40 40" fill="none" xmlns="http://www.w3.org/2000/svg">
<mask id="mask0_388_65149" style="mask-type:alpha" maskUnits="userSpaceOnUse" x="0" y="0" width="40" height="40">
<rect width="40" height="40" fill="#D9D9D9"/>
</mask>
<g mask="url(#mask0_388_65149)">
<path d="M8.84495 34.1667C8.01384 34.1667 7.30384 33.8724 6.71495 33.2838C6.12634 32.6949 5.83203 31.9849 5.83203 31.1537V11.25C5.83203 10.9572 5.87314 10.6826 5.95536 10.4262C6.03759 10.1699 6.17175 9.93167 6.35786 9.71167L8.65912 6.9425C8.84495 6.71167 9.05745 6.53861 9.29661 6.42333C9.53606 6.30778 9.80217 6.25 10.0949 6.25H29.9024C30.1952 6.25 30.4613 6.30778 30.7008 6.42333C30.9399 6.53861 31.1525 6.71167 31.3383 6.9425L33.6395 9.71167C33.8256 9.93167 33.9598 10.1699 34.042 10.4262C34.1243 10.6826 34.1654 10.9572 34.1654 11.25V31.1537C34.1654 31.9849 33.8711 32.6949 33.2825 33.2838C32.6936 33.8724 31.9836 34.1667 31.1524 34.1667H8.84495ZM8.9987 10.4167H30.9987L29.582 8.75H10.4154L8.9987 10.4167ZM24.2487 27.8075L29.5562 22.5L24.2487 17.1925L22.4412 19L25.9412 22.5L22.4412 26L24.2487 27.8075ZM15.832 27.8075L17.6395 26L14.1395 22.5L17.6395 19L15.832 17.1925L10.5245 22.5L15.832 27.8075Z" fill="#66FFFF"/>
</g>
</svg>
