<svg width="24" height="24" viewBox="0 0 24 24" fill="none" xmlns="http://www.w3.org/2000/svg">
<g id="star">
<mask id="mask0_388_83880" style="mask-type:alpha" maskUnits="userSpaceOnUse" x="0" y="0" width="24" height="24">
<rect id="Bounding box" width="24" height="24" fill="#051F23"/>
</mask>
<g mask="url(#mask0_388_83880)">
<path id="star_2" d="M11.9996 16.6885L8.10939 19.0345C7.96439 19.1192 7.81914 19.1547 7.67364 19.1412C7.52814 19.1277 7.39648 19.0787 7.27864 18.9942C7.16064 18.9096 7.06956 18.799 7.00539 18.6625C6.94139 18.526 6.93114 18.375 6.97464 18.2095L8.00739 13.7922L4.57289 10.8192C4.44456 10.7077 4.36281 10.5786 4.32764 10.4317C4.29231 10.2849 4.30156 10.1422 4.35539 10.0037C4.40923 9.86541 4.48681 9.75232 4.58814 9.66449C4.68948 9.57665 4.82798 9.51924 5.00364 9.49224L9.53614 9.09624L11.2959 4.92499C11.3599 4.76982 11.457 4.65507 11.5871 4.58074C11.7173 4.5064 11.8548 4.46924 11.9996 4.46924C12.1445 4.46924 12.282 4.5064 12.4121 4.58074C12.5423 4.65507 12.6394 4.76982 12.7034 4.92499L14.4631 9.09624L18.9956 9.49224C19.1713 9.51924 19.3098 9.57665 19.4111 9.66449C19.5125 9.75232 19.5901 9.86541 19.6439 10.0037C19.6977 10.1422 19.707 10.2849 19.6716 10.4317C19.6365 10.5786 19.5547 10.7077 19.4264 10.8192L15.9919 13.7922L17.0246 18.2095C17.0681 18.375 17.0579 18.526 16.9939 18.6625C16.9297 18.799 16.8386 18.9096 16.7206 18.9942C16.6028 19.0787 16.4711 19.1277 16.3256 19.1412C16.1801 19.1547 16.0349 19.1192 15.8899 19.0345L11.9996 16.6885Z" fill="white" fill-opacity="0.5"/>
<g id="Mask group">
<mask id="mask1_388_83880" style="mask-type:alpha" maskUnits="userSpaceOnUse" x="4" y="4" width="16" height="16">
<path id="star_3" d="M12.0016 16.688L8.11135 19.034C7.96635 19.1187 7.8211 19.1543 7.6756 19.1407C7.5301 19.1272 7.39843 19.0783 7.2806 18.9938C7.1626 18.9091 7.07151 18.7985 7.00735 18.662C6.94335 18.5255 6.9331 18.3745 6.9766 18.209L8.00935 13.7917L4.57485 10.8187C4.44651 10.7073 4.36476 10.5781 4.3296 10.4313C4.29426 10.2844 4.30351 10.1418 4.35735 10.0033C4.41118 9.86492 4.48876 9.75183 4.5901 9.664C4.69143 9.57617 4.82993 9.51875 5.0056 9.49175L9.5381 9.09575L11.2978 4.9245C11.3618 4.76933 11.4589 4.65458 11.5891 4.58025C11.7193 4.50592 11.8568 4.46875 12.0016 4.46875C12.1464 4.46875 12.2839 4.50592 12.4141 4.58025C12.5443 4.65458 12.6413 4.76933 12.7053 4.9245L14.4651 9.09575L18.9976 9.49175C19.1733 9.51875 19.3118 9.57617 19.4131 9.664C19.5144 9.75183 19.592 9.86492 19.6458 10.0033C19.6997 10.1418 19.7089 10.2844 19.6736 10.4313C19.6384 10.5781 19.5567 10.7073 19.4283 10.8187L15.9938 13.7917L17.0266 18.209C17.0701 18.3745 17.0598 18.5255 16.9958 18.662C16.9317 18.7985 16.8406 18.9091 16.7226 18.9938C16.6048 19.0783 16.4731 19.1272 16.3276 19.1407C16.1821 19.1543 16.0368 19.1187 15.8918 19.034L12.0016 16.688Z" fill="#009DB1"/>
</mask>
<g mask="url(#mask1_388_83880)">
<rect id="Rectangle 4236" x="4" y="4" width="8" height="16" fill="#27C5D9"/>
</g>
</g>
</g>
</g>
</svg>
