<svg width="40" height="40" viewBox="0 0 40 40" fill="none" xmlns="http://www.w3.org/2000/svg">
<mask id="mask0_2012_3186" style="mask-type:alpha" maskUnits="userSpaceOnUse" x="0" y="0" width="40" height="40">
<rect width="40" height="40" fill="#D9D9D9"/>
</mask>
<g mask="url(#mask0_2012_3186)">
<path d="M14.168 34.1673V30.834H7.18089C6.33894 30.834 5.6263 30.5423 5.04297 29.959C4.45964 29.3757 4.16797 28.663 4.16797 27.8211V8.8469C4.16797 8.00496 4.45964 7.29232 5.04297 6.70898C5.6263 6.12565 6.33894 5.83398 7.18089 5.83398H32.8217C33.6637 5.83398 34.3763 6.12565 34.9596 6.70898C35.543 7.29232 35.8346 8.00496 35.8346 8.8469V27.8211C35.8346 28.663 35.543 29.3757 34.9596 29.959C34.3763 30.5423 33.6637 30.834 32.8217 30.834H25.8346V34.1673H14.168ZM7.68089 18.334L12.0142 14.0007L10.2576 12.2444L4.16797 18.334L10.2576 24.4236L12.0142 22.6673L7.68089 18.334ZM32.3217 18.334L27.9884 22.6673L29.7451 24.4236L35.8346 18.334L29.7451 12.2444L27.9884 14.0007L32.3217 18.334Z" fill="#B366FF"/>
</g>
</svg>
