<svg width="40" height="40" viewBox="0 0 40 40" fill="none" xmlns="http://www.w3.org/2000/svg">
<path d="M7 3H24L33 12V38H7V3Z" fill="#A15CE5"/>
<path d="M8.825 34L8.275 26.322H9.353L9.628 30.788L9.749 32.757H9.837L10.706 28.181H11.927L12.796 32.757H12.884L13.005 30.788L13.291 26.322H14.325L13.775 34H12.125L11.344 29.556H11.256L10.475 34H8.825ZM17.4557 34.132C16.9717 34.132 16.55 34.044 16.1907 33.868C15.8387 33.6847 15.5454 33.4243 15.3107 33.087C15.0834 32.7497 14.9147 32.3353 14.8047 31.844C14.6947 31.3527 14.6397 30.7917 14.6397 30.161C14.6397 29.5377 14.6947 28.9803 14.8047 28.489C14.9147 27.9903 15.0834 27.5723 15.3107 27.235C15.5454 26.8977 15.8387 26.641 16.1907 26.465C16.55 26.2817 16.9717 26.19 17.4557 26.19C17.9397 26.19 18.3577 26.2817 18.7097 26.465C19.069 26.641 19.3624 26.8977 19.5897 27.235C19.8244 27.5723 19.9967 27.9903 20.1067 28.489C20.2167 28.9803 20.2717 29.5377 20.2717 30.161C20.2717 30.7917 20.2167 31.3527 20.1067 31.844C19.9967 32.3353 19.8244 32.7497 19.5897 33.087C19.3624 33.4243 19.069 33.6847 18.7097 33.868C18.3577 34.044 17.9397 34.132 17.4557 34.132ZM17.4557 33.109C18.0057 33.109 18.3944 32.9037 18.6217 32.493C18.849 32.075 18.9627 31.5103 18.9627 30.799V29.512C18.9627 28.808 18.849 28.2507 18.6217 27.84C18.3944 27.422 18.0057 27.213 17.4557 27.213C16.9057 27.213 16.517 27.422 16.2897 27.84C16.0624 28.2507 15.9487 28.808 15.9487 29.512V30.81C15.9487 31.514 16.0624 32.075 16.2897 32.493C16.517 32.9037 16.9057 33.109 17.4557 33.109ZM22.4564 34H21.2354V26.322H24.1064C24.8397 26.322 25.3971 26.5273 25.7784 26.938C26.1671 27.3487 26.3614 27.9133 26.3614 28.632C26.3614 29.2187 26.2184 29.7027 25.9324 30.084C25.6464 30.4653 25.2357 30.7 24.7004 30.788L26.4714 34H25.1074L23.4794 30.898H22.4564V34ZM23.9304 29.908C24.6931 29.908 25.0744 29.5597 25.0744 28.863V28.39C25.0744 27.6933 24.6931 27.345 23.9304 27.345H22.4564V29.908H23.9304ZM27.3691 26.322H29.6571C30.6398 26.322 31.3658 26.6483 31.8351 27.301C32.3118 27.9537 32.5501 28.907 32.5501 30.161C32.5501 31.415 32.3118 32.3683 31.8351 33.021C31.3658 33.6737 30.6398 34 29.6571 34H27.3691V26.322ZM29.5801 32.988C30.1448 32.988 30.5628 32.801 30.8341 32.427C31.1128 32.0457 31.2521 31.503 31.2521 30.799V29.523C31.2521 28.819 31.1128 28.28 30.8341 27.906C30.5628 27.5247 30.1448 27.334 29.5801 27.334H28.5901V32.988H29.5801Z" fill="white"/>
</svg>
