<svg width="78" height="32" viewBox="0 0 78 32" fill="none" xmlns="http://www.w3.org/2000/svg">
<g id="Group 427321059">
<g id="Group 427321058">
<path id="Vector" d="M11.9738 21.1829L6.01634 5.34806L15.6803 0.97032L9.7032 0L0 4.36644L5.93489 20.1948L5.94618 30.9093L6.08412 30.9789L12.0475 31.9998L12.063 31.9926L12.0053 21.2614" fill="white" fill-opacity="0.3"/>
<path id="Vector_2" d="M16.511 3.65174L10.9745 6.15186L8.94171 12.9429L8.87987 12.9845L6.01172 5.34742L15.6989 0.958984L16.511 3.65174Z" fill="white" fill-opacity="0.5"/>
<path id="Vector_3" d="M12.0577 32.0007L12 21.2624L16.9444 7.13266L26.6149 2.76562L21.7204 16.8109L21.7591 27.6051L12.0577 32.0007Z" fill="white" fill-opacity="0.5"/>
</g>
<g id="Group 427321057">
<path id="Vector_4" d="M62.2084 20.3903V13.0665C62.2084 13.0564 62.1555 13.0338 62.2233 12.9922H64.5112L64.5557 13.0368V23.8809L64.5112 23.9255H61.8672L56.5934 16.4085V23.9255H54.2461V12.9922H56.905L62.1068 20.3285L62.2084 20.3903Z" fill="white" fill-opacity="0.5"/>
<path id="Vector_5" d="M49.0654 12.9889L45.8845 13.0204L41.8594 23.9246H44.4742L45.4238 21.0564L49.3627 21.041L50.4014 23.924H53.0305L49.066 12.9883L49.0654 12.9889ZM46.0189 19.2906L47.4001 15.1893L48.8116 19.2906H46.0195H46.0189Z" fill="white" fill-opacity="0.5"/>
<path id="Vector_6" d="M35.2428 12.9922L37.5604 17.2415L39.8774 12.9922H42.8633L38.8821 19.5139V23.9255H36.2381V19.5436L32.3164 12.9922H35.2428Z" fill="white" fill-opacity="0.5"/>
<path id="Vector_7" d="M76.7366 12.9922L72.6359 18.0876L77.2123 23.9255H74.0183L69.6055 18.1446L73.6919 12.9922H76.7366Z" fill="white" fill-opacity="0.5"/>
<path id="Vector_8" d="M69.5151 12.9922V23.9255H66.8711V13.0368L66.9157 12.9922H69.5151Z" fill="white" fill-opacity="0.5"/>
</g>
</g>
</svg>
